%TF.GenerationSoftware,KiCad,Pcbnew,(6.0.7)*%
%TF.CreationDate,2023-02-07T21:03:53+01:00*%
%TF.ProjectId,002 ardu ino shield,30303220-6172-4647-9520-696e6f207368,rev?*%
%TF.SameCoordinates,Original*%
%TF.FileFunction,Soldermask,Top*%
%TF.FilePolarity,Negative*%
%FSLAX46Y46*%
G04 Gerber Fmt 4.6, Leading zero omitted, Abs format (unit mm)*
G04 Created by KiCad (PCBNEW (6.0.7)) date 2023-02-07 21:03:53*
%MOMM*%
%LPD*%
G01*
G04 APERTURE LIST*
G04 Aperture macros list*
%AMRoundRect*
0 Rectangle with rounded corners*
0 $1 Rounding radius*
0 $2 $3 $4 $5 $6 $7 $8 $9 X,Y pos of 4 corners*
0 Add a 4 corners polygon primitive as box body*
4,1,4,$2,$3,$4,$5,$6,$7,$8,$9,$2,$3,0*
0 Add four circle primitives for the rounded corners*
1,1,$1+$1,$2,$3*
1,1,$1+$1,$4,$5*
1,1,$1+$1,$6,$7*
1,1,$1+$1,$8,$9*
0 Add four rect primitives between the rounded corners*
20,1,$1+$1,$2,$3,$4,$5,0*
20,1,$1+$1,$4,$5,$6,$7,0*
20,1,$1+$1,$6,$7,$8,$9,0*
20,1,$1+$1,$8,$9,$2,$3,0*%
G04 Aperture macros list end*
%ADD10R,1.700000X1.700000*%
%ADD11O,1.700000X1.700000*%
%ADD12C,2.500000*%
%ADD13C,1.000000*%
%ADD14C,1.500000*%
%ADD15RoundRect,0.237500X-0.250000X-0.237500X0.250000X-0.237500X0.250000X0.237500X-0.250000X0.237500X0*%
%ADD16C,1.800000*%
%ADD17RoundRect,0.042000X-0.908000X-0.258000X0.908000X-0.258000X0.908000X0.258000X-0.908000X0.258000X0*%
%ADD18RoundRect,0.042000X-0.943000X-0.258000X0.943000X-0.258000X0.943000X0.258000X-0.943000X0.258000X0*%
%ADD19RoundRect,0.237500X0.237500X-0.250000X0.237500X0.250000X-0.237500X0.250000X-0.237500X-0.250000X0*%
%ADD20RoundRect,0.237500X0.250000X0.237500X-0.250000X0.237500X-0.250000X-0.237500X0.250000X-0.237500X0*%
%ADD21C,3.200000*%
%ADD22RoundRect,0.237500X0.237500X-0.300000X0.237500X0.300000X-0.237500X0.300000X-0.237500X-0.300000X0*%
%ADD23RoundRect,0.237500X-0.237500X0.250000X-0.237500X-0.250000X0.237500X-0.250000X0.237500X0.250000X0*%
%ADD24C,1.440000*%
%ADD25RoundRect,0.237500X0.300000X0.237500X-0.300000X0.237500X-0.300000X-0.237500X0.300000X-0.237500X0*%
G04 APERTURE END LIST*
D10*
X127940000Y-97460000D03*
D11*
X130480000Y-97460000D03*
X133020000Y-97460000D03*
X135560000Y-97460000D03*
X138100000Y-97460000D03*
X140640000Y-97460000D03*
X143180000Y-97460000D03*
X145720000Y-97460000D03*
D10*
X150800000Y-97460000D03*
D11*
X153340000Y-97460000D03*
X155880000Y-97460000D03*
X158420000Y-97460000D03*
X160960000Y-97460000D03*
X163500000Y-97460000D03*
D10*
X118796000Y-49200000D03*
D11*
X121336000Y-49200000D03*
X123876000Y-49200000D03*
X126416000Y-49200000D03*
X128956000Y-49200000D03*
X131496000Y-49200000D03*
X134036000Y-49200000D03*
X136576000Y-49200000D03*
X139116000Y-49200000D03*
X141656000Y-49200000D03*
D10*
X145720000Y-49200000D03*
D11*
X148260000Y-49200000D03*
X150800000Y-49200000D03*
X153340000Y-49200000D03*
X155880000Y-49200000D03*
X158420000Y-49200000D03*
X160960000Y-49200000D03*
X163500000Y-49200000D03*
D12*
X165400000Y-84760000D03*
X161600000Y-84760000D03*
D13*
X165950000Y-89410000D03*
D14*
X162230000Y-82010000D03*
X164770000Y-82010000D03*
X162230000Y-87510000D03*
X164770000Y-87510000D03*
D10*
X163600000Y-59100000D03*
D11*
X163600000Y-56560000D03*
D15*
X154387500Y-88400000D03*
X156212500Y-88400000D03*
D16*
X114200000Y-71900000D03*
X136100000Y-91900000D03*
X151700000Y-55700000D03*
D17*
X123045000Y-56555000D03*
X123045000Y-57825000D03*
X123045000Y-59095000D03*
X123045000Y-60365000D03*
X123045000Y-61635000D03*
X123045000Y-62905000D03*
X123045000Y-64175000D03*
X123045000Y-65445000D03*
X127955000Y-65445000D03*
X127955000Y-64175000D03*
X127955000Y-62905000D03*
X127955000Y-61635000D03*
X127955000Y-60365000D03*
X127955000Y-59095000D03*
X127955000Y-57825000D03*
X127955000Y-56555000D03*
D18*
X132325000Y-78890000D03*
X132325000Y-80160000D03*
X132325000Y-81430000D03*
X132325000Y-82700000D03*
X132325000Y-83970000D03*
X132325000Y-85240000D03*
X132325000Y-86510000D03*
X137275000Y-86510000D03*
X137275000Y-85240000D03*
X137275000Y-83970000D03*
X137275000Y-82700000D03*
X137275000Y-81430000D03*
X137275000Y-80160000D03*
X137275000Y-78890000D03*
D19*
X153400000Y-76112500D03*
X153400000Y-74287500D03*
D20*
X133512500Y-65300000D03*
X131687500Y-65300000D03*
D19*
X157900000Y-79312500D03*
X157900000Y-77487500D03*
D21*
X115240000Y-49200000D03*
D22*
X142500000Y-57262500D03*
X142500000Y-55537500D03*
D19*
X124700000Y-73612500D03*
X124700000Y-71787500D03*
D15*
X127287500Y-72700000D03*
X129112500Y-72700000D03*
D18*
X142525000Y-61590000D03*
X142525000Y-62860000D03*
X142525000Y-64130000D03*
X142525000Y-65400000D03*
X142525000Y-66670000D03*
X142525000Y-67940000D03*
X142525000Y-69210000D03*
X147475000Y-69210000D03*
X147475000Y-67940000D03*
X147475000Y-66670000D03*
X147475000Y-65400000D03*
X147475000Y-64130000D03*
X147475000Y-62860000D03*
X147475000Y-61590000D03*
D19*
X148000000Y-57312500D03*
X148000000Y-55487500D03*
D20*
X152712500Y-85500000D03*
X150887500Y-85500000D03*
D23*
X148000000Y-74187500D03*
X148000000Y-76012500D03*
D24*
X126100000Y-83500000D03*
X123560000Y-80960000D03*
X126100000Y-78420000D03*
D16*
X154100000Y-71600000D03*
D25*
X154362500Y-81400000D03*
X152637500Y-81400000D03*
D20*
X146712500Y-85000000D03*
X144887500Y-85000000D03*
X138512500Y-65300000D03*
X136687500Y-65300000D03*
D19*
X156300000Y-64012500D03*
X156300000Y-62187500D03*
D23*
X156300000Y-55887500D03*
X156300000Y-57712500D03*
D16*
X135600000Y-62500000D03*
D21*
X113970000Y-97460000D03*
X166040000Y-64440000D03*
X166040000Y-92380000D03*
D15*
X147387500Y-90900000D03*
X149212500Y-90900000D03*
D16*
X147200000Y-79200000D03*
D15*
X142187500Y-80700000D03*
X144012500Y-80700000D03*
M02*
