%TF.GenerationSoftware,KiCad,Pcbnew,(6.0.7)*%
%TF.CreationDate,2023-02-07T21:03:53+01:00*%
%TF.ProjectId,002 ardu ino shield,30303220-6172-4647-9520-696e6f207368,rev?*%
%TF.SameCoordinates,Original*%
%TF.FileFunction,Legend,Top*%
%TF.FilePolarity,Positive*%
%FSLAX46Y46*%
G04 Gerber Fmt 4.6, Leading zero omitted, Abs format (unit mm)*
G04 Created by KiCad (PCBNEW (6.0.7)) date 2023-02-07 21:03:53*
%MOMM*%
%LPD*%
G01*
G04 APERTURE LIST*
G04 Aperture macros list*
%AMRoundRect*
0 Rectangle with rounded corners*
0 $1 Rounding radius*
0 $2 $3 $4 $5 $6 $7 $8 $9 X,Y pos of 4 corners*
0 Add a 4 corners polygon primitive as box body*
4,1,4,$2,$3,$4,$5,$6,$7,$8,$9,$2,$3,0*
0 Add four circle primitives for the rounded corners*
1,1,$1+$1,$2,$3*
1,1,$1+$1,$4,$5*
1,1,$1+$1,$6,$7*
1,1,$1+$1,$8,$9*
0 Add four rect primitives between the rounded corners*
20,1,$1+$1,$2,$3,$4,$5,0*
20,1,$1+$1,$4,$5,$6,$7,0*
20,1,$1+$1,$6,$7,$8,$9,0*
20,1,$1+$1,$8,$9,$2,$3,0*%
G04 Aperture macros list end*
%ADD10C,0.150000*%
%ADD11C,0.120000*%
%ADD12C,0.127000*%
%ADD13C,0.200000*%
%ADD14R,1.700000X1.700000*%
%ADD15O,1.700000X1.700000*%
%ADD16C,2.500000*%
%ADD17C,1.000000*%
%ADD18C,1.500000*%
%ADD19RoundRect,0.237500X-0.250000X-0.237500X0.250000X-0.237500X0.250000X0.237500X-0.250000X0.237500X0*%
%ADD20C,1.800000*%
%ADD21RoundRect,0.042000X-0.908000X-0.258000X0.908000X-0.258000X0.908000X0.258000X-0.908000X0.258000X0*%
%ADD22RoundRect,0.042000X-0.943000X-0.258000X0.943000X-0.258000X0.943000X0.258000X-0.943000X0.258000X0*%
%ADD23RoundRect,0.237500X0.237500X-0.250000X0.237500X0.250000X-0.237500X0.250000X-0.237500X-0.250000X0*%
%ADD24RoundRect,0.237500X0.250000X0.237500X-0.250000X0.237500X-0.250000X-0.237500X0.250000X-0.237500X0*%
%ADD25C,3.200000*%
%ADD26RoundRect,0.237500X0.237500X-0.300000X0.237500X0.300000X-0.237500X0.300000X-0.237500X-0.300000X0*%
%ADD27RoundRect,0.237500X-0.237500X0.250000X-0.237500X-0.250000X0.237500X-0.250000X0.237500X0.250000X0*%
%ADD28C,1.440000*%
%ADD29RoundRect,0.237500X0.300000X0.237500X-0.300000X0.237500X-0.300000X-0.237500X0.300000X-0.237500X0*%
G04 APERTURE END LIST*
D10*
X165771428Y-46652380D02*
X166342857Y-46652380D01*
X166057142Y-47652380D02*
X166057142Y-46652380D01*
X166866666Y-46652380D02*
X167057142Y-46652380D01*
X167152380Y-46700000D01*
X167247619Y-46795238D01*
X167295238Y-46985714D01*
X167295238Y-47319047D01*
X167247619Y-47509523D01*
X167152380Y-47604761D01*
X167057142Y-47652380D01*
X166866666Y-47652380D01*
X166771428Y-47604761D01*
X166676190Y-47509523D01*
X166628571Y-47319047D01*
X166628571Y-46985714D01*
X166676190Y-46795238D01*
X166771428Y-46700000D01*
X166866666Y-46652380D01*
X167723809Y-47652380D02*
X167723809Y-46652380D01*
X168104761Y-46652380D01*
X168200000Y-46700000D01*
X168247619Y-46747619D01*
X168295238Y-46842857D01*
X168295238Y-46985714D01*
X168247619Y-47080952D01*
X168200000Y-47128571D01*
X168104761Y-47176190D01*
X167723809Y-47176190D01*
X113195238Y-87632380D02*
X113385714Y-87632380D01*
X113480952Y-87680000D01*
X113576190Y-87775238D01*
X113623809Y-87965714D01*
X113623809Y-88299047D01*
X113576190Y-88489523D01*
X113480952Y-88584761D01*
X113385714Y-88632380D01*
X113195238Y-88632380D01*
X113100000Y-88584761D01*
X113004761Y-88489523D01*
X112957142Y-88299047D01*
X112957142Y-87965714D01*
X113004761Y-87775238D01*
X113100000Y-87680000D01*
X113195238Y-87632380D01*
X114052380Y-87965714D02*
X114052380Y-88965714D01*
X114052380Y-88013333D02*
X114147619Y-87965714D01*
X114338095Y-87965714D01*
X114433333Y-88013333D01*
X114480952Y-88060952D01*
X114528571Y-88156190D01*
X114528571Y-88441904D01*
X114480952Y-88537142D01*
X114433333Y-88584761D01*
X114338095Y-88632380D01*
X114147619Y-88632380D01*
X114052380Y-88584761D01*
X114814285Y-87965714D02*
X115195238Y-87965714D01*
X114957142Y-87632380D02*
X114957142Y-88489523D01*
X115004761Y-88584761D01*
X115100000Y-88632380D01*
X115195238Y-88632380D01*
X115528571Y-88632380D02*
X115528571Y-87965714D01*
X115528571Y-87632380D02*
X115480952Y-87680000D01*
X115528571Y-87727619D01*
X115576190Y-87680000D01*
X115528571Y-87632380D01*
X115528571Y-87727619D01*
X116433333Y-88584761D02*
X116338095Y-88632380D01*
X116147619Y-88632380D01*
X116052380Y-88584761D01*
X116004761Y-88537142D01*
X115957142Y-88441904D01*
X115957142Y-88156190D01*
X116004761Y-88060952D01*
X116052380Y-88013333D01*
X116147619Y-87965714D01*
X116338095Y-87965714D01*
X116433333Y-88013333D01*
X117290476Y-88632380D02*
X117290476Y-88108571D01*
X117242857Y-88013333D01*
X117147619Y-87965714D01*
X116957142Y-87965714D01*
X116861904Y-88013333D01*
X117290476Y-88584761D02*
X117195238Y-88632380D01*
X116957142Y-88632380D01*
X116861904Y-88584761D01*
X116814285Y-88489523D01*
X116814285Y-88394285D01*
X116861904Y-88299047D01*
X116957142Y-88251428D01*
X117195238Y-88251428D01*
X117290476Y-88203809D01*
X117909523Y-88632380D02*
X117814285Y-88584761D01*
X117766666Y-88489523D01*
X117766666Y-87632380D01*
X119052380Y-88632380D02*
X119052380Y-87965714D01*
X119052380Y-87632380D02*
X119004761Y-87680000D01*
X119052380Y-87727619D01*
X119100000Y-87680000D01*
X119052380Y-87632380D01*
X119052380Y-87727619D01*
X119528571Y-87965714D02*
X119528571Y-88632380D01*
X119528571Y-88060952D02*
X119576190Y-88013333D01*
X119671428Y-87965714D01*
X119814285Y-87965714D01*
X119909523Y-88013333D01*
X119957142Y-88108571D01*
X119957142Y-88632380D01*
X120290476Y-87965714D02*
X120671428Y-87965714D01*
X120433333Y-88632380D02*
X120433333Y-87775238D01*
X120480952Y-87680000D01*
X120576190Y-87632380D01*
X120671428Y-87632380D01*
X121004761Y-88632380D02*
X121004761Y-87965714D01*
X121004761Y-88156190D02*
X121052380Y-88060952D01*
X121100000Y-88013333D01*
X121195238Y-87965714D01*
X121290476Y-87965714D01*
X122052380Y-88632380D02*
X122052380Y-88108571D01*
X122004761Y-88013333D01*
X121909523Y-87965714D01*
X121719047Y-87965714D01*
X121623809Y-88013333D01*
X122052380Y-88584761D02*
X121957142Y-88632380D01*
X121719047Y-88632380D01*
X121623809Y-88584761D01*
X121576190Y-88489523D01*
X121576190Y-88394285D01*
X121623809Y-88299047D01*
X121719047Y-88251428D01*
X121957142Y-88251428D01*
X122052380Y-88203809D01*
X122528571Y-88632380D02*
X122528571Y-87965714D01*
X122528571Y-88156190D02*
X122576190Y-88060952D01*
X122623809Y-88013333D01*
X122719047Y-87965714D01*
X122814285Y-87965714D01*
X123528571Y-88584761D02*
X123433333Y-88632380D01*
X123242857Y-88632380D01*
X123147619Y-88584761D01*
X123100000Y-88489523D01*
X123100000Y-88108571D01*
X123147619Y-88013333D01*
X123242857Y-87965714D01*
X123433333Y-87965714D01*
X123528571Y-88013333D01*
X123576190Y-88108571D01*
X123576190Y-88203809D01*
X123100000Y-88299047D01*
X124433333Y-88632380D02*
X124433333Y-87632380D01*
X124433333Y-88584761D02*
X124338095Y-88632380D01*
X124147619Y-88632380D01*
X124052380Y-88584761D01*
X124004761Y-88537142D01*
X123957142Y-88441904D01*
X123957142Y-88156190D01*
X124004761Y-88060952D01*
X124052380Y-88013333D01*
X124147619Y-87965714D01*
X124338095Y-87965714D01*
X124433333Y-88013333D01*
X126195238Y-88632380D02*
X125623809Y-88632380D01*
X125909523Y-88632380D02*
X125909523Y-87632380D01*
X125814285Y-87775238D01*
X125719047Y-87870476D01*
X125623809Y-87918095D01*
X127195238Y-88537142D02*
X127147619Y-88584761D01*
X127004761Y-88632380D01*
X126909523Y-88632380D01*
X126766666Y-88584761D01*
X126671428Y-88489523D01*
X126623809Y-88394285D01*
X126576190Y-88203809D01*
X126576190Y-88060952D01*
X126623809Y-87870476D01*
X126671428Y-87775238D01*
X126766666Y-87680000D01*
X126909523Y-87632380D01*
X127004761Y-87632380D01*
X127147619Y-87680000D01*
X127195238Y-87727619D01*
X127623809Y-88632380D02*
X127623809Y-87632380D01*
X127623809Y-88108571D02*
X128195238Y-88108571D01*
X128195238Y-88632380D02*
X128195238Y-87632380D01*
X114647619Y-89575714D02*
X114885714Y-90242380D01*
X115123809Y-89575714D01*
X115504761Y-90242380D02*
X115504761Y-89575714D01*
X115504761Y-89242380D02*
X115457142Y-89290000D01*
X115504761Y-89337619D01*
X115552380Y-89290000D01*
X115504761Y-89242380D01*
X115504761Y-89337619D01*
X115980952Y-90242380D02*
X115980952Y-89242380D01*
X115980952Y-89623333D02*
X116076190Y-89575714D01*
X116266666Y-89575714D01*
X116361904Y-89623333D01*
X116409523Y-89670952D01*
X116457142Y-89766190D01*
X116457142Y-90051904D01*
X116409523Y-90147142D01*
X116361904Y-90194761D01*
X116266666Y-90242380D01*
X116076190Y-90242380D01*
X115980952Y-90194761D01*
X116885714Y-90242380D02*
X116885714Y-89575714D01*
X116885714Y-89766190D02*
X116933333Y-89670952D01*
X116980952Y-89623333D01*
X117076190Y-89575714D01*
X117171428Y-89575714D01*
X117933333Y-90242380D02*
X117933333Y-89718571D01*
X117885714Y-89623333D01*
X117790476Y-89575714D01*
X117600000Y-89575714D01*
X117504761Y-89623333D01*
X117933333Y-90194761D02*
X117838095Y-90242380D01*
X117600000Y-90242380D01*
X117504761Y-90194761D01*
X117457142Y-90099523D01*
X117457142Y-90004285D01*
X117504761Y-89909047D01*
X117600000Y-89861428D01*
X117838095Y-89861428D01*
X117933333Y-89813809D01*
X118266666Y-89575714D02*
X118647619Y-89575714D01*
X118409523Y-89242380D02*
X118409523Y-90099523D01*
X118457142Y-90194761D01*
X118552380Y-90242380D01*
X118647619Y-90242380D01*
X118980952Y-90242380D02*
X118980952Y-89575714D01*
X118980952Y-89242380D02*
X118933333Y-89290000D01*
X118980952Y-89337619D01*
X119028571Y-89290000D01*
X118980952Y-89242380D01*
X118980952Y-89337619D01*
X119600000Y-90242380D02*
X119504761Y-90194761D01*
X119457142Y-90147142D01*
X119409523Y-90051904D01*
X119409523Y-89766190D01*
X119457142Y-89670952D01*
X119504761Y-89623333D01*
X119600000Y-89575714D01*
X119742857Y-89575714D01*
X119838095Y-89623333D01*
X119885714Y-89670952D01*
X119933333Y-89766190D01*
X119933333Y-90051904D01*
X119885714Y-90147142D01*
X119838095Y-90194761D01*
X119742857Y-90242380D01*
X119600000Y-90242380D01*
X120361904Y-89575714D02*
X120361904Y-90242380D01*
X120361904Y-89670952D02*
X120409523Y-89623333D01*
X120504761Y-89575714D01*
X120647619Y-89575714D01*
X120742857Y-89623333D01*
X120790476Y-89718571D01*
X120790476Y-90242380D01*
X121980952Y-90194761D02*
X122076190Y-90242380D01*
X122266666Y-90242380D01*
X122361904Y-90194761D01*
X122409523Y-90099523D01*
X122409523Y-90051904D01*
X122361904Y-89956666D01*
X122266666Y-89909047D01*
X122123809Y-89909047D01*
X122028571Y-89861428D01*
X121980952Y-89766190D01*
X121980952Y-89718571D01*
X122028571Y-89623333D01*
X122123809Y-89575714D01*
X122266666Y-89575714D01*
X122361904Y-89623333D01*
X123219047Y-90194761D02*
X123123809Y-90242380D01*
X122933333Y-90242380D01*
X122838095Y-90194761D01*
X122790476Y-90099523D01*
X122790476Y-89718571D01*
X122838095Y-89623333D01*
X122933333Y-89575714D01*
X123123809Y-89575714D01*
X123219047Y-89623333D01*
X123266666Y-89718571D01*
X123266666Y-89813809D01*
X122790476Y-89909047D01*
X123695238Y-89575714D02*
X123695238Y-90242380D01*
X123695238Y-89670952D02*
X123742857Y-89623333D01*
X123838095Y-89575714D01*
X123980952Y-89575714D01*
X124076190Y-89623333D01*
X124123809Y-89718571D01*
X124123809Y-90242380D01*
X124552380Y-90194761D02*
X124647619Y-90242380D01*
X124838095Y-90242380D01*
X124933333Y-90194761D01*
X124980952Y-90099523D01*
X124980952Y-90051904D01*
X124933333Y-89956666D01*
X124838095Y-89909047D01*
X124695238Y-89909047D01*
X124600000Y-89861428D01*
X124552380Y-89766190D01*
X124552380Y-89718571D01*
X124600000Y-89623333D01*
X124695238Y-89575714D01*
X124838095Y-89575714D01*
X124933333Y-89623333D01*
X125552380Y-90242380D02*
X125457142Y-90194761D01*
X125409523Y-90147142D01*
X125361904Y-90051904D01*
X125361904Y-89766190D01*
X125409523Y-89670952D01*
X125457142Y-89623333D01*
X125552380Y-89575714D01*
X125695238Y-89575714D01*
X125790476Y-89623333D01*
X125838095Y-89670952D01*
X125885714Y-89766190D01*
X125885714Y-90051904D01*
X125838095Y-90147142D01*
X125790476Y-90194761D01*
X125695238Y-90242380D01*
X125552380Y-90242380D01*
X126314285Y-90242380D02*
X126314285Y-89575714D01*
X126314285Y-89766190D02*
X126361904Y-89670952D01*
X126409523Y-89623333D01*
X126504761Y-89575714D01*
X126600000Y-89575714D01*
X112457142Y-91852380D02*
X112457142Y-90852380D01*
X112457142Y-91804761D02*
X112361904Y-91852380D01*
X112171428Y-91852380D01*
X112076190Y-91804761D01*
X112028571Y-91757142D01*
X111980952Y-91661904D01*
X111980952Y-91376190D01*
X112028571Y-91280952D01*
X112076190Y-91233333D01*
X112171428Y-91185714D01*
X112361904Y-91185714D01*
X112457142Y-91233333D01*
X113314285Y-91804761D02*
X113219047Y-91852380D01*
X113028571Y-91852380D01*
X112933333Y-91804761D01*
X112885714Y-91709523D01*
X112885714Y-91328571D01*
X112933333Y-91233333D01*
X113028571Y-91185714D01*
X113219047Y-91185714D01*
X113314285Y-91233333D01*
X113361904Y-91328571D01*
X113361904Y-91423809D01*
X112885714Y-91519047D01*
X113742857Y-91804761D02*
X113838095Y-91852380D01*
X114028571Y-91852380D01*
X114123809Y-91804761D01*
X114171428Y-91709523D01*
X114171428Y-91661904D01*
X114123809Y-91566666D01*
X114028571Y-91519047D01*
X113885714Y-91519047D01*
X113790476Y-91471428D01*
X113742857Y-91376190D01*
X113742857Y-91328571D01*
X113790476Y-91233333D01*
X113885714Y-91185714D01*
X114028571Y-91185714D01*
X114123809Y-91233333D01*
X114600000Y-91852380D02*
X114600000Y-91185714D01*
X114600000Y-90852380D02*
X114552380Y-90900000D01*
X114600000Y-90947619D01*
X114647619Y-90900000D01*
X114600000Y-90852380D01*
X114600000Y-90947619D01*
X115504761Y-91185714D02*
X115504761Y-91995238D01*
X115457142Y-92090476D01*
X115409523Y-92138095D01*
X115314285Y-92185714D01*
X115171428Y-92185714D01*
X115076190Y-92138095D01*
X115504761Y-91804761D02*
X115409523Y-91852380D01*
X115219047Y-91852380D01*
X115123809Y-91804761D01*
X115076190Y-91757142D01*
X115028571Y-91661904D01*
X115028571Y-91376190D01*
X115076190Y-91280952D01*
X115123809Y-91233333D01*
X115219047Y-91185714D01*
X115409523Y-91185714D01*
X115504761Y-91233333D01*
X115980952Y-91185714D02*
X115980952Y-91852380D01*
X115980952Y-91280952D02*
X116028571Y-91233333D01*
X116123809Y-91185714D01*
X116266666Y-91185714D01*
X116361904Y-91233333D01*
X116409523Y-91328571D01*
X116409523Y-91852380D01*
X117504761Y-90852380D02*
X118076190Y-90852380D01*
X117790476Y-91852380D02*
X117790476Y-90852380D01*
X118552380Y-91852380D02*
X118457142Y-91804761D01*
X118409523Y-91757142D01*
X118361904Y-91661904D01*
X118361904Y-91376190D01*
X118409523Y-91280952D01*
X118457142Y-91233333D01*
X118552380Y-91185714D01*
X118695238Y-91185714D01*
X118790476Y-91233333D01*
X118838095Y-91280952D01*
X118885714Y-91376190D01*
X118885714Y-91661904D01*
X118838095Y-91757142D01*
X118790476Y-91804761D01*
X118695238Y-91852380D01*
X118552380Y-91852380D01*
X119314285Y-91852380D02*
X119314285Y-91185714D01*
X119314285Y-91280952D02*
X119361904Y-91233333D01*
X119457142Y-91185714D01*
X119600000Y-91185714D01*
X119695238Y-91233333D01*
X119742857Y-91328571D01*
X119742857Y-91852380D01*
X119742857Y-91328571D02*
X119790476Y-91233333D01*
X119885714Y-91185714D01*
X120028571Y-91185714D01*
X120123809Y-91233333D01*
X120171428Y-91328571D01*
X120171428Y-91852380D01*
X121076190Y-91852380D02*
X121076190Y-91328571D01*
X121028571Y-91233333D01*
X120933333Y-91185714D01*
X120742857Y-91185714D01*
X120647619Y-91233333D01*
X121076190Y-91804761D02*
X120980952Y-91852380D01*
X120742857Y-91852380D01*
X120647619Y-91804761D01*
X120600000Y-91709523D01*
X120600000Y-91614285D01*
X120647619Y-91519047D01*
X120742857Y-91471428D01*
X120980952Y-91471428D01*
X121076190Y-91423809D01*
X121504761Y-91804761D02*
X121600000Y-91852380D01*
X121790476Y-91852380D01*
X121885714Y-91804761D01*
X121933333Y-91709523D01*
X121933333Y-91661904D01*
X121885714Y-91566666D01*
X121790476Y-91519047D01*
X121647619Y-91519047D01*
X121552380Y-91471428D01*
X121504761Y-91376190D01*
X121504761Y-91328571D01*
X121552380Y-91233333D01*
X121647619Y-91185714D01*
X121790476Y-91185714D01*
X121885714Y-91233333D01*
X123647619Y-90900000D02*
X123552380Y-90852380D01*
X123409523Y-90852380D01*
X123266666Y-90900000D01*
X123171428Y-90995238D01*
X123123809Y-91090476D01*
X123076190Y-91280952D01*
X123076190Y-91423809D01*
X123123809Y-91614285D01*
X123171428Y-91709523D01*
X123266666Y-91804761D01*
X123409523Y-91852380D01*
X123504761Y-91852380D01*
X123647619Y-91804761D01*
X123695238Y-91757142D01*
X123695238Y-91423809D01*
X123504761Y-91423809D01*
X124552380Y-91852380D02*
X124552380Y-91328571D01*
X124504761Y-91233333D01*
X124409523Y-91185714D01*
X124219047Y-91185714D01*
X124123809Y-91233333D01*
X124552380Y-91804761D02*
X124457142Y-91852380D01*
X124219047Y-91852380D01*
X124123809Y-91804761D01*
X124076190Y-91709523D01*
X124076190Y-91614285D01*
X124123809Y-91519047D01*
X124219047Y-91471428D01*
X124457142Y-91471428D01*
X124552380Y-91423809D01*
X125028571Y-91185714D02*
X125028571Y-92042857D01*
X124980952Y-92138095D01*
X124885714Y-92185714D01*
X124838095Y-92185714D01*
X125028571Y-90852380D02*
X124980952Y-90900000D01*
X125028571Y-90947619D01*
X125076190Y-90900000D01*
X125028571Y-90852380D01*
X125028571Y-90947619D01*
X125933333Y-91852380D02*
X125933333Y-90852380D01*
X125933333Y-91804761D02*
X125838095Y-91852380D01*
X125647619Y-91852380D01*
X125552380Y-91804761D01*
X125504761Y-91757142D01*
X125457142Y-91661904D01*
X125457142Y-91376190D01*
X125504761Y-91280952D01*
X125552380Y-91233333D01*
X125647619Y-91185714D01*
X125838095Y-91185714D01*
X125933333Y-91233333D01*
X126838095Y-91852380D02*
X126838095Y-91328571D01*
X126790476Y-91233333D01*
X126695238Y-91185714D01*
X126504761Y-91185714D01*
X126409523Y-91233333D01*
X126838095Y-91804761D02*
X126742857Y-91852380D01*
X126504761Y-91852380D01*
X126409523Y-91804761D01*
X126361904Y-91709523D01*
X126361904Y-91614285D01*
X126409523Y-91519047D01*
X126504761Y-91471428D01*
X126742857Y-91471428D01*
X126838095Y-91423809D01*
X127314285Y-91852380D02*
X127314285Y-91185714D01*
X127314285Y-91376190D02*
X127361904Y-91280952D01*
X127409523Y-91233333D01*
X127504761Y-91185714D01*
X127600000Y-91185714D01*
X128361904Y-91185714D02*
X128361904Y-91852380D01*
X127933333Y-91185714D02*
X127933333Y-91709523D01*
X127980952Y-91804761D01*
X128076190Y-91852380D01*
X128219047Y-91852380D01*
X128314285Y-91804761D01*
X128361904Y-91757142D01*
X128790476Y-91804761D02*
X128885714Y-91852380D01*
X129076190Y-91852380D01*
X129171428Y-91804761D01*
X129219047Y-91709523D01*
X129219047Y-91661904D01*
X129171428Y-91566666D01*
X129076190Y-91519047D01*
X128933333Y-91519047D01*
X128838095Y-91471428D01*
X128790476Y-91376190D01*
X128790476Y-91328571D01*
X128838095Y-91233333D01*
X128933333Y-91185714D01*
X129076190Y-91185714D01*
X129171428Y-91233333D01*
X115957142Y-92462380D02*
X115957142Y-93176666D01*
X115909523Y-93319523D01*
X115814285Y-93414761D01*
X115671428Y-93462380D01*
X115576190Y-93462380D01*
X116861904Y-93462380D02*
X116861904Y-92938571D01*
X116814285Y-92843333D01*
X116719047Y-92795714D01*
X116528571Y-92795714D01*
X116433333Y-92843333D01*
X116861904Y-93414761D02*
X116766666Y-93462380D01*
X116528571Y-93462380D01*
X116433333Y-93414761D01*
X116385714Y-93319523D01*
X116385714Y-93224285D01*
X116433333Y-93129047D01*
X116528571Y-93081428D01*
X116766666Y-93081428D01*
X116861904Y-93033809D01*
X117338095Y-92795714D02*
X117338095Y-93462380D01*
X117338095Y-92890952D02*
X117385714Y-92843333D01*
X117480952Y-92795714D01*
X117623809Y-92795714D01*
X117719047Y-92843333D01*
X117766666Y-92938571D01*
X117766666Y-93462380D01*
X118671428Y-92795714D02*
X118671428Y-93462380D01*
X118242857Y-92795714D02*
X118242857Y-93319523D01*
X118290476Y-93414761D01*
X118385714Y-93462380D01*
X118528571Y-93462380D01*
X118623809Y-93414761D01*
X118671428Y-93367142D01*
X119576190Y-93462380D02*
X119576190Y-92938571D01*
X119528571Y-92843333D01*
X119433333Y-92795714D01*
X119242857Y-92795714D01*
X119147619Y-92843333D01*
X119576190Y-93414761D02*
X119480952Y-93462380D01*
X119242857Y-93462380D01*
X119147619Y-93414761D01*
X119100000Y-93319523D01*
X119100000Y-93224285D01*
X119147619Y-93129047D01*
X119242857Y-93081428D01*
X119480952Y-93081428D01*
X119576190Y-93033809D01*
X120052380Y-93462380D02*
X120052380Y-92795714D01*
X120052380Y-92986190D02*
X120100000Y-92890952D01*
X120147619Y-92843333D01*
X120242857Y-92795714D01*
X120338095Y-92795714D01*
X120576190Y-92795714D02*
X120814285Y-93462380D01*
X121052380Y-92795714D02*
X120814285Y-93462380D01*
X120719047Y-93700476D01*
X120671428Y-93748095D01*
X120576190Y-93795714D01*
X122147619Y-92557619D02*
X122195238Y-92510000D01*
X122290476Y-92462380D01*
X122528571Y-92462380D01*
X122623809Y-92510000D01*
X122671428Y-92557619D01*
X122719047Y-92652857D01*
X122719047Y-92748095D01*
X122671428Y-92890952D01*
X122100000Y-93462380D01*
X122719047Y-93462380D01*
X123338095Y-92462380D02*
X123433333Y-92462380D01*
X123528571Y-92510000D01*
X123576190Y-92557619D01*
X123623809Y-92652857D01*
X123671428Y-92843333D01*
X123671428Y-93081428D01*
X123623809Y-93271904D01*
X123576190Y-93367142D01*
X123528571Y-93414761D01*
X123433333Y-93462380D01*
X123338095Y-93462380D01*
X123242857Y-93414761D01*
X123195238Y-93367142D01*
X123147619Y-93271904D01*
X123100000Y-93081428D01*
X123100000Y-92843333D01*
X123147619Y-92652857D01*
X123195238Y-92557619D01*
X123242857Y-92510000D01*
X123338095Y-92462380D01*
X124052380Y-92557619D02*
X124100000Y-92510000D01*
X124195238Y-92462380D01*
X124433333Y-92462380D01*
X124528571Y-92510000D01*
X124576190Y-92557619D01*
X124623809Y-92652857D01*
X124623809Y-92748095D01*
X124576190Y-92890952D01*
X124004761Y-93462380D01*
X124623809Y-93462380D01*
X124957142Y-92462380D02*
X125576190Y-92462380D01*
X125242857Y-92843333D01*
X125385714Y-92843333D01*
X125480952Y-92890952D01*
X125528571Y-92938571D01*
X125576190Y-93033809D01*
X125576190Y-93271904D01*
X125528571Y-93367142D01*
X125480952Y-93414761D01*
X125385714Y-93462380D01*
X125100000Y-93462380D01*
X125004761Y-93414761D01*
X124957142Y-93367142D01*
X117576190Y-94405714D02*
X117814285Y-95072380D01*
X118052380Y-94405714D01*
X118814285Y-95024761D02*
X118719047Y-95072380D01*
X118528571Y-95072380D01*
X118433333Y-95024761D01*
X118385714Y-94929523D01*
X118385714Y-94548571D01*
X118433333Y-94453333D01*
X118528571Y-94405714D01*
X118719047Y-94405714D01*
X118814285Y-94453333D01*
X118861904Y-94548571D01*
X118861904Y-94643809D01*
X118385714Y-94739047D01*
X119290476Y-95072380D02*
X119290476Y-94405714D01*
X119290476Y-94596190D02*
X119338095Y-94500952D01*
X119385714Y-94453333D01*
X119480952Y-94405714D01*
X119576190Y-94405714D01*
X121195238Y-95072380D02*
X120623809Y-95072380D01*
X120909523Y-95072380D02*
X120909523Y-94072380D01*
X120814285Y-94215238D01*
X120719047Y-94310476D01*
X120623809Y-94358095D01*
X121623809Y-94977142D02*
X121671428Y-95024761D01*
X121623809Y-95072380D01*
X121576190Y-95024761D01*
X121623809Y-94977142D01*
X121623809Y-95072380D01*
X122290476Y-94072380D02*
X122385714Y-94072380D01*
X122480952Y-94120000D01*
X122528571Y-94167619D01*
X122576190Y-94262857D01*
X122623809Y-94453333D01*
X122623809Y-94691428D01*
X122576190Y-94881904D01*
X122528571Y-94977142D01*
X122480952Y-95024761D01*
X122385714Y-95072380D01*
X122290476Y-95072380D01*
X122195238Y-95024761D01*
X122147619Y-94977142D01*
X122100000Y-94881904D01*
X122052380Y-94691428D01*
X122052380Y-94453333D01*
X122100000Y-94262857D01*
X122147619Y-94167619D01*
X122195238Y-94120000D01*
X122290476Y-94072380D01*
X123242857Y-94072380D02*
X123338095Y-94072380D01*
X123433333Y-94120000D01*
X123480952Y-94167619D01*
X123528571Y-94262857D01*
X123576190Y-94453333D01*
X123576190Y-94691428D01*
X123528571Y-94881904D01*
X123480952Y-94977142D01*
X123433333Y-95024761D01*
X123338095Y-95072380D01*
X123242857Y-95072380D01*
X123147619Y-95024761D01*
X123100000Y-94977142D01*
X123052380Y-94881904D01*
X123004761Y-94691428D01*
X123004761Y-94453333D01*
X123052380Y-94262857D01*
X123100000Y-94167619D01*
X123147619Y-94120000D01*
X123242857Y-94072380D01*
X115652380Y-80400000D02*
X115557142Y-80352380D01*
X115414285Y-80352380D01*
X115271428Y-80400000D01*
X115176190Y-80495238D01*
X115128571Y-80590476D01*
X115080952Y-80780952D01*
X115080952Y-80923809D01*
X115128571Y-81114285D01*
X115176190Y-81209523D01*
X115271428Y-81304761D01*
X115414285Y-81352380D01*
X115509523Y-81352380D01*
X115652380Y-81304761D01*
X115700000Y-81257142D01*
X115700000Y-80923809D01*
X115509523Y-80923809D01*
X116080952Y-81066666D02*
X116557142Y-81066666D01*
X115985714Y-81352380D02*
X116319047Y-80352380D01*
X116652380Y-81352380D01*
X116985714Y-81352380D02*
X116985714Y-80352380D01*
X117461904Y-81352380D02*
X117461904Y-80352380D01*
X118033333Y-81352380D01*
X118033333Y-80352380D01*
X119271428Y-80971428D02*
X120033333Y-80971428D01*
X120509523Y-80685714D02*
X121271428Y-80971428D01*
X120509523Y-81257142D01*
X164814285Y-53971428D02*
X165576190Y-53971428D01*
X166100000Y-54352380D02*
X166290476Y-54352380D01*
X166385714Y-54304761D01*
X166433333Y-54257142D01*
X166528571Y-54114285D01*
X166576190Y-53923809D01*
X166576190Y-53542857D01*
X166528571Y-53447619D01*
X166480952Y-53400000D01*
X166385714Y-53352380D01*
X166195238Y-53352380D01*
X166100000Y-53400000D01*
X166052380Y-53447619D01*
X166004761Y-53542857D01*
X166004761Y-53780952D01*
X166052380Y-53876190D01*
X166100000Y-53923809D01*
X166195238Y-53971428D01*
X166385714Y-53971428D01*
X166480952Y-53923809D01*
X166528571Y-53876190D01*
X166576190Y-53780952D01*
X166861904Y-53352380D02*
X167195238Y-54352380D01*
X167528571Y-53352380D01*
X165114285Y-61171428D02*
X165876190Y-61171428D01*
X165495238Y-61552380D02*
X165495238Y-60790476D01*
X166400000Y-61552380D02*
X166590476Y-61552380D01*
X166685714Y-61504761D01*
X166733333Y-61457142D01*
X166828571Y-61314285D01*
X166876190Y-61123809D01*
X166876190Y-60742857D01*
X166828571Y-60647619D01*
X166780952Y-60600000D01*
X166685714Y-60552380D01*
X166495238Y-60552380D01*
X166400000Y-60600000D01*
X166352380Y-60647619D01*
X166304761Y-60742857D01*
X166304761Y-60980952D01*
X166352380Y-61076190D01*
X166400000Y-61123809D01*
X166495238Y-61171428D01*
X166685714Y-61171428D01*
X166780952Y-61123809D01*
X166828571Y-61076190D01*
X166876190Y-60980952D01*
X167161904Y-60552380D02*
X167495238Y-61552380D01*
X167828571Y-60552380D01*
X152161904Y-91742380D02*
X152161904Y-90742380D01*
X152161904Y-91123333D02*
X152257142Y-91075714D01*
X152447619Y-91075714D01*
X152542857Y-91123333D01*
X152590476Y-91170952D01*
X152638095Y-91266190D01*
X152638095Y-91551904D01*
X152590476Y-91647142D01*
X152542857Y-91694761D01*
X152447619Y-91742380D01*
X152257142Y-91742380D01*
X152161904Y-91694761D01*
X153209523Y-91742380D02*
X153114285Y-91694761D01*
X153066666Y-91647142D01*
X153019047Y-91551904D01*
X153019047Y-91266190D01*
X153066666Y-91170952D01*
X153114285Y-91123333D01*
X153209523Y-91075714D01*
X153352380Y-91075714D01*
X153447619Y-91123333D01*
X153495238Y-91170952D01*
X153542857Y-91266190D01*
X153542857Y-91551904D01*
X153495238Y-91647142D01*
X153447619Y-91694761D01*
X153352380Y-91742380D01*
X153209523Y-91742380D01*
X154400000Y-91742380D02*
X154400000Y-91218571D01*
X154352380Y-91123333D01*
X154257142Y-91075714D01*
X154066666Y-91075714D01*
X153971428Y-91123333D01*
X154400000Y-91694761D02*
X154304761Y-91742380D01*
X154066666Y-91742380D01*
X153971428Y-91694761D01*
X153923809Y-91599523D01*
X153923809Y-91504285D01*
X153971428Y-91409047D01*
X154066666Y-91361428D01*
X154304761Y-91361428D01*
X154400000Y-91313809D01*
X154876190Y-91742380D02*
X154876190Y-91075714D01*
X154876190Y-91266190D02*
X154923809Y-91170952D01*
X154971428Y-91123333D01*
X155066666Y-91075714D01*
X155161904Y-91075714D01*
X155923809Y-91742380D02*
X155923809Y-90742380D01*
X155923809Y-91694761D02*
X155828571Y-91742380D01*
X155638095Y-91742380D01*
X155542857Y-91694761D01*
X155495238Y-91647142D01*
X155447619Y-91551904D01*
X155447619Y-91266190D01*
X155495238Y-91170952D01*
X155542857Y-91123333D01*
X155638095Y-91075714D01*
X155828571Y-91075714D01*
X155923809Y-91123333D01*
X157590476Y-91075714D02*
X157590476Y-91742380D01*
X157352380Y-90694761D02*
X157114285Y-91409047D01*
X157733333Y-91409047D01*
X150352380Y-93066666D02*
X150828571Y-93066666D01*
X150257142Y-93352380D02*
X150590476Y-92352380D01*
X150923809Y-93352380D01*
X151257142Y-93352380D02*
X151257142Y-92685714D01*
X151257142Y-92876190D02*
X151304761Y-92780952D01*
X151352380Y-92733333D01*
X151447619Y-92685714D01*
X151542857Y-92685714D01*
X152304761Y-93352380D02*
X152304761Y-92352380D01*
X152304761Y-93304761D02*
X152209523Y-93352380D01*
X152019047Y-93352380D01*
X151923809Y-93304761D01*
X151876190Y-93257142D01*
X151828571Y-93161904D01*
X151828571Y-92876190D01*
X151876190Y-92780952D01*
X151923809Y-92733333D01*
X152019047Y-92685714D01*
X152209523Y-92685714D01*
X152304761Y-92733333D01*
X153209523Y-92685714D02*
X153209523Y-93352380D01*
X152780952Y-92685714D02*
X152780952Y-93209523D01*
X152828571Y-93304761D01*
X152923809Y-93352380D01*
X153066666Y-93352380D01*
X153161904Y-93304761D01*
X153209523Y-93257142D01*
X153685714Y-93352380D02*
X153685714Y-92685714D01*
X153685714Y-92352380D02*
X153638095Y-92400000D01*
X153685714Y-92447619D01*
X153733333Y-92400000D01*
X153685714Y-92352380D01*
X153685714Y-92447619D01*
X154161904Y-92685714D02*
X154161904Y-93352380D01*
X154161904Y-92780952D02*
X154209523Y-92733333D01*
X154304761Y-92685714D01*
X154447619Y-92685714D01*
X154542857Y-92733333D01*
X154590476Y-92828571D01*
X154590476Y-93352380D01*
X155209523Y-93352380D02*
X155114285Y-93304761D01*
X155066666Y-93257142D01*
X155019047Y-93161904D01*
X155019047Y-92876190D01*
X155066666Y-92780952D01*
X155114285Y-92733333D01*
X155209523Y-92685714D01*
X155352380Y-92685714D01*
X155447619Y-92733333D01*
X155495238Y-92780952D01*
X155542857Y-92876190D01*
X155542857Y-93161904D01*
X155495238Y-93257142D01*
X155447619Y-93304761D01*
X155352380Y-93352380D01*
X155209523Y-93352380D01*
X156733333Y-92352380D02*
X156733333Y-93161904D01*
X156780952Y-93257142D01*
X156828571Y-93304761D01*
X156923809Y-93352380D01*
X157114285Y-93352380D01*
X157209523Y-93304761D01*
X157257142Y-93257142D01*
X157304761Y-93161904D01*
X157304761Y-92352380D01*
X157780952Y-93352380D02*
X157780952Y-92352380D01*
X158352380Y-93352380D01*
X158352380Y-92352380D01*
X159019047Y-92352380D02*
X159209523Y-92352380D01*
X159304761Y-92400000D01*
X159400000Y-92495238D01*
X159447619Y-92685714D01*
X159447619Y-93019047D01*
X159400000Y-93209523D01*
X159304761Y-93304761D01*
X159209523Y-93352380D01*
X159019047Y-93352380D01*
X158923809Y-93304761D01*
X158828571Y-93209523D01*
X158780952Y-93019047D01*
X158780952Y-92685714D01*
X158828571Y-92495238D01*
X158923809Y-92400000D01*
X159019047Y-92352380D01*
X146328571Y-94914761D02*
X146423809Y-94962380D01*
X146614285Y-94962380D01*
X146709523Y-94914761D01*
X146757142Y-94819523D01*
X146757142Y-94771904D01*
X146709523Y-94676666D01*
X146614285Y-94629047D01*
X146471428Y-94629047D01*
X146376190Y-94581428D01*
X146328571Y-94486190D01*
X146328571Y-94438571D01*
X146376190Y-94343333D01*
X146471428Y-94295714D01*
X146614285Y-94295714D01*
X146709523Y-94343333D01*
X147566666Y-94914761D02*
X147471428Y-94962380D01*
X147280952Y-94962380D01*
X147185714Y-94914761D01*
X147138095Y-94819523D01*
X147138095Y-94438571D01*
X147185714Y-94343333D01*
X147280952Y-94295714D01*
X147471428Y-94295714D01*
X147566666Y-94343333D01*
X147614285Y-94438571D01*
X147614285Y-94533809D01*
X147138095Y-94629047D01*
X148042857Y-94295714D02*
X148042857Y-94962380D01*
X148042857Y-94390952D02*
X148090476Y-94343333D01*
X148185714Y-94295714D01*
X148328571Y-94295714D01*
X148423809Y-94343333D01*
X148471428Y-94438571D01*
X148471428Y-94962380D01*
X148900000Y-94914761D02*
X148995238Y-94962380D01*
X149185714Y-94962380D01*
X149280952Y-94914761D01*
X149328571Y-94819523D01*
X149328571Y-94771904D01*
X149280952Y-94676666D01*
X149185714Y-94629047D01*
X149042857Y-94629047D01*
X148947619Y-94581428D01*
X148900000Y-94486190D01*
X148900000Y-94438571D01*
X148947619Y-94343333D01*
X149042857Y-94295714D01*
X149185714Y-94295714D01*
X149280952Y-94343333D01*
X149900000Y-94962380D02*
X149804761Y-94914761D01*
X149757142Y-94867142D01*
X149709523Y-94771904D01*
X149709523Y-94486190D01*
X149757142Y-94390952D01*
X149804761Y-94343333D01*
X149900000Y-94295714D01*
X150042857Y-94295714D01*
X150138095Y-94343333D01*
X150185714Y-94390952D01*
X150233333Y-94486190D01*
X150233333Y-94771904D01*
X150185714Y-94867142D01*
X150138095Y-94914761D01*
X150042857Y-94962380D01*
X149900000Y-94962380D01*
X150661904Y-94962380D02*
X150661904Y-94295714D01*
X150661904Y-94486190D02*
X150709523Y-94390952D01*
X150757142Y-94343333D01*
X150852380Y-94295714D01*
X150947619Y-94295714D01*
X151233333Y-94914761D02*
X151328571Y-94962380D01*
X151519047Y-94962380D01*
X151614285Y-94914761D01*
X151661904Y-94819523D01*
X151661904Y-94771904D01*
X151614285Y-94676666D01*
X151519047Y-94629047D01*
X151376190Y-94629047D01*
X151280952Y-94581428D01*
X151233333Y-94486190D01*
X151233333Y-94438571D01*
X151280952Y-94343333D01*
X151376190Y-94295714D01*
X151519047Y-94295714D01*
X151614285Y-94343333D01*
X152090476Y-94295714D02*
X152090476Y-95295714D01*
X152090476Y-94343333D02*
X152185714Y-94295714D01*
X152376190Y-94295714D01*
X152471428Y-94343333D01*
X152519047Y-94390952D01*
X152566666Y-94486190D01*
X152566666Y-94771904D01*
X152519047Y-94867142D01*
X152471428Y-94914761D01*
X152376190Y-94962380D01*
X152185714Y-94962380D01*
X152090476Y-94914761D01*
X153138095Y-94962380D02*
X153042857Y-94914761D01*
X152995238Y-94819523D01*
X152995238Y-93962380D01*
X153947619Y-94962380D02*
X153947619Y-94438571D01*
X153900000Y-94343333D01*
X153804761Y-94295714D01*
X153614285Y-94295714D01*
X153519047Y-94343333D01*
X153947619Y-94914761D02*
X153852380Y-94962380D01*
X153614285Y-94962380D01*
X153519047Y-94914761D01*
X153471428Y-94819523D01*
X153471428Y-94724285D01*
X153519047Y-94629047D01*
X153614285Y-94581428D01*
X153852380Y-94581428D01*
X153947619Y-94533809D01*
X154328571Y-94295714D02*
X154566666Y-94962380D01*
X154804761Y-94295714D02*
X154566666Y-94962380D01*
X154471428Y-95200476D01*
X154423809Y-95248095D01*
X154328571Y-95295714D01*
X155614285Y-94295714D02*
X155614285Y-95105238D01*
X155566666Y-95200476D01*
X155519047Y-95248095D01*
X155423809Y-95295714D01*
X155280952Y-95295714D01*
X155185714Y-95248095D01*
X155614285Y-94914761D02*
X155519047Y-94962380D01*
X155328571Y-94962380D01*
X155233333Y-94914761D01*
X155185714Y-94867142D01*
X155138095Y-94771904D01*
X155138095Y-94486190D01*
X155185714Y-94390952D01*
X155233333Y-94343333D01*
X155328571Y-94295714D01*
X155519047Y-94295714D01*
X155614285Y-94343333D01*
X156090476Y-94962380D02*
X156090476Y-94295714D01*
X156090476Y-94486190D02*
X156138095Y-94390952D01*
X156185714Y-94343333D01*
X156280952Y-94295714D01*
X156376190Y-94295714D01*
X156852380Y-94962380D02*
X156757142Y-94914761D01*
X156709523Y-94867142D01*
X156661904Y-94771904D01*
X156661904Y-94486190D01*
X156709523Y-94390952D01*
X156757142Y-94343333D01*
X156852380Y-94295714D01*
X156995238Y-94295714D01*
X157090476Y-94343333D01*
X157138095Y-94390952D01*
X157185714Y-94486190D01*
X157185714Y-94771904D01*
X157138095Y-94867142D01*
X157090476Y-94914761D01*
X156995238Y-94962380D01*
X156852380Y-94962380D01*
X158042857Y-94295714D02*
X158042857Y-94962380D01*
X157614285Y-94295714D02*
X157614285Y-94819523D01*
X157661904Y-94914761D01*
X157757142Y-94962380D01*
X157900000Y-94962380D01*
X157995238Y-94914761D01*
X158042857Y-94867142D01*
X158519047Y-94295714D02*
X158519047Y-94962380D01*
X158519047Y-94390952D02*
X158566666Y-94343333D01*
X158661904Y-94295714D01*
X158804761Y-94295714D01*
X158900000Y-94343333D01*
X158947619Y-94438571D01*
X158947619Y-94962380D01*
X159852380Y-94962380D02*
X159852380Y-93962380D01*
X159852380Y-94914761D02*
X159757142Y-94962380D01*
X159566666Y-94962380D01*
X159471428Y-94914761D01*
X159423809Y-94867142D01*
X159376190Y-94771904D01*
X159376190Y-94486190D01*
X159423809Y-94390952D01*
X159471428Y-94343333D01*
X159566666Y-94295714D01*
X159757142Y-94295714D01*
X159852380Y-94343333D01*
X160328571Y-94867142D02*
X160376190Y-94914761D01*
X160328571Y-94962380D01*
X160280952Y-94914761D01*
X160328571Y-94867142D01*
X160328571Y-94962380D01*
X161233333Y-94914761D02*
X161138095Y-94962380D01*
X160947619Y-94962380D01*
X160852380Y-94914761D01*
X160804761Y-94867142D01*
X160757142Y-94771904D01*
X160757142Y-94486190D01*
X160804761Y-94390952D01*
X160852380Y-94343333D01*
X160947619Y-94295714D01*
X161138095Y-94295714D01*
X161233333Y-94343333D01*
X161804761Y-94962380D02*
X161709523Y-94914761D01*
X161661904Y-94867142D01*
X161614285Y-94771904D01*
X161614285Y-94486190D01*
X161661904Y-94390952D01*
X161709523Y-94343333D01*
X161804761Y-94295714D01*
X161947619Y-94295714D01*
X162042857Y-94343333D01*
X162090476Y-94390952D01*
X162138095Y-94486190D01*
X162138095Y-94771904D01*
X162090476Y-94867142D01*
X162042857Y-94914761D01*
X161947619Y-94962380D01*
X161804761Y-94962380D01*
X162566666Y-94962380D02*
X162566666Y-94295714D01*
X162566666Y-94390952D02*
X162614285Y-94343333D01*
X162709523Y-94295714D01*
X162852380Y-94295714D01*
X162947619Y-94343333D01*
X162995238Y-94438571D01*
X162995238Y-94962380D01*
X162995238Y-94438571D02*
X163042857Y-94343333D01*
X163138095Y-94295714D01*
X163280952Y-94295714D01*
X163376190Y-94343333D01*
X163423809Y-94438571D01*
X163423809Y-94962380D01*
X125062380Y-97793333D02*
X125776666Y-97793333D01*
X125919523Y-97840952D01*
X126014761Y-97936190D01*
X126062380Y-98079047D01*
X126062380Y-98174285D01*
X126062380Y-96793333D02*
X126062380Y-97364761D01*
X126062380Y-97079047D02*
X125062380Y-97079047D01*
X125205238Y-97174285D01*
X125300476Y-97269523D01*
X125348095Y-97364761D01*
X147922380Y-97793333D02*
X148636666Y-97793333D01*
X148779523Y-97840952D01*
X148874761Y-97936190D01*
X148922380Y-98079047D01*
X148922380Y-98174285D01*
X147922380Y-97412380D02*
X147922380Y-96793333D01*
X148303333Y-97126666D01*
X148303333Y-96983809D01*
X148350952Y-96888571D01*
X148398571Y-96840952D01*
X148493809Y-96793333D01*
X148731904Y-96793333D01*
X148827142Y-96840952D01*
X148874761Y-96888571D01*
X148922380Y-96983809D01*
X148922380Y-97269523D01*
X148874761Y-97364761D01*
X148827142Y-97412380D01*
X115552380Y-52433333D02*
X116266666Y-52433333D01*
X116409523Y-52480952D01*
X116504761Y-52576190D01*
X116552380Y-52719047D01*
X116552380Y-52814285D01*
X115647619Y-52004761D02*
X115600000Y-51957142D01*
X115552380Y-51861904D01*
X115552380Y-51623809D01*
X115600000Y-51528571D01*
X115647619Y-51480952D01*
X115742857Y-51433333D01*
X115838095Y-51433333D01*
X115980952Y-51480952D01*
X116552380Y-52052380D01*
X116552380Y-51433333D01*
X145252380Y-52433333D02*
X145966666Y-52433333D01*
X146109523Y-52480952D01*
X146204761Y-52576190D01*
X146252380Y-52719047D01*
X146252380Y-52814285D01*
X145585714Y-51528571D02*
X146252380Y-51528571D01*
X145204761Y-51766666D02*
X145919047Y-52004761D01*
X145919047Y-51385714D01*
X158375361Y-87288598D02*
X159188225Y-87288598D01*
X159283856Y-87240782D01*
X159331671Y-87192967D01*
X159379487Y-87097336D01*
X159379487Y-86906074D01*
X159331671Y-86810443D01*
X159283856Y-86762627D01*
X159188225Y-86714812D01*
X158375361Y-86714812D01*
X159379487Y-85710686D02*
X159379487Y-86284472D01*
X159379487Y-85997579D02*
X158375361Y-85997579D01*
X158518808Y-86093210D01*
X158614439Y-86188841D01*
X158662254Y-86284472D01*
X163266666Y-60882380D02*
X163266666Y-61596666D01*
X163219047Y-61739523D01*
X163123809Y-61834761D01*
X162980952Y-61882380D01*
X162885714Y-61882380D01*
X164219047Y-60882380D02*
X163742857Y-60882380D01*
X163695238Y-61358571D01*
X163742857Y-61310952D01*
X163838095Y-61263333D01*
X164076190Y-61263333D01*
X164171428Y-61310952D01*
X164219047Y-61358571D01*
X164266666Y-61453809D01*
X164266666Y-61691904D01*
X164219047Y-61787142D01*
X164171428Y-61834761D01*
X164076190Y-61882380D01*
X163838095Y-61882380D01*
X163742857Y-61834761D01*
X163695238Y-61787142D01*
X154657142Y-87422380D02*
X154323809Y-86946190D01*
X154085714Y-87422380D02*
X154085714Y-86422380D01*
X154466666Y-86422380D01*
X154561904Y-86470000D01*
X154609523Y-86517619D01*
X154657142Y-86612857D01*
X154657142Y-86755714D01*
X154609523Y-86850952D01*
X154561904Y-86898571D01*
X154466666Y-86946190D01*
X154085714Y-86946190D01*
X155609523Y-87422380D02*
X155038095Y-87422380D01*
X155323809Y-87422380D02*
X155323809Y-86422380D01*
X155228571Y-86565238D01*
X155133333Y-86660476D01*
X155038095Y-86708095D01*
X156466666Y-86422380D02*
X156276190Y-86422380D01*
X156180952Y-86470000D01*
X156133333Y-86517619D01*
X156038095Y-86660476D01*
X155990476Y-86850952D01*
X155990476Y-87231904D01*
X156038095Y-87327142D01*
X156085714Y-87374761D01*
X156180952Y-87422380D01*
X156371428Y-87422380D01*
X156466666Y-87374761D01*
X156514285Y-87327142D01*
X156561904Y-87231904D01*
X156561904Y-86993809D01*
X156514285Y-86898571D01*
X156466666Y-86850952D01*
X156371428Y-86803333D01*
X156180952Y-86803333D01*
X156085714Y-86850952D01*
X156038095Y-86898571D01*
X155990476Y-86993809D01*
X112938095Y-73302380D02*
X113509523Y-73302380D01*
X113223809Y-74302380D02*
X113223809Y-73302380D01*
X113842857Y-74302380D02*
X113842857Y-73302380D01*
X114223809Y-73302380D01*
X114319047Y-73350000D01*
X114366666Y-73397619D01*
X114414285Y-73492857D01*
X114414285Y-73635714D01*
X114366666Y-73730952D01*
X114319047Y-73778571D01*
X114223809Y-73826190D01*
X113842857Y-73826190D01*
X115271428Y-73302380D02*
X115080952Y-73302380D01*
X114985714Y-73350000D01*
X114938095Y-73397619D01*
X114842857Y-73540476D01*
X114795238Y-73730952D01*
X114795238Y-74111904D01*
X114842857Y-74207142D01*
X114890476Y-74254761D01*
X114985714Y-74302380D01*
X115176190Y-74302380D01*
X115271428Y-74254761D01*
X115319047Y-74207142D01*
X115366666Y-74111904D01*
X115366666Y-73873809D01*
X115319047Y-73778571D01*
X115271428Y-73730952D01*
X115176190Y-73683333D01*
X114985714Y-73683333D01*
X114890476Y-73730952D01*
X114842857Y-73778571D01*
X114795238Y-73873809D01*
X134838095Y-93302380D02*
X135409523Y-93302380D01*
X135123809Y-94302380D02*
X135123809Y-93302380D01*
X135742857Y-94302380D02*
X135742857Y-93302380D01*
X136123809Y-93302380D01*
X136219047Y-93350000D01*
X136266666Y-93397619D01*
X136314285Y-93492857D01*
X136314285Y-93635714D01*
X136266666Y-93730952D01*
X136219047Y-93778571D01*
X136123809Y-93826190D01*
X135742857Y-93826190D01*
X137219047Y-93302380D02*
X136742857Y-93302380D01*
X136695238Y-93778571D01*
X136742857Y-93730952D01*
X136838095Y-93683333D01*
X137076190Y-93683333D01*
X137171428Y-93730952D01*
X137219047Y-93778571D01*
X137266666Y-93873809D01*
X137266666Y-94111904D01*
X137219047Y-94207142D01*
X137171428Y-94254761D01*
X137076190Y-94302380D01*
X136838095Y-94302380D01*
X136742857Y-94254761D01*
X136695238Y-94207142D01*
X150438095Y-57102380D02*
X151009523Y-57102380D01*
X150723809Y-58102380D02*
X150723809Y-57102380D01*
X151342857Y-58102380D02*
X151342857Y-57102380D01*
X151723809Y-57102380D01*
X151819047Y-57150000D01*
X151866666Y-57197619D01*
X151914285Y-57292857D01*
X151914285Y-57435714D01*
X151866666Y-57530952D01*
X151819047Y-57578571D01*
X151723809Y-57626190D01*
X151342857Y-57626190D01*
X152295238Y-57197619D02*
X152342857Y-57150000D01*
X152438095Y-57102380D01*
X152676190Y-57102380D01*
X152771428Y-57150000D01*
X152819047Y-57197619D01*
X152866666Y-57292857D01*
X152866666Y-57388095D01*
X152819047Y-57530952D01*
X152247619Y-58102380D01*
X152866666Y-58102380D01*
X124063095Y-54575380D02*
X124063095Y-55384904D01*
X124110714Y-55480142D01*
X124158333Y-55527761D01*
X124253571Y-55575380D01*
X124444047Y-55575380D01*
X124539285Y-55527761D01*
X124586904Y-55480142D01*
X124634523Y-55384904D01*
X124634523Y-54575380D01*
X125063095Y-54670619D02*
X125110714Y-54623000D01*
X125205952Y-54575380D01*
X125444047Y-54575380D01*
X125539285Y-54623000D01*
X125586904Y-54670619D01*
X125634523Y-54765857D01*
X125634523Y-54861095D01*
X125586904Y-55003952D01*
X125015476Y-55575380D01*
X125634523Y-55575380D01*
X133243095Y-76910380D02*
X133243095Y-77719904D01*
X133290714Y-77815142D01*
X133338333Y-77862761D01*
X133433571Y-77910380D01*
X133624047Y-77910380D01*
X133719285Y-77862761D01*
X133766904Y-77815142D01*
X133814523Y-77719904D01*
X133814523Y-76910380D01*
X134719285Y-77243714D02*
X134719285Y-77910380D01*
X134481190Y-76862761D02*
X134243095Y-77577047D01*
X134862142Y-77577047D01*
X152422380Y-75366666D02*
X151946190Y-75700000D01*
X152422380Y-75938095D02*
X151422380Y-75938095D01*
X151422380Y-75557142D01*
X151470000Y-75461904D01*
X151517619Y-75414285D01*
X151612857Y-75366666D01*
X151755714Y-75366666D01*
X151850952Y-75414285D01*
X151898571Y-75461904D01*
X151946190Y-75557142D01*
X151946190Y-75938095D01*
X151755714Y-74509523D02*
X152422380Y-74509523D01*
X151374761Y-74747619D02*
X152089047Y-74985714D01*
X152089047Y-74366666D01*
X132433333Y-67182380D02*
X132100000Y-66706190D01*
X131861904Y-67182380D02*
X131861904Y-66182380D01*
X132242857Y-66182380D01*
X132338095Y-66230000D01*
X132385714Y-66277619D01*
X132433333Y-66372857D01*
X132433333Y-66515714D01*
X132385714Y-66610952D01*
X132338095Y-66658571D01*
X132242857Y-66706190D01*
X131861904Y-66706190D01*
X132909523Y-67182380D02*
X133100000Y-67182380D01*
X133195238Y-67134761D01*
X133242857Y-67087142D01*
X133338095Y-66944285D01*
X133385714Y-66753809D01*
X133385714Y-66372857D01*
X133338095Y-66277619D01*
X133290476Y-66230000D01*
X133195238Y-66182380D01*
X133004761Y-66182380D01*
X132909523Y-66230000D01*
X132861904Y-66277619D01*
X132814285Y-66372857D01*
X132814285Y-66610952D01*
X132861904Y-66706190D01*
X132909523Y-66753809D01*
X133004761Y-66801428D01*
X133195238Y-66801428D01*
X133290476Y-66753809D01*
X133338095Y-66706190D01*
X133385714Y-66610952D01*
X156922380Y-78566666D02*
X156446190Y-78900000D01*
X156922380Y-79138095D02*
X155922380Y-79138095D01*
X155922380Y-78757142D01*
X155970000Y-78661904D01*
X156017619Y-78614285D01*
X156112857Y-78566666D01*
X156255714Y-78566666D01*
X156350952Y-78614285D01*
X156398571Y-78661904D01*
X156446190Y-78757142D01*
X156446190Y-79138095D01*
X155922380Y-78233333D02*
X155922380Y-77614285D01*
X156303333Y-77947619D01*
X156303333Y-77804761D01*
X156350952Y-77709523D01*
X156398571Y-77661904D01*
X156493809Y-77614285D01*
X156731904Y-77614285D01*
X156827142Y-77661904D01*
X156874761Y-77709523D01*
X156922380Y-77804761D01*
X156922380Y-78090476D01*
X156874761Y-78185714D01*
X156827142Y-78233333D01*
X141427142Y-56566666D02*
X141474761Y-56614285D01*
X141522380Y-56757142D01*
X141522380Y-56852380D01*
X141474761Y-56995238D01*
X141379523Y-57090476D01*
X141284285Y-57138095D01*
X141093809Y-57185714D01*
X140950952Y-57185714D01*
X140760476Y-57138095D01*
X140665238Y-57090476D01*
X140570000Y-56995238D01*
X140522380Y-56852380D01*
X140522380Y-56757142D01*
X140570000Y-56614285D01*
X140617619Y-56566666D01*
X140617619Y-56185714D02*
X140570000Y-56138095D01*
X140522380Y-56042857D01*
X140522380Y-55804761D01*
X140570000Y-55709523D01*
X140617619Y-55661904D01*
X140712857Y-55614285D01*
X140808095Y-55614285D01*
X140950952Y-55661904D01*
X141522380Y-56233333D01*
X141522380Y-55614285D01*
X123722380Y-73342857D02*
X123246190Y-73676190D01*
X123722380Y-73914285D02*
X122722380Y-73914285D01*
X122722380Y-73533333D01*
X122770000Y-73438095D01*
X122817619Y-73390476D01*
X122912857Y-73342857D01*
X123055714Y-73342857D01*
X123150952Y-73390476D01*
X123198571Y-73438095D01*
X123246190Y-73533333D01*
X123246190Y-73914285D01*
X123722380Y-72390476D02*
X123722380Y-72961904D01*
X123722380Y-72676190D02*
X122722380Y-72676190D01*
X122865238Y-72771428D01*
X122960476Y-72866666D01*
X123008095Y-72961904D01*
X123055714Y-71533333D02*
X123722380Y-71533333D01*
X122674761Y-71771428D02*
X123389047Y-72009523D01*
X123389047Y-71390476D01*
X127557142Y-71722380D02*
X127223809Y-71246190D01*
X126985714Y-71722380D02*
X126985714Y-70722380D01*
X127366666Y-70722380D01*
X127461904Y-70770000D01*
X127509523Y-70817619D01*
X127557142Y-70912857D01*
X127557142Y-71055714D01*
X127509523Y-71150952D01*
X127461904Y-71198571D01*
X127366666Y-71246190D01*
X126985714Y-71246190D01*
X128509523Y-71722380D02*
X127938095Y-71722380D01*
X128223809Y-71722380D02*
X128223809Y-70722380D01*
X128128571Y-70865238D01*
X128033333Y-70960476D01*
X127938095Y-71008095D01*
X128890476Y-70817619D02*
X128938095Y-70770000D01*
X129033333Y-70722380D01*
X129271428Y-70722380D01*
X129366666Y-70770000D01*
X129414285Y-70817619D01*
X129461904Y-70912857D01*
X129461904Y-71008095D01*
X129414285Y-71150952D01*
X128842857Y-71722380D01*
X129461904Y-71722380D01*
X143443095Y-59610380D02*
X143443095Y-60419904D01*
X143490714Y-60515142D01*
X143538333Y-60562761D01*
X143633571Y-60610380D01*
X143824047Y-60610380D01*
X143919285Y-60562761D01*
X143966904Y-60515142D01*
X144014523Y-60419904D01*
X144014523Y-59610380D01*
X144395476Y-59610380D02*
X145014523Y-59610380D01*
X144681190Y-59991333D01*
X144824047Y-59991333D01*
X144919285Y-60038952D01*
X144966904Y-60086571D01*
X145014523Y-60181809D01*
X145014523Y-60419904D01*
X144966904Y-60515142D01*
X144919285Y-60562761D01*
X144824047Y-60610380D01*
X144538333Y-60610380D01*
X144443095Y-60562761D01*
X144395476Y-60515142D01*
X147022380Y-56566666D02*
X146546190Y-56900000D01*
X147022380Y-57138095D02*
X146022380Y-57138095D01*
X146022380Y-56757142D01*
X146070000Y-56661904D01*
X146117619Y-56614285D01*
X146212857Y-56566666D01*
X146355714Y-56566666D01*
X146450952Y-56614285D01*
X146498571Y-56661904D01*
X146546190Y-56757142D01*
X146546190Y-57138095D01*
X146022380Y-55709523D02*
X146022380Y-55900000D01*
X146070000Y-55995238D01*
X146117619Y-56042857D01*
X146260476Y-56138095D01*
X146450952Y-56185714D01*
X146831904Y-56185714D01*
X146927142Y-56138095D01*
X146974761Y-56090476D01*
X147022380Y-55995238D01*
X147022380Y-55804761D01*
X146974761Y-55709523D01*
X146927142Y-55661904D01*
X146831904Y-55614285D01*
X146593809Y-55614285D01*
X146498571Y-55661904D01*
X146450952Y-55709523D01*
X146403333Y-55804761D01*
X146403333Y-55995238D01*
X146450952Y-56090476D01*
X146498571Y-56138095D01*
X146593809Y-56185714D01*
X151157142Y-87382380D02*
X150823809Y-86906190D01*
X150585714Y-87382380D02*
X150585714Y-86382380D01*
X150966666Y-86382380D01*
X151061904Y-86430000D01*
X151109523Y-86477619D01*
X151157142Y-86572857D01*
X151157142Y-86715714D01*
X151109523Y-86810952D01*
X151061904Y-86858571D01*
X150966666Y-86906190D01*
X150585714Y-86906190D01*
X152109523Y-87382380D02*
X151538095Y-87382380D01*
X151823809Y-87382380D02*
X151823809Y-86382380D01*
X151728571Y-86525238D01*
X151633333Y-86620476D01*
X151538095Y-86668095D01*
X153014285Y-86382380D02*
X152538095Y-86382380D01*
X152490476Y-86858571D01*
X152538095Y-86810952D01*
X152633333Y-86763333D01*
X152871428Y-86763333D01*
X152966666Y-86810952D01*
X153014285Y-86858571D01*
X153061904Y-86953809D01*
X153061904Y-87191904D01*
X153014285Y-87287142D01*
X152966666Y-87334761D01*
X152871428Y-87382380D01*
X152633333Y-87382380D01*
X152538095Y-87334761D01*
X152490476Y-87287142D01*
X149882380Y-75266666D02*
X149406190Y-75600000D01*
X149882380Y-75838095D02*
X148882380Y-75838095D01*
X148882380Y-75457142D01*
X148930000Y-75361904D01*
X148977619Y-75314285D01*
X149072857Y-75266666D01*
X149215714Y-75266666D01*
X149310952Y-75314285D01*
X149358571Y-75361904D01*
X149406190Y-75457142D01*
X149406190Y-75838095D01*
X148882380Y-74361904D02*
X148882380Y-74838095D01*
X149358571Y-74885714D01*
X149310952Y-74838095D01*
X149263333Y-74742857D01*
X149263333Y-74504761D01*
X149310952Y-74409523D01*
X149358571Y-74361904D01*
X149453809Y-74314285D01*
X149691904Y-74314285D01*
X149787142Y-74361904D01*
X149834761Y-74409523D01*
X149882380Y-74504761D01*
X149882380Y-74742857D01*
X149834761Y-74838095D01*
X149787142Y-74885714D01*
X125504761Y-85962380D02*
X125171428Y-85486190D01*
X124933333Y-85962380D02*
X124933333Y-84962380D01*
X125314285Y-84962380D01*
X125409523Y-85010000D01*
X125457142Y-85057619D01*
X125504761Y-85152857D01*
X125504761Y-85295714D01*
X125457142Y-85390952D01*
X125409523Y-85438571D01*
X125314285Y-85486190D01*
X124933333Y-85486190D01*
X125790476Y-84962380D02*
X126123809Y-85962380D01*
X126457142Y-84962380D01*
X127314285Y-85962380D02*
X126742857Y-85962380D01*
X127028571Y-85962380D02*
X127028571Y-84962380D01*
X126933333Y-85105238D01*
X126838095Y-85200476D01*
X126742857Y-85248095D01*
X155838095Y-70452380D02*
X156409523Y-70452380D01*
X156123809Y-71452380D02*
X156123809Y-70452380D01*
X156742857Y-71452380D02*
X156742857Y-70452380D01*
X157123809Y-70452380D01*
X157219047Y-70500000D01*
X157266666Y-70547619D01*
X157314285Y-70642857D01*
X157314285Y-70785714D01*
X157266666Y-70880952D01*
X157219047Y-70928571D01*
X157123809Y-70976190D01*
X156742857Y-70976190D01*
X158266666Y-71452380D02*
X157695238Y-71452380D01*
X157980952Y-71452380D02*
X157980952Y-70452380D01*
X157885714Y-70595238D01*
X157790476Y-70690476D01*
X157695238Y-70738095D01*
X153333333Y-83187142D02*
X153285714Y-83234761D01*
X153142857Y-83282380D01*
X153047619Y-83282380D01*
X152904761Y-83234761D01*
X152809523Y-83139523D01*
X152761904Y-83044285D01*
X152714285Y-82853809D01*
X152714285Y-82710952D01*
X152761904Y-82520476D01*
X152809523Y-82425238D01*
X152904761Y-82330000D01*
X153047619Y-82282380D01*
X153142857Y-82282380D01*
X153285714Y-82330000D01*
X153333333Y-82377619D01*
X154285714Y-83282380D02*
X153714285Y-83282380D01*
X154000000Y-83282380D02*
X154000000Y-82282380D01*
X153904761Y-82425238D01*
X153809523Y-82520476D01*
X153714285Y-82568095D01*
X145157142Y-86882380D02*
X144823809Y-86406190D01*
X144585714Y-86882380D02*
X144585714Y-85882380D01*
X144966666Y-85882380D01*
X145061904Y-85930000D01*
X145109523Y-85977619D01*
X145157142Y-86072857D01*
X145157142Y-86215714D01*
X145109523Y-86310952D01*
X145061904Y-86358571D01*
X144966666Y-86406190D01*
X144585714Y-86406190D01*
X146109523Y-86882380D02*
X145538095Y-86882380D01*
X145823809Y-86882380D02*
X145823809Y-85882380D01*
X145728571Y-86025238D01*
X145633333Y-86120476D01*
X145538095Y-86168095D01*
X146442857Y-85882380D02*
X147061904Y-85882380D01*
X146728571Y-86263333D01*
X146871428Y-86263333D01*
X146966666Y-86310952D01*
X147014285Y-86358571D01*
X147061904Y-86453809D01*
X147061904Y-86691904D01*
X147014285Y-86787142D01*
X146966666Y-86834761D01*
X146871428Y-86882380D01*
X146585714Y-86882380D01*
X146490476Y-86834761D01*
X146442857Y-86787142D01*
X137433333Y-67182380D02*
X137100000Y-66706190D01*
X136861904Y-67182380D02*
X136861904Y-66182380D01*
X137242857Y-66182380D01*
X137338095Y-66230000D01*
X137385714Y-66277619D01*
X137433333Y-66372857D01*
X137433333Y-66515714D01*
X137385714Y-66610952D01*
X137338095Y-66658571D01*
X137242857Y-66706190D01*
X136861904Y-66706190D01*
X138004761Y-66610952D02*
X137909523Y-66563333D01*
X137861904Y-66515714D01*
X137814285Y-66420476D01*
X137814285Y-66372857D01*
X137861904Y-66277619D01*
X137909523Y-66230000D01*
X138004761Y-66182380D01*
X138195238Y-66182380D01*
X138290476Y-66230000D01*
X138338095Y-66277619D01*
X138385714Y-66372857D01*
X138385714Y-66420476D01*
X138338095Y-66515714D01*
X138290476Y-66563333D01*
X138195238Y-66610952D01*
X138004761Y-66610952D01*
X137909523Y-66658571D01*
X137861904Y-66706190D01*
X137814285Y-66801428D01*
X137814285Y-66991904D01*
X137861904Y-67087142D01*
X137909523Y-67134761D01*
X138004761Y-67182380D01*
X138195238Y-67182380D01*
X138290476Y-67134761D01*
X138338095Y-67087142D01*
X138385714Y-66991904D01*
X138385714Y-66801428D01*
X138338095Y-66706190D01*
X138290476Y-66658571D01*
X138195238Y-66610952D01*
X155322380Y-63266666D02*
X154846190Y-63600000D01*
X155322380Y-63838095D02*
X154322380Y-63838095D01*
X154322380Y-63457142D01*
X154370000Y-63361904D01*
X154417619Y-63314285D01*
X154512857Y-63266666D01*
X154655714Y-63266666D01*
X154750952Y-63314285D01*
X154798571Y-63361904D01*
X154846190Y-63457142D01*
X154846190Y-63838095D01*
X155322380Y-62314285D02*
X155322380Y-62885714D01*
X155322380Y-62600000D02*
X154322380Y-62600000D01*
X154465238Y-62695238D01*
X154560476Y-62790476D01*
X154608095Y-62885714D01*
X158182380Y-56966666D02*
X157706190Y-57300000D01*
X158182380Y-57538095D02*
X157182380Y-57538095D01*
X157182380Y-57157142D01*
X157230000Y-57061904D01*
X157277619Y-57014285D01*
X157372857Y-56966666D01*
X157515714Y-56966666D01*
X157610952Y-57014285D01*
X157658571Y-57061904D01*
X157706190Y-57157142D01*
X157706190Y-57538095D01*
X157277619Y-56585714D02*
X157230000Y-56538095D01*
X157182380Y-56442857D01*
X157182380Y-56204761D01*
X157230000Y-56109523D01*
X157277619Y-56061904D01*
X157372857Y-56014285D01*
X157468095Y-56014285D01*
X157610952Y-56061904D01*
X158182380Y-56633333D01*
X158182380Y-56014285D01*
X137738095Y-61052380D02*
X138309523Y-61052380D01*
X138023809Y-62052380D02*
X138023809Y-61052380D01*
X138642857Y-62052380D02*
X138642857Y-61052380D01*
X139023809Y-61052380D01*
X139119047Y-61100000D01*
X139166666Y-61147619D01*
X139214285Y-61242857D01*
X139214285Y-61385714D01*
X139166666Y-61480952D01*
X139119047Y-61528571D01*
X139023809Y-61576190D01*
X138642857Y-61576190D01*
X139547619Y-61052380D02*
X140166666Y-61052380D01*
X139833333Y-61433333D01*
X139976190Y-61433333D01*
X140071428Y-61480952D01*
X140119047Y-61528571D01*
X140166666Y-61623809D01*
X140166666Y-61861904D01*
X140119047Y-61957142D01*
X140071428Y-62004761D01*
X139976190Y-62052380D01*
X139690476Y-62052380D01*
X139595238Y-62004761D01*
X139547619Y-61957142D01*
X148133333Y-89922380D02*
X147800000Y-89446190D01*
X147561904Y-89922380D02*
X147561904Y-88922380D01*
X147942857Y-88922380D01*
X148038095Y-88970000D01*
X148085714Y-89017619D01*
X148133333Y-89112857D01*
X148133333Y-89255714D01*
X148085714Y-89350952D01*
X148038095Y-89398571D01*
X147942857Y-89446190D01*
X147561904Y-89446190D01*
X148466666Y-88922380D02*
X149133333Y-88922380D01*
X148704761Y-89922380D01*
X145938095Y-80602380D02*
X146509523Y-80602380D01*
X146223809Y-81602380D02*
X146223809Y-80602380D01*
X146842857Y-81602380D02*
X146842857Y-80602380D01*
X147223809Y-80602380D01*
X147319047Y-80650000D01*
X147366666Y-80697619D01*
X147414285Y-80792857D01*
X147414285Y-80935714D01*
X147366666Y-81030952D01*
X147319047Y-81078571D01*
X147223809Y-81126190D01*
X146842857Y-81126190D01*
X148271428Y-80935714D02*
X148271428Y-81602380D01*
X148033333Y-80554761D02*
X147795238Y-81269047D01*
X148414285Y-81269047D01*
X142457142Y-79722380D02*
X142123809Y-79246190D01*
X141885714Y-79722380D02*
X141885714Y-78722380D01*
X142266666Y-78722380D01*
X142361904Y-78770000D01*
X142409523Y-78817619D01*
X142457142Y-78912857D01*
X142457142Y-79055714D01*
X142409523Y-79150952D01*
X142361904Y-79198571D01*
X142266666Y-79246190D01*
X141885714Y-79246190D01*
X143409523Y-79722380D02*
X142838095Y-79722380D01*
X143123809Y-79722380D02*
X143123809Y-78722380D01*
X143028571Y-78865238D01*
X142933333Y-78960476D01*
X142838095Y-79008095D01*
X144361904Y-79722380D02*
X143790476Y-79722380D01*
X144076190Y-79722380D02*
X144076190Y-78722380D01*
X143980952Y-78865238D01*
X143885714Y-78960476D01*
X143790476Y-79008095D01*
D11*
X127940000Y-98790000D02*
X126610000Y-98790000D01*
X129210000Y-98790000D02*
X147050000Y-98790000D01*
X129210000Y-98790000D02*
X129210000Y-96130000D01*
X129210000Y-96130000D02*
X147050000Y-96130000D01*
X147050000Y-98790000D02*
X147050000Y-96130000D01*
X126610000Y-98790000D02*
X126610000Y-97460000D01*
X152070000Y-96130000D02*
X164830000Y-96130000D01*
X164830000Y-98790000D02*
X164830000Y-96130000D01*
X152070000Y-98790000D02*
X164830000Y-98790000D01*
X152070000Y-98790000D02*
X152070000Y-96130000D01*
X150800000Y-98790000D02*
X149470000Y-98790000D01*
X149470000Y-98790000D02*
X149470000Y-97460000D01*
X142986000Y-50530000D02*
X142986000Y-47870000D01*
X120066000Y-50530000D02*
X120066000Y-47870000D01*
X120066000Y-50530000D02*
X142986000Y-50530000D01*
X117466000Y-50530000D02*
X117466000Y-49200000D01*
X118796000Y-50530000D02*
X117466000Y-50530000D01*
X120066000Y-47870000D02*
X142986000Y-47870000D01*
X146990000Y-47870000D02*
X164830000Y-47870000D01*
X146990000Y-50530000D02*
X164830000Y-50530000D01*
X145720000Y-50530000D02*
X144390000Y-50530000D01*
X164830000Y-50530000D02*
X164830000Y-47870000D01*
X144390000Y-50530000D02*
X144390000Y-49200000D01*
X146990000Y-50530000D02*
X146990000Y-47870000D01*
D12*
X165300000Y-89910000D02*
X160550000Y-89910000D01*
X166450000Y-83590000D02*
X166450000Y-81160000D01*
X166450000Y-81160000D02*
X164900000Y-79610000D01*
X164900000Y-79610000D02*
X162100000Y-79610000D01*
X160550000Y-81160000D02*
X160550000Y-83590000D01*
X160550000Y-89910000D02*
X160550000Y-85930000D01*
X166450000Y-88760000D02*
X166450000Y-85930000D01*
X160550000Y-81160000D02*
X162100000Y-79610000D01*
D11*
X164930000Y-55230000D02*
X162270000Y-55230000D01*
X164930000Y-60430000D02*
X163600000Y-60430000D01*
X164930000Y-59100000D02*
X164930000Y-60430000D01*
X164930000Y-57830000D02*
X162270000Y-57830000D01*
X162270000Y-57830000D02*
X162270000Y-55230000D01*
X164930000Y-57830000D02*
X164930000Y-55230000D01*
X155045276Y-88922500D02*
X155554724Y-88922500D01*
X155045276Y-87877500D02*
X155554724Y-87877500D01*
X115500000Y-70800000D02*
X112900000Y-70800000D01*
X115500000Y-73000000D02*
X115500000Y-70800000D01*
X112900000Y-70800000D02*
X112900000Y-72500000D01*
X112900000Y-73000000D02*
X115500000Y-73000000D01*
X112900000Y-72500000D02*
X112900000Y-73000000D01*
X134800000Y-92500000D02*
X134800000Y-93000000D01*
X134800000Y-90800000D02*
X134800000Y-92500000D01*
X134800000Y-93000000D02*
X137400000Y-93000000D01*
X137400000Y-93000000D02*
X137400000Y-90800000D01*
X137400000Y-90800000D02*
X134800000Y-90800000D01*
X153000000Y-54600000D02*
X150400000Y-54600000D01*
X150400000Y-56300000D02*
X150400000Y-56800000D01*
X153000000Y-56800000D02*
X153000000Y-54600000D01*
X150400000Y-56800000D02*
X153000000Y-56800000D01*
X150400000Y-54600000D02*
X150400000Y-56300000D01*
D12*
X123550000Y-55935000D02*
X127450000Y-55935000D01*
X123550000Y-66065000D02*
X127450000Y-66065000D01*
D13*
X121245000Y-55955000D02*
G75*
G03*
X121245000Y-55955000I-100000J0D01*
G01*
D12*
X132800000Y-87130000D02*
X136800000Y-87130000D01*
X132800000Y-78270000D02*
X136800000Y-78270000D01*
D13*
X130855000Y-78490000D02*
G75*
G03*
X130855000Y-78490000I-100000J0D01*
G01*
D11*
X153922500Y-75454724D02*
X153922500Y-74945276D01*
X152877500Y-75454724D02*
X152877500Y-74945276D01*
X132854724Y-65822500D02*
X132345276Y-65822500D01*
X132854724Y-64777500D02*
X132345276Y-64777500D01*
X157377500Y-78654724D02*
X157377500Y-78145276D01*
X158422500Y-78654724D02*
X158422500Y-78145276D01*
X141990000Y-56546267D02*
X141990000Y-56253733D01*
X143010000Y-56546267D02*
X143010000Y-56253733D01*
X125222500Y-72954724D02*
X125222500Y-72445276D01*
X124177500Y-72954724D02*
X124177500Y-72445276D01*
X127945276Y-72177500D02*
X128454724Y-72177500D01*
X127945276Y-73222500D02*
X128454724Y-73222500D01*
D12*
X143000000Y-60970000D02*
X147000000Y-60970000D01*
X143000000Y-69830000D02*
X147000000Y-69830000D01*
D13*
X141055000Y-61190000D02*
G75*
G03*
X141055000Y-61190000I-100000J0D01*
G01*
D11*
X147477500Y-56654724D02*
X147477500Y-56145276D01*
X148522500Y-56654724D02*
X148522500Y-56145276D01*
X152054724Y-86022500D02*
X151545276Y-86022500D01*
X152054724Y-84977500D02*
X151545276Y-84977500D01*
X148522500Y-74845276D02*
X148522500Y-75354724D01*
X147477500Y-74845276D02*
X147477500Y-75354724D01*
X125450000Y-84380000D02*
X122300000Y-84380000D01*
X127240000Y-77540000D02*
X126750000Y-77540000D01*
X125450000Y-77540000D02*
X122300000Y-77540000D01*
X127240000Y-84380000D02*
X126750000Y-84380000D01*
X127240000Y-84380000D02*
X127240000Y-77540000D01*
X122300000Y-84380000D02*
X122300000Y-77540000D01*
X152800000Y-72700000D02*
X155400000Y-72700000D01*
X152800000Y-72200000D02*
X152800000Y-72700000D01*
X152800000Y-70500000D02*
X152800000Y-72200000D01*
X155400000Y-70500000D02*
X152800000Y-70500000D01*
X155400000Y-72700000D02*
X155400000Y-70500000D01*
X153646267Y-80890000D02*
X153353733Y-80890000D01*
X153646267Y-81910000D02*
X153353733Y-81910000D01*
X146054724Y-85522500D02*
X145545276Y-85522500D01*
X146054724Y-84477500D02*
X145545276Y-84477500D01*
X137854724Y-64777500D02*
X137345276Y-64777500D01*
X137854724Y-65822500D02*
X137345276Y-65822500D01*
X156822500Y-63354724D02*
X156822500Y-62845276D01*
X155777500Y-63354724D02*
X155777500Y-62845276D01*
X156822500Y-56545276D02*
X156822500Y-57054724D01*
X155777500Y-56545276D02*
X155777500Y-57054724D01*
X136900000Y-63600000D02*
X136900000Y-61400000D01*
X136900000Y-61400000D02*
X134300000Y-61400000D01*
X134300000Y-63100000D02*
X134300000Y-63600000D01*
X134300000Y-61400000D02*
X134300000Y-63100000D01*
X134300000Y-63600000D02*
X136900000Y-63600000D01*
X148045276Y-91422500D02*
X148554724Y-91422500D01*
X148045276Y-90377500D02*
X148554724Y-90377500D01*
X148500000Y-78100000D02*
X145900000Y-78100000D01*
X145900000Y-79800000D02*
X145900000Y-80300000D01*
X145900000Y-80300000D02*
X148500000Y-80300000D01*
X145900000Y-78100000D02*
X145900000Y-79800000D01*
X148500000Y-80300000D02*
X148500000Y-78100000D01*
X142845276Y-81222500D02*
X143354724Y-81222500D01*
X142845276Y-80177500D02*
X143354724Y-80177500D01*
%LPC*%
D14*
X127940000Y-97460000D03*
D15*
X130480000Y-97460000D03*
X133020000Y-97460000D03*
X135560000Y-97460000D03*
X138100000Y-97460000D03*
X140640000Y-97460000D03*
X143180000Y-97460000D03*
X145720000Y-97460000D03*
D14*
X150800000Y-97460000D03*
D15*
X153340000Y-97460000D03*
X155880000Y-97460000D03*
X158420000Y-97460000D03*
X160960000Y-97460000D03*
X163500000Y-97460000D03*
D14*
X118796000Y-49200000D03*
D15*
X121336000Y-49200000D03*
X123876000Y-49200000D03*
X126416000Y-49200000D03*
X128956000Y-49200000D03*
X131496000Y-49200000D03*
X134036000Y-49200000D03*
X136576000Y-49200000D03*
X139116000Y-49200000D03*
X141656000Y-49200000D03*
D14*
X145720000Y-49200000D03*
D15*
X148260000Y-49200000D03*
X150800000Y-49200000D03*
X153340000Y-49200000D03*
X155880000Y-49200000D03*
X158420000Y-49200000D03*
X160960000Y-49200000D03*
X163500000Y-49200000D03*
D16*
X165400000Y-84760000D03*
X161600000Y-84760000D03*
D17*
X165950000Y-89410000D03*
D18*
X162230000Y-82010000D03*
X164770000Y-82010000D03*
X162230000Y-87510000D03*
X164770000Y-87510000D03*
D14*
X163600000Y-59100000D03*
D15*
X163600000Y-56560000D03*
D19*
X154387500Y-88400000D03*
X156212500Y-88400000D03*
D20*
X114200000Y-71900000D03*
X136100000Y-91900000D03*
X151700000Y-55700000D03*
D21*
X123045000Y-56555000D03*
X123045000Y-57825000D03*
X123045000Y-59095000D03*
X123045000Y-60365000D03*
X123045000Y-61635000D03*
X123045000Y-62905000D03*
X123045000Y-64175000D03*
X123045000Y-65445000D03*
X127955000Y-65445000D03*
X127955000Y-64175000D03*
X127955000Y-62905000D03*
X127955000Y-61635000D03*
X127955000Y-60365000D03*
X127955000Y-59095000D03*
X127955000Y-57825000D03*
X127955000Y-56555000D03*
D22*
X132325000Y-78890000D03*
X132325000Y-80160000D03*
X132325000Y-81430000D03*
X132325000Y-82700000D03*
X132325000Y-83970000D03*
X132325000Y-85240000D03*
X132325000Y-86510000D03*
X137275000Y-86510000D03*
X137275000Y-85240000D03*
X137275000Y-83970000D03*
X137275000Y-82700000D03*
X137275000Y-81430000D03*
X137275000Y-80160000D03*
X137275000Y-78890000D03*
D23*
X153400000Y-76112500D03*
X153400000Y-74287500D03*
D24*
X133512500Y-65300000D03*
X131687500Y-65300000D03*
D23*
X157900000Y-79312500D03*
X157900000Y-77487500D03*
D25*
X115240000Y-49200000D03*
D26*
X142500000Y-57262500D03*
X142500000Y-55537500D03*
D23*
X124700000Y-73612500D03*
X124700000Y-71787500D03*
D19*
X127287500Y-72700000D03*
X129112500Y-72700000D03*
D22*
X142525000Y-61590000D03*
X142525000Y-62860000D03*
X142525000Y-64130000D03*
X142525000Y-65400000D03*
X142525000Y-66670000D03*
X142525000Y-67940000D03*
X142525000Y-69210000D03*
X147475000Y-69210000D03*
X147475000Y-67940000D03*
X147475000Y-66670000D03*
X147475000Y-65400000D03*
X147475000Y-64130000D03*
X147475000Y-62860000D03*
X147475000Y-61590000D03*
D23*
X148000000Y-57312500D03*
X148000000Y-55487500D03*
D24*
X152712500Y-85500000D03*
X150887500Y-85500000D03*
D27*
X148000000Y-74187500D03*
X148000000Y-76012500D03*
D28*
X126100000Y-83500000D03*
X123560000Y-80960000D03*
X126100000Y-78420000D03*
D20*
X154100000Y-71600000D03*
D29*
X154362500Y-81400000D03*
X152637500Y-81400000D03*
D24*
X146712500Y-85000000D03*
X144887500Y-85000000D03*
X138512500Y-65300000D03*
X136687500Y-65300000D03*
D23*
X156300000Y-64012500D03*
X156300000Y-62187500D03*
D27*
X156300000Y-55887500D03*
X156300000Y-57712500D03*
D20*
X135600000Y-62500000D03*
D25*
X113970000Y-97460000D03*
X166040000Y-64440000D03*
X166040000Y-92380000D03*
D19*
X147387500Y-90900000D03*
X149212500Y-90900000D03*
D20*
X147200000Y-79200000D03*
D19*
X142187500Y-80700000D03*
X144012500Y-80700000D03*
M02*
