%TF.GenerationSoftware,KiCad,Pcbnew,(6.0.7)*%
%TF.CreationDate,2023-02-07T21:04:06+01:00*%
%TF.ProjectId,002 ardu ino shield,30303220-6172-4647-9520-696e6f207368,rev?*%
%TF.SameCoordinates,Original*%
%TF.FileFunction,Drillmap*%
%TF.FilePolarity,Positive*%
%FSLAX45Y45*%
G04 Gerber Fmt 4.5, Leading zero omitted, Abs format (unit mm)*
G04 Created by KiCad (PCBNEW (6.0.7)) date 2023-02-07 21:04:06*
%MOMM*%
%LPD*%
G01*
G04 APERTURE LIST*
%ADD10C,0.150000*%
%ADD11C,0.200000*%
%ADD12C,0.100000*%
%ADD13C,0.250000*%
%ADD14C,0.320000*%
G04 APERTURE END LIST*
D10*
X11020000Y-10110000D02*
X16970000Y-10110000D01*
X11020000Y-10110000D02*
X11020000Y-4440000D01*
X16970000Y-10110000D02*
X16970000Y-4440000D01*
X11020000Y-4440000D02*
X16970000Y-4440000D01*
D11*
D12*
X16545000Y-8891000D02*
X16645000Y-8991000D01*
X16645000Y-8891000D02*
X16545000Y-8991000D01*
D13*
X16285000Y-8476000D02*
G75*
G03*
X16285000Y-8476000I-125000J0D01*
G01*
X16665000Y-8476000D02*
G75*
G03*
X16665000Y-8476000I-125000J0D01*
G01*
D14*
X11397000Y-9586000D02*
X11397000Y-9906000D01*
X11237000Y-9746000D02*
X11557000Y-9746000D01*
X11524000Y-4760000D02*
X11524000Y-5080000D01*
X11364000Y-4920000D02*
X11684000Y-4920000D01*
X16604000Y-6284000D02*
X16604000Y-6604000D01*
X16444000Y-6444000D02*
X16764000Y-6444000D01*
X16604000Y-9078000D02*
X16604000Y-9398000D01*
X16444000Y-9238000D02*
X16764000Y-9238000D01*
D11*
X11270119Y-10427976D02*
X11270119Y-10227976D01*
X11317738Y-10227976D01*
X11346309Y-10237500D01*
X11365357Y-10256548D01*
X11374881Y-10275595D01*
X11384405Y-10313690D01*
X11384405Y-10342262D01*
X11374881Y-10380357D01*
X11365357Y-10399405D01*
X11346309Y-10418452D01*
X11317738Y-10427976D01*
X11270119Y-10427976D01*
X11470119Y-10427976D02*
X11470119Y-10294643D01*
X11470119Y-10332738D02*
X11479643Y-10313690D01*
X11489167Y-10304167D01*
X11508214Y-10294643D01*
X11527262Y-10294643D01*
X11593928Y-10427976D02*
X11593928Y-10294643D01*
X11593928Y-10227976D02*
X11584405Y-10237500D01*
X11593928Y-10247024D01*
X11603452Y-10237500D01*
X11593928Y-10227976D01*
X11593928Y-10247024D01*
X11717738Y-10427976D02*
X11698690Y-10418452D01*
X11689167Y-10399405D01*
X11689167Y-10227976D01*
X11822500Y-10427976D02*
X11803452Y-10418452D01*
X11793928Y-10399405D01*
X11793928Y-10227976D01*
X12051071Y-10427976D02*
X12051071Y-10227976D01*
X12117738Y-10370833D01*
X12184405Y-10227976D01*
X12184405Y-10427976D01*
X12365357Y-10427976D02*
X12365357Y-10323214D01*
X12355833Y-10304167D01*
X12336786Y-10294643D01*
X12298690Y-10294643D01*
X12279643Y-10304167D01*
X12365357Y-10418452D02*
X12346309Y-10427976D01*
X12298690Y-10427976D01*
X12279643Y-10418452D01*
X12270119Y-10399405D01*
X12270119Y-10380357D01*
X12279643Y-10361310D01*
X12298690Y-10351786D01*
X12346309Y-10351786D01*
X12365357Y-10342262D01*
X12460595Y-10294643D02*
X12460595Y-10494643D01*
X12460595Y-10304167D02*
X12479643Y-10294643D01*
X12517738Y-10294643D01*
X12536786Y-10304167D01*
X12546309Y-10313690D01*
X12555833Y-10332738D01*
X12555833Y-10389881D01*
X12546309Y-10408929D01*
X12536786Y-10418452D01*
X12517738Y-10427976D01*
X12479643Y-10427976D01*
X12460595Y-10418452D01*
X12641548Y-10408929D02*
X12651071Y-10418452D01*
X12641548Y-10427976D01*
X12632024Y-10418452D01*
X12641548Y-10408929D01*
X12641548Y-10427976D01*
X12641548Y-10304167D02*
X12651071Y-10313690D01*
X12641548Y-10323214D01*
X12632024Y-10313690D01*
X12641548Y-10304167D01*
X12641548Y-10323214D01*
D12*
X10912500Y-10707500D02*
X11012500Y-10807500D01*
X11012500Y-10707500D02*
X10912500Y-10807500D01*
D11*
X11374881Y-10847976D02*
X11260595Y-10847976D01*
X11317738Y-10847976D02*
X11317738Y-10647976D01*
X11298690Y-10676548D01*
X11279643Y-10695595D01*
X11260595Y-10705119D01*
X11460595Y-10828929D02*
X11470119Y-10838452D01*
X11460595Y-10847976D01*
X11451071Y-10838452D01*
X11460595Y-10828929D01*
X11460595Y-10847976D01*
X11593928Y-10647976D02*
X11612976Y-10647976D01*
X11632024Y-10657500D01*
X11641548Y-10667024D01*
X11651071Y-10686071D01*
X11660595Y-10724167D01*
X11660595Y-10771786D01*
X11651071Y-10809881D01*
X11641548Y-10828929D01*
X11632024Y-10838452D01*
X11612976Y-10847976D01*
X11593928Y-10847976D01*
X11574881Y-10838452D01*
X11565357Y-10828929D01*
X11555833Y-10809881D01*
X11546309Y-10771786D01*
X11546309Y-10724167D01*
X11555833Y-10686071D01*
X11565357Y-10667024D01*
X11574881Y-10657500D01*
X11593928Y-10647976D01*
X11784405Y-10647976D02*
X11803452Y-10647976D01*
X11822500Y-10657500D01*
X11832024Y-10667024D01*
X11841548Y-10686071D01*
X11851071Y-10724167D01*
X11851071Y-10771786D01*
X11841548Y-10809881D01*
X11832024Y-10828929D01*
X11822500Y-10838452D01*
X11803452Y-10847976D01*
X11784405Y-10847976D01*
X11765357Y-10838452D01*
X11755833Y-10828929D01*
X11746309Y-10809881D01*
X11736786Y-10771786D01*
X11736786Y-10724167D01*
X11746309Y-10686071D01*
X11755833Y-10667024D01*
X11765357Y-10657500D01*
X11784405Y-10647976D01*
X11974881Y-10647976D02*
X11993928Y-10647976D01*
X12012976Y-10657500D01*
X12022500Y-10667024D01*
X12032024Y-10686071D01*
X12041548Y-10724167D01*
X12041548Y-10771786D01*
X12032024Y-10809881D01*
X12022500Y-10828929D01*
X12012976Y-10838452D01*
X11993928Y-10847976D01*
X11974881Y-10847976D01*
X11955833Y-10838452D01*
X11946309Y-10828929D01*
X11936786Y-10809881D01*
X11927262Y-10771786D01*
X11927262Y-10724167D01*
X11936786Y-10686071D01*
X11946309Y-10667024D01*
X11955833Y-10657500D01*
X11974881Y-10647976D01*
X12127262Y-10847976D02*
X12127262Y-10714643D01*
X12127262Y-10733690D02*
X12136786Y-10724167D01*
X12155833Y-10714643D01*
X12184405Y-10714643D01*
X12203452Y-10724167D01*
X12212976Y-10743214D01*
X12212976Y-10847976D01*
X12212976Y-10743214D02*
X12222500Y-10724167D01*
X12241548Y-10714643D01*
X12270119Y-10714643D01*
X12289167Y-10724167D01*
X12298690Y-10743214D01*
X12298690Y-10847976D01*
X12393928Y-10847976D02*
X12393928Y-10714643D01*
X12393928Y-10733690D02*
X12403452Y-10724167D01*
X12422500Y-10714643D01*
X12451071Y-10714643D01*
X12470119Y-10724167D01*
X12479643Y-10743214D01*
X12479643Y-10847976D01*
X12479643Y-10743214D02*
X12489167Y-10724167D01*
X12508214Y-10714643D01*
X12536786Y-10714643D01*
X12555833Y-10724167D01*
X12565357Y-10743214D01*
X12565357Y-10847976D01*
X12955833Y-10638452D02*
X12784405Y-10895595D01*
X13212976Y-10647976D02*
X13232024Y-10647976D01*
X13251071Y-10657500D01*
X13260595Y-10667024D01*
X13270119Y-10686071D01*
X13279643Y-10724167D01*
X13279643Y-10771786D01*
X13270119Y-10809881D01*
X13260595Y-10828929D01*
X13251071Y-10838452D01*
X13232024Y-10847976D01*
X13212976Y-10847976D01*
X13193928Y-10838452D01*
X13184405Y-10828929D01*
X13174881Y-10809881D01*
X13165357Y-10771786D01*
X13165357Y-10724167D01*
X13174881Y-10686071D01*
X13184405Y-10667024D01*
X13193928Y-10657500D01*
X13212976Y-10647976D01*
X13365357Y-10828929D02*
X13374881Y-10838452D01*
X13365357Y-10847976D01*
X13355833Y-10838452D01*
X13365357Y-10828929D01*
X13365357Y-10847976D01*
X13498690Y-10647976D02*
X13517738Y-10647976D01*
X13536786Y-10657500D01*
X13546309Y-10667024D01*
X13555833Y-10686071D01*
X13565357Y-10724167D01*
X13565357Y-10771786D01*
X13555833Y-10809881D01*
X13546309Y-10828929D01*
X13536786Y-10838452D01*
X13517738Y-10847976D01*
X13498690Y-10847976D01*
X13479643Y-10838452D01*
X13470119Y-10828929D01*
X13460595Y-10809881D01*
X13451071Y-10771786D01*
X13451071Y-10724167D01*
X13460595Y-10686071D01*
X13470119Y-10667024D01*
X13479643Y-10657500D01*
X13498690Y-10647976D01*
X13632024Y-10647976D02*
X13755833Y-10647976D01*
X13689167Y-10724167D01*
X13717738Y-10724167D01*
X13736786Y-10733690D01*
X13746309Y-10743214D01*
X13755833Y-10762262D01*
X13755833Y-10809881D01*
X13746309Y-10828929D01*
X13736786Y-10838452D01*
X13717738Y-10847976D01*
X13660595Y-10847976D01*
X13641548Y-10838452D01*
X13632024Y-10828929D01*
X13851071Y-10847976D02*
X13889167Y-10847976D01*
X13908214Y-10838452D01*
X13917738Y-10828929D01*
X13936786Y-10800357D01*
X13946309Y-10762262D01*
X13946309Y-10686071D01*
X13936786Y-10667024D01*
X13927262Y-10657500D01*
X13908214Y-10647976D01*
X13870119Y-10647976D01*
X13851071Y-10657500D01*
X13841548Y-10667024D01*
X13832024Y-10686071D01*
X13832024Y-10733690D01*
X13841548Y-10752738D01*
X13851071Y-10762262D01*
X13870119Y-10771786D01*
X13908214Y-10771786D01*
X13927262Y-10762262D01*
X13936786Y-10752738D01*
X13946309Y-10733690D01*
X14117738Y-10714643D02*
X14117738Y-10847976D01*
X14070119Y-10638452D02*
X14022500Y-10781310D01*
X14146309Y-10781310D01*
X14212976Y-10647976D02*
X14212976Y-10686071D01*
X14289167Y-10647976D02*
X14289167Y-10686071D01*
X14584405Y-10924167D02*
X14574881Y-10914643D01*
X14555833Y-10886071D01*
X14546309Y-10867024D01*
X14536786Y-10838452D01*
X14527262Y-10790833D01*
X14527262Y-10752738D01*
X14536786Y-10705119D01*
X14546309Y-10676548D01*
X14555833Y-10657500D01*
X14574881Y-10628929D01*
X14584405Y-10619405D01*
X14765357Y-10847976D02*
X14651071Y-10847976D01*
X14708214Y-10847976D02*
X14708214Y-10647976D01*
X14689167Y-10676548D01*
X14670119Y-10695595D01*
X14651071Y-10705119D01*
X15003452Y-10847976D02*
X15003452Y-10647976D01*
X15089167Y-10847976D02*
X15089167Y-10743214D01*
X15079643Y-10724167D01*
X15060595Y-10714643D01*
X15032024Y-10714643D01*
X15012976Y-10724167D01*
X15003452Y-10733690D01*
X15212976Y-10847976D02*
X15193928Y-10838452D01*
X15184405Y-10828929D01*
X15174881Y-10809881D01*
X15174881Y-10752738D01*
X15184405Y-10733690D01*
X15193928Y-10724167D01*
X15212976Y-10714643D01*
X15241548Y-10714643D01*
X15260595Y-10724167D01*
X15270119Y-10733690D01*
X15279643Y-10752738D01*
X15279643Y-10809881D01*
X15270119Y-10828929D01*
X15260595Y-10838452D01*
X15241548Y-10847976D01*
X15212976Y-10847976D01*
X15393928Y-10847976D02*
X15374881Y-10838452D01*
X15365357Y-10819405D01*
X15365357Y-10647976D01*
X15546309Y-10838452D02*
X15527262Y-10847976D01*
X15489167Y-10847976D01*
X15470119Y-10838452D01*
X15460595Y-10819405D01*
X15460595Y-10743214D01*
X15470119Y-10724167D01*
X15489167Y-10714643D01*
X15527262Y-10714643D01*
X15546309Y-10724167D01*
X15555833Y-10743214D01*
X15555833Y-10762262D01*
X15460595Y-10781310D01*
X15622500Y-10924167D02*
X15632024Y-10914643D01*
X15651071Y-10886071D01*
X15660595Y-10867024D01*
X15670119Y-10838452D01*
X15679643Y-10790833D01*
X15679643Y-10752738D01*
X15670119Y-10705119D01*
X15660595Y-10676548D01*
X15651071Y-10657500D01*
X15632024Y-10628929D01*
X15622500Y-10619405D01*
X15984405Y-10924167D02*
X15974881Y-10914643D01*
X15955833Y-10886071D01*
X15946309Y-10867024D01*
X15936786Y-10838452D01*
X15927262Y-10790833D01*
X15927262Y-10752738D01*
X15936786Y-10705119D01*
X15946309Y-10676548D01*
X15955833Y-10657500D01*
X15974881Y-10628929D01*
X15984405Y-10619405D01*
X16060595Y-10714643D02*
X16060595Y-10847976D01*
X16060595Y-10733690D02*
X16070119Y-10724167D01*
X16089167Y-10714643D01*
X16117738Y-10714643D01*
X16136786Y-10724167D01*
X16146309Y-10743214D01*
X16146309Y-10847976D01*
X16270119Y-10847976D02*
X16251071Y-10838452D01*
X16241548Y-10828929D01*
X16232024Y-10809881D01*
X16232024Y-10752738D01*
X16241548Y-10733690D01*
X16251071Y-10724167D01*
X16270119Y-10714643D01*
X16298690Y-10714643D01*
X16317738Y-10724167D01*
X16327262Y-10733690D01*
X16336786Y-10752738D01*
X16336786Y-10809881D01*
X16327262Y-10828929D01*
X16317738Y-10838452D01*
X16298690Y-10847976D01*
X16270119Y-10847976D01*
X16393928Y-10714643D02*
X16470119Y-10714643D01*
X16422500Y-10647976D02*
X16422500Y-10819405D01*
X16432024Y-10838452D01*
X16451071Y-10847976D01*
X16470119Y-10847976D01*
X16689167Y-10714643D02*
X16689167Y-10914643D01*
X16689167Y-10724167D02*
X16708214Y-10714643D01*
X16746309Y-10714643D01*
X16765357Y-10724167D01*
X16774881Y-10733690D01*
X16784405Y-10752738D01*
X16784405Y-10809881D01*
X16774881Y-10828929D01*
X16765357Y-10838452D01*
X16746309Y-10847976D01*
X16708214Y-10847976D01*
X16689167Y-10838452D01*
X16898690Y-10847976D02*
X16879643Y-10838452D01*
X16870119Y-10819405D01*
X16870119Y-10647976D01*
X17060595Y-10847976D02*
X17060595Y-10743214D01*
X17051071Y-10724167D01*
X17032024Y-10714643D01*
X16993929Y-10714643D01*
X16974881Y-10724167D01*
X17060595Y-10838452D02*
X17041548Y-10847976D01*
X16993929Y-10847976D01*
X16974881Y-10838452D01*
X16965357Y-10819405D01*
X16965357Y-10800357D01*
X16974881Y-10781310D01*
X16993929Y-10771786D01*
X17041548Y-10771786D01*
X17060595Y-10762262D01*
X17127262Y-10714643D02*
X17203452Y-10714643D01*
X17155833Y-10647976D02*
X17155833Y-10819405D01*
X17165357Y-10838452D01*
X17184405Y-10847976D01*
X17203452Y-10847976D01*
X17346310Y-10838452D02*
X17327262Y-10847976D01*
X17289167Y-10847976D01*
X17270119Y-10838452D01*
X17260595Y-10819405D01*
X17260595Y-10743214D01*
X17270119Y-10724167D01*
X17289167Y-10714643D01*
X17327262Y-10714643D01*
X17346310Y-10724167D01*
X17355833Y-10743214D01*
X17355833Y-10762262D01*
X17260595Y-10781310D01*
X17527262Y-10847976D02*
X17527262Y-10647976D01*
X17527262Y-10838452D02*
X17508214Y-10847976D01*
X17470119Y-10847976D01*
X17451071Y-10838452D01*
X17441548Y-10828929D01*
X17432024Y-10809881D01*
X17432024Y-10752738D01*
X17441548Y-10733690D01*
X17451071Y-10724167D01*
X17470119Y-10714643D01*
X17508214Y-10714643D01*
X17527262Y-10724167D01*
X17603452Y-10924167D02*
X17612976Y-10914643D01*
X17632024Y-10886071D01*
X17641548Y-10867024D01*
X17651071Y-10838452D01*
X17660595Y-10790833D01*
X17660595Y-10752738D01*
X17651071Y-10705119D01*
X17641548Y-10676548D01*
X17632024Y-10657500D01*
X17612976Y-10628929D01*
X17603452Y-10619405D01*
X11012500Y-11021500D02*
G75*
G03*
X11012500Y-11021500I-100000J0D01*
G01*
X11260595Y-10931024D02*
X11270119Y-10921500D01*
X11289167Y-10911976D01*
X11336786Y-10911976D01*
X11355833Y-10921500D01*
X11365357Y-10931024D01*
X11374881Y-10950071D01*
X11374881Y-10969119D01*
X11365357Y-10997690D01*
X11251071Y-11111976D01*
X11374881Y-11111976D01*
X11460595Y-11092929D02*
X11470119Y-11102452D01*
X11460595Y-11111976D01*
X11451071Y-11102452D01*
X11460595Y-11092929D01*
X11460595Y-11111976D01*
X11651071Y-10911976D02*
X11555833Y-10911976D01*
X11546309Y-11007214D01*
X11555833Y-10997690D01*
X11574881Y-10988167D01*
X11622500Y-10988167D01*
X11641548Y-10997690D01*
X11651071Y-11007214D01*
X11660595Y-11026262D01*
X11660595Y-11073881D01*
X11651071Y-11092929D01*
X11641548Y-11102452D01*
X11622500Y-11111976D01*
X11574881Y-11111976D01*
X11555833Y-11102452D01*
X11546309Y-11092929D01*
X11784405Y-10911976D02*
X11803452Y-10911976D01*
X11822500Y-10921500D01*
X11832024Y-10931024D01*
X11841548Y-10950071D01*
X11851071Y-10988167D01*
X11851071Y-11035786D01*
X11841548Y-11073881D01*
X11832024Y-11092929D01*
X11822500Y-11102452D01*
X11803452Y-11111976D01*
X11784405Y-11111976D01*
X11765357Y-11102452D01*
X11755833Y-11092929D01*
X11746309Y-11073881D01*
X11736786Y-11035786D01*
X11736786Y-10988167D01*
X11746309Y-10950071D01*
X11755833Y-10931024D01*
X11765357Y-10921500D01*
X11784405Y-10911976D01*
X11974881Y-10911976D02*
X11993928Y-10911976D01*
X12012976Y-10921500D01*
X12022500Y-10931024D01*
X12032024Y-10950071D01*
X12041548Y-10988167D01*
X12041548Y-11035786D01*
X12032024Y-11073881D01*
X12022500Y-11092929D01*
X12012976Y-11102452D01*
X11993928Y-11111976D01*
X11974881Y-11111976D01*
X11955833Y-11102452D01*
X11946309Y-11092929D01*
X11936786Y-11073881D01*
X11927262Y-11035786D01*
X11927262Y-10988167D01*
X11936786Y-10950071D01*
X11946309Y-10931024D01*
X11955833Y-10921500D01*
X11974881Y-10911976D01*
X12127262Y-11111976D02*
X12127262Y-10978643D01*
X12127262Y-10997690D02*
X12136786Y-10988167D01*
X12155833Y-10978643D01*
X12184405Y-10978643D01*
X12203452Y-10988167D01*
X12212976Y-11007214D01*
X12212976Y-11111976D01*
X12212976Y-11007214D02*
X12222500Y-10988167D01*
X12241548Y-10978643D01*
X12270119Y-10978643D01*
X12289167Y-10988167D01*
X12298690Y-11007214D01*
X12298690Y-11111976D01*
X12393928Y-11111976D02*
X12393928Y-10978643D01*
X12393928Y-10997690D02*
X12403452Y-10988167D01*
X12422500Y-10978643D01*
X12451071Y-10978643D01*
X12470119Y-10988167D01*
X12479643Y-11007214D01*
X12479643Y-11111976D01*
X12479643Y-11007214D02*
X12489167Y-10988167D01*
X12508214Y-10978643D01*
X12536786Y-10978643D01*
X12555833Y-10988167D01*
X12565357Y-11007214D01*
X12565357Y-11111976D01*
X12955833Y-10902452D02*
X12784405Y-11159595D01*
X13212976Y-10911976D02*
X13232024Y-10911976D01*
X13251071Y-10921500D01*
X13260595Y-10931024D01*
X13270119Y-10950071D01*
X13279643Y-10988167D01*
X13279643Y-11035786D01*
X13270119Y-11073881D01*
X13260595Y-11092929D01*
X13251071Y-11102452D01*
X13232024Y-11111976D01*
X13212976Y-11111976D01*
X13193928Y-11102452D01*
X13184405Y-11092929D01*
X13174881Y-11073881D01*
X13165357Y-11035786D01*
X13165357Y-10988167D01*
X13174881Y-10950071D01*
X13184405Y-10931024D01*
X13193928Y-10921500D01*
X13212976Y-10911976D01*
X13365357Y-11092929D02*
X13374881Y-11102452D01*
X13365357Y-11111976D01*
X13355833Y-11102452D01*
X13365357Y-11092929D01*
X13365357Y-11111976D01*
X13498690Y-10911976D02*
X13517738Y-10911976D01*
X13536786Y-10921500D01*
X13546309Y-10931024D01*
X13555833Y-10950071D01*
X13565357Y-10988167D01*
X13565357Y-11035786D01*
X13555833Y-11073881D01*
X13546309Y-11092929D01*
X13536786Y-11102452D01*
X13517738Y-11111976D01*
X13498690Y-11111976D01*
X13479643Y-11102452D01*
X13470119Y-11092929D01*
X13460595Y-11073881D01*
X13451071Y-11035786D01*
X13451071Y-10988167D01*
X13460595Y-10950071D01*
X13470119Y-10931024D01*
X13479643Y-10921500D01*
X13498690Y-10911976D01*
X13660595Y-11111976D02*
X13698690Y-11111976D01*
X13717738Y-11102452D01*
X13727262Y-11092929D01*
X13746309Y-11064357D01*
X13755833Y-11026262D01*
X13755833Y-10950071D01*
X13746309Y-10931024D01*
X13736786Y-10921500D01*
X13717738Y-10911976D01*
X13679643Y-10911976D01*
X13660595Y-10921500D01*
X13651071Y-10931024D01*
X13641548Y-10950071D01*
X13641548Y-10997690D01*
X13651071Y-11016738D01*
X13660595Y-11026262D01*
X13679643Y-11035786D01*
X13717738Y-11035786D01*
X13736786Y-11026262D01*
X13746309Y-11016738D01*
X13755833Y-10997690D01*
X13870119Y-10997690D02*
X13851071Y-10988167D01*
X13841548Y-10978643D01*
X13832024Y-10959595D01*
X13832024Y-10950071D01*
X13841548Y-10931024D01*
X13851071Y-10921500D01*
X13870119Y-10911976D01*
X13908214Y-10911976D01*
X13927262Y-10921500D01*
X13936786Y-10931024D01*
X13946309Y-10950071D01*
X13946309Y-10959595D01*
X13936786Y-10978643D01*
X13927262Y-10988167D01*
X13908214Y-10997690D01*
X13870119Y-10997690D01*
X13851071Y-11007214D01*
X13841548Y-11016738D01*
X13832024Y-11035786D01*
X13832024Y-11073881D01*
X13841548Y-11092929D01*
X13851071Y-11102452D01*
X13870119Y-11111976D01*
X13908214Y-11111976D01*
X13927262Y-11102452D01*
X13936786Y-11092929D01*
X13946309Y-11073881D01*
X13946309Y-11035786D01*
X13936786Y-11016738D01*
X13927262Y-11007214D01*
X13908214Y-10997690D01*
X14117738Y-10978643D02*
X14117738Y-11111976D01*
X14070119Y-10902452D02*
X14022500Y-11045310D01*
X14146309Y-11045310D01*
X14212976Y-10911976D02*
X14212976Y-10950071D01*
X14289167Y-10911976D02*
X14289167Y-10950071D01*
X14584405Y-11188167D02*
X14574881Y-11178643D01*
X14555833Y-11150071D01*
X14546309Y-11131024D01*
X14536786Y-11102452D01*
X14527262Y-11054833D01*
X14527262Y-11016738D01*
X14536786Y-10969119D01*
X14546309Y-10940548D01*
X14555833Y-10921500D01*
X14574881Y-10892929D01*
X14584405Y-10883405D01*
X14651071Y-10931024D02*
X14660595Y-10921500D01*
X14679643Y-10911976D01*
X14727262Y-10911976D01*
X14746309Y-10921500D01*
X14755833Y-10931024D01*
X14765357Y-10950071D01*
X14765357Y-10969119D01*
X14755833Y-10997690D01*
X14641548Y-11111976D01*
X14765357Y-11111976D01*
X15003452Y-11111976D02*
X15003452Y-10911976D01*
X15089167Y-11111976D02*
X15089167Y-11007214D01*
X15079643Y-10988167D01*
X15060595Y-10978643D01*
X15032024Y-10978643D01*
X15012976Y-10988167D01*
X15003452Y-10997690D01*
X15212976Y-11111976D02*
X15193928Y-11102452D01*
X15184405Y-11092929D01*
X15174881Y-11073881D01*
X15174881Y-11016738D01*
X15184405Y-10997690D01*
X15193928Y-10988167D01*
X15212976Y-10978643D01*
X15241548Y-10978643D01*
X15260595Y-10988167D01*
X15270119Y-10997690D01*
X15279643Y-11016738D01*
X15279643Y-11073881D01*
X15270119Y-11092929D01*
X15260595Y-11102452D01*
X15241548Y-11111976D01*
X15212976Y-11111976D01*
X15393928Y-11111976D02*
X15374881Y-11102452D01*
X15365357Y-11083405D01*
X15365357Y-10911976D01*
X15546309Y-11102452D02*
X15527262Y-11111976D01*
X15489167Y-11111976D01*
X15470119Y-11102452D01*
X15460595Y-11083405D01*
X15460595Y-11007214D01*
X15470119Y-10988167D01*
X15489167Y-10978643D01*
X15527262Y-10978643D01*
X15546309Y-10988167D01*
X15555833Y-11007214D01*
X15555833Y-11026262D01*
X15460595Y-11045310D01*
X15632024Y-11102452D02*
X15651071Y-11111976D01*
X15689167Y-11111976D01*
X15708214Y-11102452D01*
X15717738Y-11083405D01*
X15717738Y-11073881D01*
X15708214Y-11054833D01*
X15689167Y-11045310D01*
X15660595Y-11045310D01*
X15641548Y-11035786D01*
X15632024Y-11016738D01*
X15632024Y-11007214D01*
X15641548Y-10988167D01*
X15660595Y-10978643D01*
X15689167Y-10978643D01*
X15708214Y-10988167D01*
X15784405Y-11188167D02*
X15793928Y-11178643D01*
X15812976Y-11150071D01*
X15822500Y-11131024D01*
X15832024Y-11102452D01*
X15841548Y-11054833D01*
X15841548Y-11016738D01*
X15832024Y-10969119D01*
X15822500Y-10940548D01*
X15812976Y-10921500D01*
X15793928Y-10892929D01*
X15784405Y-10883405D01*
X16146309Y-11188167D02*
X16136786Y-11178643D01*
X16117738Y-11150071D01*
X16108214Y-11131024D01*
X16098690Y-11102452D01*
X16089167Y-11054833D01*
X16089167Y-11016738D01*
X16098690Y-10969119D01*
X16108214Y-10940548D01*
X16117738Y-10921500D01*
X16136786Y-10892929D01*
X16146309Y-10883405D01*
X16222500Y-10978643D02*
X16222500Y-11111976D01*
X16222500Y-10997690D02*
X16232024Y-10988167D01*
X16251071Y-10978643D01*
X16279643Y-10978643D01*
X16298690Y-10988167D01*
X16308214Y-11007214D01*
X16308214Y-11111976D01*
X16432024Y-11111976D02*
X16412976Y-11102452D01*
X16403452Y-11092929D01*
X16393928Y-11073881D01*
X16393928Y-11016738D01*
X16403452Y-10997690D01*
X16412976Y-10988167D01*
X16432024Y-10978643D01*
X16460595Y-10978643D01*
X16479643Y-10988167D01*
X16489167Y-10997690D01*
X16498690Y-11016738D01*
X16498690Y-11073881D01*
X16489167Y-11092929D01*
X16479643Y-11102452D01*
X16460595Y-11111976D01*
X16432024Y-11111976D01*
X16555833Y-10978643D02*
X16632024Y-10978643D01*
X16584405Y-10911976D02*
X16584405Y-11083405D01*
X16593928Y-11102452D01*
X16612976Y-11111976D01*
X16632024Y-11111976D01*
X16851071Y-10978643D02*
X16851071Y-11178643D01*
X16851071Y-10988167D02*
X16870119Y-10978643D01*
X16908214Y-10978643D01*
X16927262Y-10988167D01*
X16936786Y-10997690D01*
X16946310Y-11016738D01*
X16946310Y-11073881D01*
X16936786Y-11092929D01*
X16927262Y-11102452D01*
X16908214Y-11111976D01*
X16870119Y-11111976D01*
X16851071Y-11102452D01*
X17060595Y-11111976D02*
X17041548Y-11102452D01*
X17032024Y-11083405D01*
X17032024Y-10911976D01*
X17222500Y-11111976D02*
X17222500Y-11007214D01*
X17212976Y-10988167D01*
X17193929Y-10978643D01*
X17155833Y-10978643D01*
X17136786Y-10988167D01*
X17222500Y-11102452D02*
X17203452Y-11111976D01*
X17155833Y-11111976D01*
X17136786Y-11102452D01*
X17127262Y-11083405D01*
X17127262Y-11064357D01*
X17136786Y-11045310D01*
X17155833Y-11035786D01*
X17203452Y-11035786D01*
X17222500Y-11026262D01*
X17289167Y-10978643D02*
X17365357Y-10978643D01*
X17317738Y-10911976D02*
X17317738Y-11083405D01*
X17327262Y-11102452D01*
X17346310Y-11111976D01*
X17365357Y-11111976D01*
X17508214Y-11102452D02*
X17489167Y-11111976D01*
X17451071Y-11111976D01*
X17432024Y-11102452D01*
X17422500Y-11083405D01*
X17422500Y-11007214D01*
X17432024Y-10988167D01*
X17451071Y-10978643D01*
X17489167Y-10978643D01*
X17508214Y-10988167D01*
X17517738Y-11007214D01*
X17517738Y-11026262D01*
X17422500Y-11045310D01*
X17689167Y-11111976D02*
X17689167Y-10911976D01*
X17689167Y-11102452D02*
X17670119Y-11111976D01*
X17632024Y-11111976D01*
X17612976Y-11102452D01*
X17603452Y-11092929D01*
X17593929Y-11073881D01*
X17593929Y-11016738D01*
X17603452Y-10997690D01*
X17612976Y-10988167D01*
X17632024Y-10978643D01*
X17670119Y-10978643D01*
X17689167Y-10988167D01*
X17765357Y-11188167D02*
X17774881Y-11178643D01*
X17793929Y-11150071D01*
X17803452Y-11131024D01*
X17812976Y-11102452D01*
X17822500Y-11054833D01*
X17822500Y-11016738D01*
X17812976Y-10969119D01*
X17803452Y-10940548D01*
X17793929Y-10921500D01*
X17774881Y-10892929D01*
X17765357Y-10883405D01*
X10912500Y-11241500D02*
X10912500Y-11441500D01*
X10812500Y-11341500D02*
X11012500Y-11341500D01*
X11251071Y-11231976D02*
X11374881Y-11231976D01*
X11308214Y-11308167D01*
X11336786Y-11308167D01*
X11355833Y-11317690D01*
X11365357Y-11327214D01*
X11374881Y-11346262D01*
X11374881Y-11393881D01*
X11365357Y-11412928D01*
X11355833Y-11422452D01*
X11336786Y-11431976D01*
X11279643Y-11431976D01*
X11260595Y-11422452D01*
X11251071Y-11412928D01*
X11460595Y-11412928D02*
X11470119Y-11422452D01*
X11460595Y-11431976D01*
X11451071Y-11422452D01*
X11460595Y-11412928D01*
X11460595Y-11431976D01*
X11546309Y-11251024D02*
X11555833Y-11241500D01*
X11574881Y-11231976D01*
X11622500Y-11231976D01*
X11641548Y-11241500D01*
X11651071Y-11251024D01*
X11660595Y-11270071D01*
X11660595Y-11289119D01*
X11651071Y-11317690D01*
X11536786Y-11431976D01*
X11660595Y-11431976D01*
X11784405Y-11231976D02*
X11803452Y-11231976D01*
X11822500Y-11241500D01*
X11832024Y-11251024D01*
X11841548Y-11270071D01*
X11851071Y-11308167D01*
X11851071Y-11355786D01*
X11841548Y-11393881D01*
X11832024Y-11412928D01*
X11822500Y-11422452D01*
X11803452Y-11431976D01*
X11784405Y-11431976D01*
X11765357Y-11422452D01*
X11755833Y-11412928D01*
X11746309Y-11393881D01*
X11736786Y-11355786D01*
X11736786Y-11308167D01*
X11746309Y-11270071D01*
X11755833Y-11251024D01*
X11765357Y-11241500D01*
X11784405Y-11231976D01*
X11974881Y-11231976D02*
X11993928Y-11231976D01*
X12012976Y-11241500D01*
X12022500Y-11251024D01*
X12032024Y-11270071D01*
X12041548Y-11308167D01*
X12041548Y-11355786D01*
X12032024Y-11393881D01*
X12022500Y-11412928D01*
X12012976Y-11422452D01*
X11993928Y-11431976D01*
X11974881Y-11431976D01*
X11955833Y-11422452D01*
X11946309Y-11412928D01*
X11936786Y-11393881D01*
X11927262Y-11355786D01*
X11927262Y-11308167D01*
X11936786Y-11270071D01*
X11946309Y-11251024D01*
X11955833Y-11241500D01*
X11974881Y-11231976D01*
X12127262Y-11431976D02*
X12127262Y-11298643D01*
X12127262Y-11317690D02*
X12136786Y-11308167D01*
X12155833Y-11298643D01*
X12184405Y-11298643D01*
X12203452Y-11308167D01*
X12212976Y-11327214D01*
X12212976Y-11431976D01*
X12212976Y-11327214D02*
X12222500Y-11308167D01*
X12241548Y-11298643D01*
X12270119Y-11298643D01*
X12289167Y-11308167D01*
X12298690Y-11327214D01*
X12298690Y-11431976D01*
X12393928Y-11431976D02*
X12393928Y-11298643D01*
X12393928Y-11317690D02*
X12403452Y-11308167D01*
X12422500Y-11298643D01*
X12451071Y-11298643D01*
X12470119Y-11308167D01*
X12479643Y-11327214D01*
X12479643Y-11431976D01*
X12479643Y-11327214D02*
X12489167Y-11308167D01*
X12508214Y-11298643D01*
X12536786Y-11298643D01*
X12555833Y-11308167D01*
X12565357Y-11327214D01*
X12565357Y-11431976D01*
X12955833Y-11222452D02*
X12784405Y-11479595D01*
X13212976Y-11231976D02*
X13232024Y-11231976D01*
X13251071Y-11241500D01*
X13260595Y-11251024D01*
X13270119Y-11270071D01*
X13279643Y-11308167D01*
X13279643Y-11355786D01*
X13270119Y-11393881D01*
X13260595Y-11412928D01*
X13251071Y-11422452D01*
X13232024Y-11431976D01*
X13212976Y-11431976D01*
X13193928Y-11422452D01*
X13184405Y-11412928D01*
X13174881Y-11393881D01*
X13165357Y-11355786D01*
X13165357Y-11308167D01*
X13174881Y-11270071D01*
X13184405Y-11251024D01*
X13193928Y-11241500D01*
X13212976Y-11231976D01*
X13365357Y-11412928D02*
X13374881Y-11422452D01*
X13365357Y-11431976D01*
X13355833Y-11422452D01*
X13365357Y-11412928D01*
X13365357Y-11431976D01*
X13565357Y-11431976D02*
X13451071Y-11431976D01*
X13508214Y-11431976D02*
X13508214Y-11231976D01*
X13489167Y-11260548D01*
X13470119Y-11279595D01*
X13451071Y-11289119D01*
X13641548Y-11251024D02*
X13651071Y-11241500D01*
X13670119Y-11231976D01*
X13717738Y-11231976D01*
X13736786Y-11241500D01*
X13746309Y-11251024D01*
X13755833Y-11270071D01*
X13755833Y-11289119D01*
X13746309Y-11317690D01*
X13632024Y-11431976D01*
X13755833Y-11431976D01*
X13927262Y-11231976D02*
X13889167Y-11231976D01*
X13870119Y-11241500D01*
X13860595Y-11251024D01*
X13841548Y-11279595D01*
X13832024Y-11317690D01*
X13832024Y-11393881D01*
X13841548Y-11412928D01*
X13851071Y-11422452D01*
X13870119Y-11431976D01*
X13908214Y-11431976D01*
X13927262Y-11422452D01*
X13936786Y-11412928D01*
X13946309Y-11393881D01*
X13946309Y-11346262D01*
X13936786Y-11327214D01*
X13927262Y-11317690D01*
X13908214Y-11308167D01*
X13870119Y-11308167D01*
X13851071Y-11317690D01*
X13841548Y-11327214D01*
X13832024Y-11346262D01*
X14070119Y-11231976D02*
X14089167Y-11231976D01*
X14108214Y-11241500D01*
X14117738Y-11251024D01*
X14127262Y-11270071D01*
X14136786Y-11308167D01*
X14136786Y-11355786D01*
X14127262Y-11393881D01*
X14117738Y-11412928D01*
X14108214Y-11422452D01*
X14089167Y-11431976D01*
X14070119Y-11431976D01*
X14051071Y-11422452D01*
X14041548Y-11412928D01*
X14032024Y-11393881D01*
X14022500Y-11355786D01*
X14022500Y-11308167D01*
X14032024Y-11270071D01*
X14041548Y-11251024D01*
X14051071Y-11241500D01*
X14070119Y-11231976D01*
X14212976Y-11231976D02*
X14212976Y-11270071D01*
X14289167Y-11231976D02*
X14289167Y-11270071D01*
X14584405Y-11508167D02*
X14574881Y-11498643D01*
X14555833Y-11470071D01*
X14546309Y-11451024D01*
X14536786Y-11422452D01*
X14527262Y-11374833D01*
X14527262Y-11336738D01*
X14536786Y-11289119D01*
X14546309Y-11260548D01*
X14555833Y-11241500D01*
X14574881Y-11212928D01*
X14584405Y-11203405D01*
X14746309Y-11298643D02*
X14746309Y-11431976D01*
X14698690Y-11222452D02*
X14651071Y-11365309D01*
X14774881Y-11365309D01*
X15003452Y-11431976D02*
X15003452Y-11231976D01*
X15089167Y-11431976D02*
X15089167Y-11327214D01*
X15079643Y-11308167D01*
X15060595Y-11298643D01*
X15032024Y-11298643D01*
X15012976Y-11308167D01*
X15003452Y-11317690D01*
X15212976Y-11431976D02*
X15193928Y-11422452D01*
X15184405Y-11412928D01*
X15174881Y-11393881D01*
X15174881Y-11336738D01*
X15184405Y-11317690D01*
X15193928Y-11308167D01*
X15212976Y-11298643D01*
X15241548Y-11298643D01*
X15260595Y-11308167D01*
X15270119Y-11317690D01*
X15279643Y-11336738D01*
X15279643Y-11393881D01*
X15270119Y-11412928D01*
X15260595Y-11422452D01*
X15241548Y-11431976D01*
X15212976Y-11431976D01*
X15393928Y-11431976D02*
X15374881Y-11422452D01*
X15365357Y-11403405D01*
X15365357Y-11231976D01*
X15546309Y-11422452D02*
X15527262Y-11431976D01*
X15489167Y-11431976D01*
X15470119Y-11422452D01*
X15460595Y-11403405D01*
X15460595Y-11327214D01*
X15470119Y-11308167D01*
X15489167Y-11298643D01*
X15527262Y-11298643D01*
X15546309Y-11308167D01*
X15555833Y-11327214D01*
X15555833Y-11346262D01*
X15460595Y-11365309D01*
X15632024Y-11422452D02*
X15651071Y-11431976D01*
X15689167Y-11431976D01*
X15708214Y-11422452D01*
X15717738Y-11403405D01*
X15717738Y-11393881D01*
X15708214Y-11374833D01*
X15689167Y-11365309D01*
X15660595Y-11365309D01*
X15641548Y-11355786D01*
X15632024Y-11336738D01*
X15632024Y-11327214D01*
X15641548Y-11308167D01*
X15660595Y-11298643D01*
X15689167Y-11298643D01*
X15708214Y-11308167D01*
X15784405Y-11508167D02*
X15793928Y-11498643D01*
X15812976Y-11470071D01*
X15822500Y-11451024D01*
X15832024Y-11422452D01*
X15841548Y-11374833D01*
X15841548Y-11336738D01*
X15832024Y-11289119D01*
X15822500Y-11260548D01*
X15812976Y-11241500D01*
X15793928Y-11212928D01*
X15784405Y-11203405D01*
X16146309Y-11508167D02*
X16136786Y-11498643D01*
X16117738Y-11470071D01*
X16108214Y-11451024D01*
X16098690Y-11422452D01*
X16089167Y-11374833D01*
X16089167Y-11336738D01*
X16098690Y-11289119D01*
X16108214Y-11260548D01*
X16117738Y-11241500D01*
X16136786Y-11212928D01*
X16146309Y-11203405D01*
X16222500Y-11298643D02*
X16222500Y-11431976D01*
X16222500Y-11317690D02*
X16232024Y-11308167D01*
X16251071Y-11298643D01*
X16279643Y-11298643D01*
X16298690Y-11308167D01*
X16308214Y-11327214D01*
X16308214Y-11431976D01*
X16432024Y-11431976D02*
X16412976Y-11422452D01*
X16403452Y-11412928D01*
X16393928Y-11393881D01*
X16393928Y-11336738D01*
X16403452Y-11317690D01*
X16412976Y-11308167D01*
X16432024Y-11298643D01*
X16460595Y-11298643D01*
X16479643Y-11308167D01*
X16489167Y-11317690D01*
X16498690Y-11336738D01*
X16498690Y-11393881D01*
X16489167Y-11412928D01*
X16479643Y-11422452D01*
X16460595Y-11431976D01*
X16432024Y-11431976D01*
X16555833Y-11298643D02*
X16632024Y-11298643D01*
X16584405Y-11231976D02*
X16584405Y-11403405D01*
X16593928Y-11422452D01*
X16612976Y-11431976D01*
X16632024Y-11431976D01*
X16851071Y-11298643D02*
X16851071Y-11498643D01*
X16851071Y-11308167D02*
X16870119Y-11298643D01*
X16908214Y-11298643D01*
X16927262Y-11308167D01*
X16936786Y-11317690D01*
X16946310Y-11336738D01*
X16946310Y-11393881D01*
X16936786Y-11412928D01*
X16927262Y-11422452D01*
X16908214Y-11431976D01*
X16870119Y-11431976D01*
X16851071Y-11422452D01*
X17060595Y-11431976D02*
X17041548Y-11422452D01*
X17032024Y-11403405D01*
X17032024Y-11231976D01*
X17222500Y-11431976D02*
X17222500Y-11327214D01*
X17212976Y-11308167D01*
X17193929Y-11298643D01*
X17155833Y-11298643D01*
X17136786Y-11308167D01*
X17222500Y-11422452D02*
X17203452Y-11431976D01*
X17155833Y-11431976D01*
X17136786Y-11422452D01*
X17127262Y-11403405D01*
X17127262Y-11384357D01*
X17136786Y-11365309D01*
X17155833Y-11355786D01*
X17203452Y-11355786D01*
X17222500Y-11346262D01*
X17289167Y-11298643D02*
X17365357Y-11298643D01*
X17317738Y-11231976D02*
X17317738Y-11403405D01*
X17327262Y-11422452D01*
X17346310Y-11431976D01*
X17365357Y-11431976D01*
X17508214Y-11422452D02*
X17489167Y-11431976D01*
X17451071Y-11431976D01*
X17432024Y-11422452D01*
X17422500Y-11403405D01*
X17422500Y-11327214D01*
X17432024Y-11308167D01*
X17451071Y-11298643D01*
X17489167Y-11298643D01*
X17508214Y-11308167D01*
X17517738Y-11327214D01*
X17517738Y-11346262D01*
X17422500Y-11365309D01*
X17689167Y-11431976D02*
X17689167Y-11231976D01*
X17689167Y-11422452D02*
X17670119Y-11431976D01*
X17632024Y-11431976D01*
X17612976Y-11422452D01*
X17603452Y-11412928D01*
X17593929Y-11393881D01*
X17593929Y-11336738D01*
X17603452Y-11317690D01*
X17612976Y-11308167D01*
X17632024Y-11298643D01*
X17670119Y-11298643D01*
X17689167Y-11308167D01*
X17765357Y-11508167D02*
X17774881Y-11498643D01*
X17793929Y-11470071D01*
X17803452Y-11451024D01*
X17812976Y-11422452D01*
X17822500Y-11374833D01*
X17822500Y-11336738D01*
X17812976Y-11289119D01*
X17803452Y-11260548D01*
X17793929Y-11241500D01*
X17774881Y-11212928D01*
X17765357Y-11203405D01*
M02*
