M48
; DRILL file {KiCad (6.0.7)} date Tue Feb  7 21:03:59 2023
; FORMAT={-:-/ absolute / metric / decimal}
; #@! TF.CreationDate,2023-02-07T21:03:59+01:00
; #@! TF.GenerationSoftware,Kicad,Pcbnew,(6.0.7)
; #@! TF.FileFunction,Plated,1,2,PTH
FMAT,2
METRIC
; #@! TA.AperFunction,Plated,PTH,ViaDrill
T1C0.400
; #@! TA.AperFunction,Plated,PTH,ComponentDrill
T2C0.800
; #@! TA.AperFunction,Plated,PTH,ComponentDrill
T3C0.900
; #@! TA.AperFunction,Plated,PTH,ComponentDrill
T4C1.000
%
G90
G05
T1
X111.8Y-82.7
X111.9Y-63.8
X112.1Y-46.5
X112.1Y-99.7
X115.1Y-57.2
X116.5Y-74.0
X116.9Y-92.6
X122.1Y-99.9
X122.9Y-69.8
X123.6Y-91.8
X124.7Y-55.7
X125.3Y-62.0
X129.1Y-46.7
X129.9Y-81.2
X130.1Y-58.2
X130.2Y-66.8
X130.6Y-91.4
X130.7Y-87.6
X130.9Y-73.8
X134.8Y-80.5
X135.2Y-66.8
X136.4Y-72.2
X137.5Y-67.8
X138.8Y-93.7
X139.2Y-77.6
X139.3Y-62.3
X139.8Y-84.0
X139.9Y-87.1
X140.0Y-74.1
X140.5Y-67.9
X140.6Y-69.2
X140.9Y-53.0
X142.15Y-76.15
X142.3Y-77.6
X142.5Y-59.3
X143.4Y-92.4
X144.6Y-73.5
X147.1Y-59.3
X148.4Y-72.1
X149.5Y-66.8
X149.5Y-73.9
X149.5Y-82.1
X149.512Y-77.525
X149.6Y-46.5
X150.4Y-65.4
X150.4Y-72.1
X151.6Y-59.3
X152.4Y-92.1
X155.887Y-76.112
X158.8Y-73.7
X159.8Y-67.9
X160.4Y-92.3
X160.6Y-53.6
X161.5Y-75.5
X161.5Y-78.5
X163.6Y-100.3
X167.5Y-99.5
X168.0Y-46.3
X168.3Y-61.9
X168.4Y-82.9
T2
X123.56Y-80.96
X126.1Y-78.42
X126.1Y-83.5
T3
X114.2Y-71.9
X135.6Y-62.5
X136.1Y-91.9
X147.2Y-79.2
X151.7Y-55.7
X154.1Y-71.6
T4
X118.796Y-49.2
X121.336Y-49.2
X123.876Y-49.2
X126.416Y-49.2
X127.94Y-97.46
X128.956Y-49.2
X130.48Y-97.46
X131.496Y-49.2
X133.02Y-97.46
X134.036Y-49.2
X135.56Y-97.46
X136.576Y-49.2
X138.1Y-97.46
X139.116Y-49.2
X140.64Y-97.46
X141.656Y-49.2
X143.18Y-97.46
X145.72Y-49.2
X145.72Y-97.46
X148.26Y-49.2
X150.8Y-49.2
X150.8Y-97.46
X153.34Y-49.2
X153.34Y-97.46
X155.88Y-49.2
X155.88Y-97.46
X158.42Y-49.2
X158.42Y-97.46
X160.96Y-49.2
X160.96Y-97.46
X162.23Y-82.01
X162.23Y-87.51
X163.5Y-49.2
X163.5Y-97.46
X163.6Y-56.56
X163.6Y-59.1
X164.77Y-82.01
X164.77Y-87.51
T0
M30
