%TF.GenerationSoftware,KiCad,Pcbnew,(6.0.7)*%
%TF.CreationDate,2023-02-07T21:04:06+01:00*%
%TF.ProjectId,002 ardu ino shield,30303220-6172-4647-9520-696e6f207368,rev?*%
%TF.SameCoordinates,Original*%
%TF.FileFunction,Drillmap*%
%TF.FilePolarity,Positive*%
%FSLAX45Y45*%
G04 Gerber Fmt 4.5, Leading zero omitted, Abs format (unit mm)*
G04 Created by KiCad (PCBNEW (6.0.7)) date 2023-02-07 21:04:06*
%MOMM*%
%LPD*%
G01*
G04 APERTURE LIST*
%ADD10C,0.150000*%
%ADD11C,0.200000*%
%ADD12C,0.040000*%
%ADD13C,0.080000*%
%ADD14C,0.090000*%
%ADD15C,0.100000*%
G04 APERTURE END LIST*
D10*
X11020000Y-10110000D02*
X16970000Y-10110000D01*
X11020000Y-10110000D02*
X11020000Y-4440000D01*
X16970000Y-10110000D02*
X16970000Y-4440000D01*
X11020000Y-4440000D02*
X16970000Y-4440000D01*
D11*
D12*
X11160000Y-8250000D02*
X11200000Y-8290000D01*
X11200000Y-8250000D02*
X11160000Y-8290000D01*
X11170000Y-6360000D02*
X11210000Y-6400000D01*
X11210000Y-6360000D02*
X11170000Y-6400000D01*
X11190000Y-4630000D02*
X11230000Y-4670000D01*
X11230000Y-4630000D02*
X11190000Y-4670000D01*
X11190000Y-9950000D02*
X11230000Y-9990000D01*
X11230000Y-9950000D02*
X11190000Y-9990000D01*
X11490000Y-5700000D02*
X11530000Y-5740000D01*
X11530000Y-5700000D02*
X11490000Y-5740000D01*
X11630000Y-7380000D02*
X11670000Y-7420000D01*
X11670000Y-7380000D02*
X11630000Y-7420000D01*
X11670000Y-9240000D02*
X11710000Y-9280000D01*
X11710000Y-9240000D02*
X11670000Y-9280000D01*
X12190000Y-9970000D02*
X12230000Y-10010000D01*
X12230000Y-9970000D02*
X12190000Y-10010000D01*
X12270000Y-6960000D02*
X12310000Y-7000000D01*
X12310000Y-6960000D02*
X12270000Y-7000000D01*
X12340000Y-9160000D02*
X12380000Y-9200000D01*
X12380000Y-9160000D02*
X12340000Y-9200000D01*
X12450000Y-5550000D02*
X12490000Y-5590000D01*
X12490000Y-5550000D02*
X12450000Y-5590000D01*
X12510000Y-6180000D02*
X12550000Y-6220000D01*
X12550000Y-6180000D02*
X12510000Y-6220000D01*
X12890000Y-4650000D02*
X12930000Y-4690000D01*
X12930000Y-4650000D02*
X12890000Y-4690000D01*
X12970000Y-8100000D02*
X13010000Y-8140000D01*
X13010000Y-8100000D02*
X12970000Y-8140000D01*
X12990000Y-5800000D02*
X13030000Y-5840000D01*
X13030000Y-5800000D02*
X12990000Y-5840000D01*
X13000000Y-6660000D02*
X13040000Y-6700000D01*
X13040000Y-6660000D02*
X13000000Y-6700000D01*
X13040000Y-9120000D02*
X13080000Y-9160000D01*
X13080000Y-9120000D02*
X13040000Y-9160000D01*
X13050000Y-8740000D02*
X13090000Y-8780000D01*
X13090000Y-8740000D02*
X13050000Y-8780000D01*
X13070000Y-7360000D02*
X13110000Y-7400000D01*
X13110000Y-7360000D02*
X13070000Y-7400000D01*
X13460000Y-8030000D02*
X13500000Y-8070000D01*
X13500000Y-8030000D02*
X13460000Y-8070000D01*
X13500000Y-6660000D02*
X13540000Y-6700000D01*
X13540000Y-6660000D02*
X13500000Y-6700000D01*
X13620000Y-7200000D02*
X13660000Y-7240000D01*
X13660000Y-7200000D02*
X13620000Y-7240000D01*
X13730000Y-6760000D02*
X13770000Y-6800000D01*
X13770000Y-6760000D02*
X13730000Y-6800000D01*
X13860000Y-9350000D02*
X13900000Y-9390000D01*
X13900000Y-9350000D02*
X13860000Y-9390000D01*
X13900000Y-7740000D02*
X13940000Y-7780000D01*
X13940000Y-7740000D02*
X13900000Y-7780000D01*
X13910000Y-6210000D02*
X13950000Y-6250000D01*
X13950000Y-6210000D02*
X13910000Y-6250000D01*
X13960000Y-8380000D02*
X14000000Y-8420000D01*
X14000000Y-8380000D02*
X13960000Y-8420000D01*
X13970000Y-8690000D02*
X14010000Y-8730000D01*
X14010000Y-8690000D02*
X13970000Y-8730000D01*
X13980000Y-7390000D02*
X14020000Y-7430000D01*
X14020000Y-7390000D02*
X13980000Y-7430000D01*
X14030000Y-6770000D02*
X14070000Y-6810000D01*
X14070000Y-6770000D02*
X14030000Y-6810000D01*
X14040000Y-6900000D02*
X14080000Y-6940000D01*
X14080000Y-6900000D02*
X14040000Y-6940000D01*
X14070000Y-5280000D02*
X14110000Y-5320000D01*
X14110000Y-5280000D02*
X14070000Y-5320000D01*
X14195000Y-7595000D02*
X14235000Y-7635000D01*
X14235000Y-7595000D02*
X14195000Y-7635000D01*
X14210000Y-7740000D02*
X14250000Y-7780000D01*
X14250000Y-7740000D02*
X14210000Y-7780000D01*
X14230000Y-5910000D02*
X14270000Y-5950000D01*
X14270000Y-5910000D02*
X14230000Y-5950000D01*
X14320000Y-9220000D02*
X14360000Y-9260000D01*
X14360000Y-9220000D02*
X14320000Y-9260000D01*
X14440000Y-7330000D02*
X14480000Y-7370000D01*
X14480000Y-7330000D02*
X14440000Y-7370000D01*
X14690000Y-5910000D02*
X14730000Y-5950000D01*
X14730000Y-5910000D02*
X14690000Y-5950000D01*
X14820000Y-7190000D02*
X14860000Y-7230000D01*
X14860000Y-7190000D02*
X14820000Y-7230000D01*
X14930000Y-6660000D02*
X14970000Y-6700000D01*
X14970000Y-6660000D02*
X14930000Y-6700000D01*
X14930000Y-7370000D02*
X14970000Y-7410000D01*
X14970000Y-7370000D02*
X14930000Y-7410000D01*
X14930000Y-8190000D02*
X14970000Y-8230000D01*
X14970000Y-8190000D02*
X14930000Y-8230000D01*
X14931250Y-7732500D02*
X14971250Y-7772500D01*
X14971250Y-7732500D02*
X14931250Y-7772500D01*
X14940000Y-4630000D02*
X14980000Y-4670000D01*
X14980000Y-4630000D02*
X14940000Y-4670000D01*
X15020000Y-6520000D02*
X15060000Y-6560000D01*
X15060000Y-6520000D02*
X15020000Y-6560000D01*
X15020000Y-7190000D02*
X15060000Y-7230000D01*
X15060000Y-7190000D02*
X15020000Y-7230000D01*
X15140000Y-5910000D02*
X15180000Y-5950000D01*
X15180000Y-5910000D02*
X15140000Y-5950000D01*
X15220000Y-9190000D02*
X15260000Y-9230000D01*
X15260000Y-9190000D02*
X15220000Y-9230000D01*
X15568750Y-7591250D02*
X15608750Y-7631250D01*
X15608750Y-7591250D02*
X15568750Y-7631250D01*
X15860000Y-7350000D02*
X15900000Y-7390000D01*
X15900000Y-7350000D02*
X15860000Y-7390000D01*
X15960000Y-6770000D02*
X16000000Y-6810000D01*
X16000000Y-6770000D02*
X15960000Y-6810000D01*
X16020000Y-9210000D02*
X16060000Y-9250000D01*
X16060000Y-9210000D02*
X16020000Y-9250000D01*
X16040000Y-5340000D02*
X16080000Y-5380000D01*
X16080000Y-5340000D02*
X16040000Y-5380000D01*
X16130000Y-7530000D02*
X16170000Y-7570000D01*
X16170000Y-7530000D02*
X16130000Y-7570000D01*
X16130000Y-7830000D02*
X16170000Y-7870000D01*
X16170000Y-7830000D02*
X16130000Y-7870000D01*
X16340000Y-10010000D02*
X16380000Y-10050000D01*
X16380000Y-10010000D02*
X16340000Y-10050000D01*
X16730000Y-9930000D02*
X16770000Y-9970000D01*
X16770000Y-9930000D02*
X16730000Y-9970000D01*
X16780000Y-4610000D02*
X16820000Y-4650000D01*
X16820000Y-4610000D02*
X16780000Y-4650000D01*
X16810000Y-6170000D02*
X16850000Y-6210000D01*
X16850000Y-6170000D02*
X16810000Y-6210000D01*
X16820000Y-8270000D02*
X16860000Y-8310000D01*
X16860000Y-8270000D02*
X16820000Y-8310000D01*
D13*
X12396000Y-8096000D02*
G75*
G03*
X12396000Y-8096000I-40000J0D01*
G01*
X12650000Y-7842000D02*
G75*
G03*
X12650000Y-7842000I-40000J0D01*
G01*
X12650000Y-8350000D02*
G75*
G03*
X12650000Y-8350000I-40000J0D01*
G01*
D14*
X11420000Y-7145000D02*
X11420000Y-7235000D01*
X11375000Y-7190000D02*
X11465000Y-7190000D01*
X13560000Y-6205000D02*
X13560000Y-6295000D01*
X13515000Y-6250000D02*
X13605000Y-6250000D01*
X13610000Y-9145000D02*
X13610000Y-9235000D01*
X13565000Y-9190000D02*
X13655000Y-9190000D01*
X14720000Y-7875000D02*
X14720000Y-7965000D01*
X14675000Y-7920000D02*
X14765000Y-7920000D01*
X15170000Y-5525000D02*
X15170000Y-5615000D01*
X15125000Y-5570000D02*
X15215000Y-5570000D01*
X15410000Y-7115000D02*
X15410000Y-7205000D01*
X15365000Y-7160000D02*
X15455000Y-7160000D01*
D15*
X11914956Y-4955356D02*
X11914956Y-4884644D01*
X11844244Y-4884644D01*
X11844244Y-4955356D01*
X11914956Y-4955356D01*
X12168956Y-4955356D02*
X12168956Y-4884644D01*
X12098244Y-4884644D01*
X12098244Y-4955356D01*
X12168956Y-4955356D01*
X12422956Y-4955356D02*
X12422956Y-4884644D01*
X12352244Y-4884644D01*
X12352244Y-4955356D01*
X12422956Y-4955356D01*
X12676956Y-4955356D02*
X12676956Y-4884644D01*
X12606244Y-4884644D01*
X12606244Y-4955356D01*
X12676956Y-4955356D01*
X12829356Y-9781356D02*
X12829356Y-9710644D01*
X12758644Y-9710644D01*
X12758644Y-9781356D01*
X12829356Y-9781356D01*
X12930956Y-4955356D02*
X12930956Y-4884644D01*
X12860244Y-4884644D01*
X12860244Y-4955356D01*
X12930956Y-4955356D01*
X13083356Y-9781356D02*
X13083356Y-9710644D01*
X13012644Y-9710644D01*
X13012644Y-9781356D01*
X13083356Y-9781356D01*
X13184956Y-4955356D02*
X13184956Y-4884644D01*
X13114244Y-4884644D01*
X13114244Y-4955356D01*
X13184956Y-4955356D01*
X13337356Y-9781356D02*
X13337356Y-9710644D01*
X13266644Y-9710644D01*
X13266644Y-9781356D01*
X13337356Y-9781356D01*
X13438956Y-4955356D02*
X13438956Y-4884644D01*
X13368244Y-4884644D01*
X13368244Y-4955356D01*
X13438956Y-4955356D01*
X13591356Y-9781356D02*
X13591356Y-9710644D01*
X13520644Y-9710644D01*
X13520644Y-9781356D01*
X13591356Y-9781356D01*
X13692956Y-4955356D02*
X13692956Y-4884644D01*
X13622244Y-4884644D01*
X13622244Y-4955356D01*
X13692956Y-4955356D01*
X13845356Y-9781356D02*
X13845356Y-9710644D01*
X13774644Y-9710644D01*
X13774644Y-9781356D01*
X13845356Y-9781356D01*
X13946956Y-4955356D02*
X13946956Y-4884644D01*
X13876244Y-4884644D01*
X13876244Y-4955356D01*
X13946956Y-4955356D01*
X14099356Y-9781356D02*
X14099356Y-9710644D01*
X14028644Y-9710644D01*
X14028644Y-9781356D01*
X14099356Y-9781356D01*
X14200956Y-4955356D02*
X14200956Y-4884644D01*
X14130244Y-4884644D01*
X14130244Y-4955356D01*
X14200956Y-4955356D01*
X14353356Y-9781356D02*
X14353356Y-9710644D01*
X14282644Y-9710644D01*
X14282644Y-9781356D01*
X14353356Y-9781356D01*
X14607356Y-4955356D02*
X14607356Y-4884644D01*
X14536644Y-4884644D01*
X14536644Y-4955356D01*
X14607356Y-4955356D01*
X14607356Y-9781356D02*
X14607356Y-9710644D01*
X14536644Y-9710644D01*
X14536644Y-9781356D01*
X14607356Y-9781356D01*
X14861356Y-4955356D02*
X14861356Y-4884644D01*
X14790644Y-4884644D01*
X14790644Y-4955356D01*
X14861356Y-4955356D01*
X15115356Y-4955356D02*
X15115356Y-4884644D01*
X15044644Y-4884644D01*
X15044644Y-4955356D01*
X15115356Y-4955356D01*
X15115356Y-9781356D02*
X15115356Y-9710644D01*
X15044644Y-9710644D01*
X15044644Y-9781356D01*
X15115356Y-9781356D01*
X15369356Y-4955356D02*
X15369356Y-4884644D01*
X15298644Y-4884644D01*
X15298644Y-4955356D01*
X15369356Y-4955356D01*
X15369356Y-9781356D02*
X15369356Y-9710644D01*
X15298644Y-9710644D01*
X15298644Y-9781356D01*
X15369356Y-9781356D01*
X15623356Y-4955356D02*
X15623356Y-4884644D01*
X15552644Y-4884644D01*
X15552644Y-4955356D01*
X15623356Y-4955356D01*
X15623356Y-9781356D02*
X15623356Y-9710644D01*
X15552644Y-9710644D01*
X15552644Y-9781356D01*
X15623356Y-9781356D01*
X15877356Y-4955356D02*
X15877356Y-4884644D01*
X15806644Y-4884644D01*
X15806644Y-4955356D01*
X15877356Y-4955356D01*
X15877356Y-9781356D02*
X15877356Y-9710644D01*
X15806644Y-9710644D01*
X15806644Y-9781356D01*
X15877356Y-9781356D01*
X16131356Y-4955356D02*
X16131356Y-4884644D01*
X16060644Y-4884644D01*
X16060644Y-4955356D01*
X16131356Y-4955356D01*
X16131356Y-9781356D02*
X16131356Y-9710644D01*
X16060644Y-9710644D01*
X16060644Y-9781356D01*
X16131356Y-9781356D01*
X16258356Y-8236356D02*
X16258356Y-8165644D01*
X16187644Y-8165644D01*
X16187644Y-8236356D01*
X16258356Y-8236356D01*
X16258356Y-8786356D02*
X16258356Y-8715644D01*
X16187644Y-8715644D01*
X16187644Y-8786356D01*
X16258356Y-8786356D01*
X16385356Y-4955356D02*
X16385356Y-4884644D01*
X16314644Y-4884644D01*
X16314644Y-4955356D01*
X16385356Y-4955356D01*
X16385356Y-9781356D02*
X16385356Y-9710644D01*
X16314644Y-9710644D01*
X16314644Y-9781356D01*
X16385356Y-9781356D01*
X16395356Y-5691356D02*
X16395356Y-5620644D01*
X16324644Y-5620644D01*
X16324644Y-5691356D01*
X16395356Y-5691356D01*
X16395356Y-5945356D02*
X16395356Y-5874644D01*
X16324644Y-5874644D01*
X16324644Y-5945356D01*
X16395356Y-5945356D01*
X16512356Y-8236356D02*
X16512356Y-8165644D01*
X16441644Y-8165644D01*
X16441644Y-8236356D01*
X16512356Y-8236356D01*
X16512356Y-8786356D02*
X16512356Y-8715644D01*
X16441644Y-8715644D01*
X16441644Y-8786356D01*
X16512356Y-8786356D01*
D11*
X11270119Y-10427976D02*
X11270119Y-10227976D01*
X11317738Y-10227976D01*
X11346309Y-10237500D01*
X11365357Y-10256548D01*
X11374881Y-10275595D01*
X11384405Y-10313690D01*
X11384405Y-10342262D01*
X11374881Y-10380357D01*
X11365357Y-10399405D01*
X11346309Y-10418452D01*
X11317738Y-10427976D01*
X11270119Y-10427976D01*
X11470119Y-10427976D02*
X11470119Y-10294643D01*
X11470119Y-10332738D02*
X11479643Y-10313690D01*
X11489167Y-10304167D01*
X11508214Y-10294643D01*
X11527262Y-10294643D01*
X11593928Y-10427976D02*
X11593928Y-10294643D01*
X11593928Y-10227976D02*
X11584405Y-10237500D01*
X11593928Y-10247024D01*
X11603452Y-10237500D01*
X11593928Y-10227976D01*
X11593928Y-10247024D01*
X11717738Y-10427976D02*
X11698690Y-10418452D01*
X11689167Y-10399405D01*
X11689167Y-10227976D01*
X11822500Y-10427976D02*
X11803452Y-10418452D01*
X11793928Y-10399405D01*
X11793928Y-10227976D01*
X12051071Y-10427976D02*
X12051071Y-10227976D01*
X12117738Y-10370833D01*
X12184405Y-10227976D01*
X12184405Y-10427976D01*
X12365357Y-10427976D02*
X12365357Y-10323214D01*
X12355833Y-10304167D01*
X12336786Y-10294643D01*
X12298690Y-10294643D01*
X12279643Y-10304167D01*
X12365357Y-10418452D02*
X12346309Y-10427976D01*
X12298690Y-10427976D01*
X12279643Y-10418452D01*
X12270119Y-10399405D01*
X12270119Y-10380357D01*
X12279643Y-10361310D01*
X12298690Y-10351786D01*
X12346309Y-10351786D01*
X12365357Y-10342262D01*
X12460595Y-10294643D02*
X12460595Y-10494643D01*
X12460595Y-10304167D02*
X12479643Y-10294643D01*
X12517738Y-10294643D01*
X12536786Y-10304167D01*
X12546309Y-10313690D01*
X12555833Y-10332738D01*
X12555833Y-10389881D01*
X12546309Y-10408929D01*
X12536786Y-10418452D01*
X12517738Y-10427976D01*
X12479643Y-10427976D01*
X12460595Y-10418452D01*
X12641548Y-10408929D02*
X12651071Y-10418452D01*
X12641548Y-10427976D01*
X12632024Y-10418452D01*
X12641548Y-10408929D01*
X12641548Y-10427976D01*
X12641548Y-10304167D02*
X12651071Y-10313690D01*
X12641548Y-10323214D01*
X12632024Y-10313690D01*
X12641548Y-10304167D01*
X12641548Y-10323214D01*
D12*
X10972500Y-10737500D02*
X11012500Y-10777500D01*
X11012500Y-10737500D02*
X10972500Y-10777500D01*
D11*
X11308214Y-10647976D02*
X11327262Y-10647976D01*
X11346309Y-10657500D01*
X11355833Y-10667024D01*
X11365357Y-10686071D01*
X11374881Y-10724167D01*
X11374881Y-10771786D01*
X11365357Y-10809881D01*
X11355833Y-10828929D01*
X11346309Y-10838452D01*
X11327262Y-10847976D01*
X11308214Y-10847976D01*
X11289167Y-10838452D01*
X11279643Y-10828929D01*
X11270119Y-10809881D01*
X11260595Y-10771786D01*
X11260595Y-10724167D01*
X11270119Y-10686071D01*
X11279643Y-10667024D01*
X11289167Y-10657500D01*
X11308214Y-10647976D01*
X11460595Y-10828929D02*
X11470119Y-10838452D01*
X11460595Y-10847976D01*
X11451071Y-10838452D01*
X11460595Y-10828929D01*
X11460595Y-10847976D01*
X11641548Y-10714643D02*
X11641548Y-10847976D01*
X11593928Y-10638452D02*
X11546309Y-10781310D01*
X11670119Y-10781310D01*
X11784405Y-10647976D02*
X11803452Y-10647976D01*
X11822500Y-10657500D01*
X11832024Y-10667024D01*
X11841548Y-10686071D01*
X11851071Y-10724167D01*
X11851071Y-10771786D01*
X11841548Y-10809881D01*
X11832024Y-10828929D01*
X11822500Y-10838452D01*
X11803452Y-10847976D01*
X11784405Y-10847976D01*
X11765357Y-10838452D01*
X11755833Y-10828929D01*
X11746309Y-10809881D01*
X11736786Y-10771786D01*
X11736786Y-10724167D01*
X11746309Y-10686071D01*
X11755833Y-10667024D01*
X11765357Y-10657500D01*
X11784405Y-10647976D01*
X11974881Y-10647976D02*
X11993928Y-10647976D01*
X12012976Y-10657500D01*
X12022500Y-10667024D01*
X12032024Y-10686071D01*
X12041548Y-10724167D01*
X12041548Y-10771786D01*
X12032024Y-10809881D01*
X12022500Y-10828929D01*
X12012976Y-10838452D01*
X11993928Y-10847976D01*
X11974881Y-10847976D01*
X11955833Y-10838452D01*
X11946309Y-10828929D01*
X11936786Y-10809881D01*
X11927262Y-10771786D01*
X11927262Y-10724167D01*
X11936786Y-10686071D01*
X11946309Y-10667024D01*
X11955833Y-10657500D01*
X11974881Y-10647976D01*
X12127262Y-10847976D02*
X12127262Y-10714643D01*
X12127262Y-10733690D02*
X12136786Y-10724167D01*
X12155833Y-10714643D01*
X12184405Y-10714643D01*
X12203452Y-10724167D01*
X12212976Y-10743214D01*
X12212976Y-10847976D01*
X12212976Y-10743214D02*
X12222500Y-10724167D01*
X12241548Y-10714643D01*
X12270119Y-10714643D01*
X12289167Y-10724167D01*
X12298690Y-10743214D01*
X12298690Y-10847976D01*
X12393928Y-10847976D02*
X12393928Y-10714643D01*
X12393928Y-10733690D02*
X12403452Y-10724167D01*
X12422500Y-10714643D01*
X12451071Y-10714643D01*
X12470119Y-10724167D01*
X12479643Y-10743214D01*
X12479643Y-10847976D01*
X12479643Y-10743214D02*
X12489167Y-10724167D01*
X12508214Y-10714643D01*
X12536786Y-10714643D01*
X12555833Y-10724167D01*
X12565357Y-10743214D01*
X12565357Y-10847976D01*
X12955833Y-10638452D02*
X12784405Y-10895595D01*
X13212976Y-10647976D02*
X13232024Y-10647976D01*
X13251071Y-10657500D01*
X13260595Y-10667024D01*
X13270119Y-10686071D01*
X13279643Y-10724167D01*
X13279643Y-10771786D01*
X13270119Y-10809881D01*
X13260595Y-10828929D01*
X13251071Y-10838452D01*
X13232024Y-10847976D01*
X13212976Y-10847976D01*
X13193928Y-10838452D01*
X13184405Y-10828929D01*
X13174881Y-10809881D01*
X13165357Y-10771786D01*
X13165357Y-10724167D01*
X13174881Y-10686071D01*
X13184405Y-10667024D01*
X13193928Y-10657500D01*
X13212976Y-10647976D01*
X13365357Y-10828929D02*
X13374881Y-10838452D01*
X13365357Y-10847976D01*
X13355833Y-10838452D01*
X13365357Y-10828929D01*
X13365357Y-10847976D01*
X13498690Y-10647976D02*
X13517738Y-10647976D01*
X13536786Y-10657500D01*
X13546309Y-10667024D01*
X13555833Y-10686071D01*
X13565357Y-10724167D01*
X13565357Y-10771786D01*
X13555833Y-10809881D01*
X13546309Y-10828929D01*
X13536786Y-10838452D01*
X13517738Y-10847976D01*
X13498690Y-10847976D01*
X13479643Y-10838452D01*
X13470119Y-10828929D01*
X13460595Y-10809881D01*
X13451071Y-10771786D01*
X13451071Y-10724167D01*
X13460595Y-10686071D01*
X13470119Y-10667024D01*
X13479643Y-10657500D01*
X13498690Y-10647976D01*
X13755833Y-10847976D02*
X13641548Y-10847976D01*
X13698690Y-10847976D02*
X13698690Y-10647976D01*
X13679643Y-10676548D01*
X13660595Y-10695595D01*
X13641548Y-10705119D01*
X13936786Y-10647976D02*
X13841548Y-10647976D01*
X13832024Y-10743214D01*
X13841548Y-10733690D01*
X13860595Y-10724167D01*
X13908214Y-10724167D01*
X13927262Y-10733690D01*
X13936786Y-10743214D01*
X13946309Y-10762262D01*
X13946309Y-10809881D01*
X13936786Y-10828929D01*
X13927262Y-10838452D01*
X13908214Y-10847976D01*
X13860595Y-10847976D01*
X13841548Y-10838452D01*
X13832024Y-10828929D01*
X14012976Y-10647976D02*
X14146309Y-10647976D01*
X14060595Y-10847976D01*
X14212976Y-10647976D02*
X14212976Y-10686071D01*
X14289167Y-10647976D02*
X14289167Y-10686071D01*
X14584405Y-10924167D02*
X14574881Y-10914643D01*
X14555833Y-10886071D01*
X14546309Y-10867024D01*
X14536786Y-10838452D01*
X14527262Y-10790833D01*
X14527262Y-10752738D01*
X14536786Y-10705119D01*
X14546309Y-10676548D01*
X14555833Y-10657500D01*
X14574881Y-10628929D01*
X14584405Y-10619405D01*
X14746309Y-10647976D02*
X14708214Y-10647976D01*
X14689167Y-10657500D01*
X14679643Y-10667024D01*
X14660595Y-10695595D01*
X14651071Y-10733690D01*
X14651071Y-10809881D01*
X14660595Y-10828929D01*
X14670119Y-10838452D01*
X14689167Y-10847976D01*
X14727262Y-10847976D01*
X14746309Y-10838452D01*
X14755833Y-10828929D01*
X14765357Y-10809881D01*
X14765357Y-10762262D01*
X14755833Y-10743214D01*
X14746309Y-10733690D01*
X14727262Y-10724167D01*
X14689167Y-10724167D01*
X14670119Y-10733690D01*
X14660595Y-10743214D01*
X14651071Y-10762262D01*
X14889167Y-10647976D02*
X14908214Y-10647976D01*
X14927262Y-10657500D01*
X14936786Y-10667024D01*
X14946309Y-10686071D01*
X14955833Y-10724167D01*
X14955833Y-10771786D01*
X14946309Y-10809881D01*
X14936786Y-10828929D01*
X14927262Y-10838452D01*
X14908214Y-10847976D01*
X14889167Y-10847976D01*
X14870119Y-10838452D01*
X14860595Y-10828929D01*
X14851071Y-10809881D01*
X14841548Y-10771786D01*
X14841548Y-10724167D01*
X14851071Y-10686071D01*
X14860595Y-10667024D01*
X14870119Y-10657500D01*
X14889167Y-10647976D01*
X15193928Y-10847976D02*
X15193928Y-10647976D01*
X15279643Y-10847976D02*
X15279643Y-10743214D01*
X15270119Y-10724167D01*
X15251071Y-10714643D01*
X15222500Y-10714643D01*
X15203452Y-10724167D01*
X15193928Y-10733690D01*
X15403452Y-10847976D02*
X15384405Y-10838452D01*
X15374881Y-10828929D01*
X15365357Y-10809881D01*
X15365357Y-10752738D01*
X15374881Y-10733690D01*
X15384405Y-10724167D01*
X15403452Y-10714643D01*
X15432024Y-10714643D01*
X15451071Y-10724167D01*
X15460595Y-10733690D01*
X15470119Y-10752738D01*
X15470119Y-10809881D01*
X15460595Y-10828929D01*
X15451071Y-10838452D01*
X15432024Y-10847976D01*
X15403452Y-10847976D01*
X15584405Y-10847976D02*
X15565357Y-10838452D01*
X15555833Y-10819405D01*
X15555833Y-10647976D01*
X15736786Y-10838452D02*
X15717738Y-10847976D01*
X15679643Y-10847976D01*
X15660595Y-10838452D01*
X15651071Y-10819405D01*
X15651071Y-10743214D01*
X15660595Y-10724167D01*
X15679643Y-10714643D01*
X15717738Y-10714643D01*
X15736786Y-10724167D01*
X15746309Y-10743214D01*
X15746309Y-10762262D01*
X15651071Y-10781310D01*
X15822500Y-10838452D02*
X15841548Y-10847976D01*
X15879643Y-10847976D01*
X15898690Y-10838452D01*
X15908214Y-10819405D01*
X15908214Y-10809881D01*
X15898690Y-10790833D01*
X15879643Y-10781310D01*
X15851071Y-10781310D01*
X15832024Y-10771786D01*
X15822500Y-10752738D01*
X15822500Y-10743214D01*
X15832024Y-10724167D01*
X15851071Y-10714643D01*
X15879643Y-10714643D01*
X15898690Y-10724167D01*
X15974881Y-10924167D02*
X15984405Y-10914643D01*
X16003452Y-10886071D01*
X16012976Y-10867024D01*
X16022500Y-10838452D01*
X16032024Y-10790833D01*
X16032024Y-10752738D01*
X16022500Y-10705119D01*
X16012976Y-10676548D01*
X16003452Y-10657500D01*
X15984405Y-10628929D01*
X15974881Y-10619405D01*
D13*
X11012500Y-11021500D02*
G75*
G03*
X11012500Y-11021500I-40000J0D01*
G01*
D11*
X11308214Y-10911976D02*
X11327262Y-10911976D01*
X11346309Y-10921500D01*
X11355833Y-10931024D01*
X11365357Y-10950071D01*
X11374881Y-10988167D01*
X11374881Y-11035786D01*
X11365357Y-11073881D01*
X11355833Y-11092929D01*
X11346309Y-11102452D01*
X11327262Y-11111976D01*
X11308214Y-11111976D01*
X11289167Y-11102452D01*
X11279643Y-11092929D01*
X11270119Y-11073881D01*
X11260595Y-11035786D01*
X11260595Y-10988167D01*
X11270119Y-10950071D01*
X11279643Y-10931024D01*
X11289167Y-10921500D01*
X11308214Y-10911976D01*
X11460595Y-11092929D02*
X11470119Y-11102452D01*
X11460595Y-11111976D01*
X11451071Y-11102452D01*
X11460595Y-11092929D01*
X11460595Y-11111976D01*
X11584405Y-10997690D02*
X11565357Y-10988167D01*
X11555833Y-10978643D01*
X11546309Y-10959595D01*
X11546309Y-10950071D01*
X11555833Y-10931024D01*
X11565357Y-10921500D01*
X11584405Y-10911976D01*
X11622500Y-10911976D01*
X11641548Y-10921500D01*
X11651071Y-10931024D01*
X11660595Y-10950071D01*
X11660595Y-10959595D01*
X11651071Y-10978643D01*
X11641548Y-10988167D01*
X11622500Y-10997690D01*
X11584405Y-10997690D01*
X11565357Y-11007214D01*
X11555833Y-11016738D01*
X11546309Y-11035786D01*
X11546309Y-11073881D01*
X11555833Y-11092929D01*
X11565357Y-11102452D01*
X11584405Y-11111976D01*
X11622500Y-11111976D01*
X11641548Y-11102452D01*
X11651071Y-11092929D01*
X11660595Y-11073881D01*
X11660595Y-11035786D01*
X11651071Y-11016738D01*
X11641548Y-11007214D01*
X11622500Y-10997690D01*
X11784405Y-10911976D02*
X11803452Y-10911976D01*
X11822500Y-10921500D01*
X11832024Y-10931024D01*
X11841548Y-10950071D01*
X11851071Y-10988167D01*
X11851071Y-11035786D01*
X11841548Y-11073881D01*
X11832024Y-11092929D01*
X11822500Y-11102452D01*
X11803452Y-11111976D01*
X11784405Y-11111976D01*
X11765357Y-11102452D01*
X11755833Y-11092929D01*
X11746309Y-11073881D01*
X11736786Y-11035786D01*
X11736786Y-10988167D01*
X11746309Y-10950071D01*
X11755833Y-10931024D01*
X11765357Y-10921500D01*
X11784405Y-10911976D01*
X11974881Y-10911976D02*
X11993928Y-10911976D01*
X12012976Y-10921500D01*
X12022500Y-10931024D01*
X12032024Y-10950071D01*
X12041548Y-10988167D01*
X12041548Y-11035786D01*
X12032024Y-11073881D01*
X12022500Y-11092929D01*
X12012976Y-11102452D01*
X11993928Y-11111976D01*
X11974881Y-11111976D01*
X11955833Y-11102452D01*
X11946309Y-11092929D01*
X11936786Y-11073881D01*
X11927262Y-11035786D01*
X11927262Y-10988167D01*
X11936786Y-10950071D01*
X11946309Y-10931024D01*
X11955833Y-10921500D01*
X11974881Y-10911976D01*
X12127262Y-11111976D02*
X12127262Y-10978643D01*
X12127262Y-10997690D02*
X12136786Y-10988167D01*
X12155833Y-10978643D01*
X12184405Y-10978643D01*
X12203452Y-10988167D01*
X12212976Y-11007214D01*
X12212976Y-11111976D01*
X12212976Y-11007214D02*
X12222500Y-10988167D01*
X12241548Y-10978643D01*
X12270119Y-10978643D01*
X12289167Y-10988167D01*
X12298690Y-11007214D01*
X12298690Y-11111976D01*
X12393928Y-11111976D02*
X12393928Y-10978643D01*
X12393928Y-10997690D02*
X12403452Y-10988167D01*
X12422500Y-10978643D01*
X12451071Y-10978643D01*
X12470119Y-10988167D01*
X12479643Y-11007214D01*
X12479643Y-11111976D01*
X12479643Y-11007214D02*
X12489167Y-10988167D01*
X12508214Y-10978643D01*
X12536786Y-10978643D01*
X12555833Y-10988167D01*
X12565357Y-11007214D01*
X12565357Y-11111976D01*
X12955833Y-10902452D02*
X12784405Y-11159595D01*
X13212976Y-10911976D02*
X13232024Y-10911976D01*
X13251071Y-10921500D01*
X13260595Y-10931024D01*
X13270119Y-10950071D01*
X13279643Y-10988167D01*
X13279643Y-11035786D01*
X13270119Y-11073881D01*
X13260595Y-11092929D01*
X13251071Y-11102452D01*
X13232024Y-11111976D01*
X13212976Y-11111976D01*
X13193928Y-11102452D01*
X13184405Y-11092929D01*
X13174881Y-11073881D01*
X13165357Y-11035786D01*
X13165357Y-10988167D01*
X13174881Y-10950071D01*
X13184405Y-10931024D01*
X13193928Y-10921500D01*
X13212976Y-10911976D01*
X13365357Y-11092929D02*
X13374881Y-11102452D01*
X13365357Y-11111976D01*
X13355833Y-11102452D01*
X13365357Y-11092929D01*
X13365357Y-11111976D01*
X13498690Y-10911976D02*
X13517738Y-10911976D01*
X13536786Y-10921500D01*
X13546309Y-10931024D01*
X13555833Y-10950071D01*
X13565357Y-10988167D01*
X13565357Y-11035786D01*
X13555833Y-11073881D01*
X13546309Y-11092929D01*
X13536786Y-11102452D01*
X13517738Y-11111976D01*
X13498690Y-11111976D01*
X13479643Y-11102452D01*
X13470119Y-11092929D01*
X13460595Y-11073881D01*
X13451071Y-11035786D01*
X13451071Y-10988167D01*
X13460595Y-10950071D01*
X13470119Y-10931024D01*
X13479643Y-10921500D01*
X13498690Y-10911976D01*
X13632024Y-10911976D02*
X13755833Y-10911976D01*
X13689167Y-10988167D01*
X13717738Y-10988167D01*
X13736786Y-10997690D01*
X13746309Y-11007214D01*
X13755833Y-11026262D01*
X13755833Y-11073881D01*
X13746309Y-11092929D01*
X13736786Y-11102452D01*
X13717738Y-11111976D01*
X13660595Y-11111976D01*
X13641548Y-11102452D01*
X13632024Y-11092929D01*
X13946309Y-11111976D02*
X13832024Y-11111976D01*
X13889167Y-11111976D02*
X13889167Y-10911976D01*
X13870119Y-10940548D01*
X13851071Y-10959595D01*
X13832024Y-10969119D01*
X14127262Y-10911976D02*
X14032024Y-10911976D01*
X14022500Y-11007214D01*
X14032024Y-10997690D01*
X14051071Y-10988167D01*
X14098690Y-10988167D01*
X14117738Y-10997690D01*
X14127262Y-11007214D01*
X14136786Y-11026262D01*
X14136786Y-11073881D01*
X14127262Y-11092929D01*
X14117738Y-11102452D01*
X14098690Y-11111976D01*
X14051071Y-11111976D01*
X14032024Y-11102452D01*
X14022500Y-11092929D01*
X14212976Y-10911976D02*
X14212976Y-10950071D01*
X14289167Y-10911976D02*
X14289167Y-10950071D01*
X14584405Y-11188167D02*
X14574881Y-11178643D01*
X14555833Y-11150071D01*
X14546309Y-11131024D01*
X14536786Y-11102452D01*
X14527262Y-11054833D01*
X14527262Y-11016738D01*
X14536786Y-10969119D01*
X14546309Y-10940548D01*
X14555833Y-10921500D01*
X14574881Y-10892929D01*
X14584405Y-10883405D01*
X14641548Y-10911976D02*
X14765357Y-10911976D01*
X14698690Y-10988167D01*
X14727262Y-10988167D01*
X14746309Y-10997690D01*
X14755833Y-11007214D01*
X14765357Y-11026262D01*
X14765357Y-11073881D01*
X14755833Y-11092929D01*
X14746309Y-11102452D01*
X14727262Y-11111976D01*
X14670119Y-11111976D01*
X14651071Y-11102452D01*
X14641548Y-11092929D01*
X15003452Y-11111976D02*
X15003452Y-10911976D01*
X15089167Y-11111976D02*
X15089167Y-11007214D01*
X15079643Y-10988167D01*
X15060595Y-10978643D01*
X15032024Y-10978643D01*
X15012976Y-10988167D01*
X15003452Y-10997690D01*
X15212976Y-11111976D02*
X15193928Y-11102452D01*
X15184405Y-11092929D01*
X15174881Y-11073881D01*
X15174881Y-11016738D01*
X15184405Y-10997690D01*
X15193928Y-10988167D01*
X15212976Y-10978643D01*
X15241548Y-10978643D01*
X15260595Y-10988167D01*
X15270119Y-10997690D01*
X15279643Y-11016738D01*
X15279643Y-11073881D01*
X15270119Y-11092929D01*
X15260595Y-11102452D01*
X15241548Y-11111976D01*
X15212976Y-11111976D01*
X15393928Y-11111976D02*
X15374881Y-11102452D01*
X15365357Y-11083405D01*
X15365357Y-10911976D01*
X15546309Y-11102452D02*
X15527262Y-11111976D01*
X15489167Y-11111976D01*
X15470119Y-11102452D01*
X15460595Y-11083405D01*
X15460595Y-11007214D01*
X15470119Y-10988167D01*
X15489167Y-10978643D01*
X15527262Y-10978643D01*
X15546309Y-10988167D01*
X15555833Y-11007214D01*
X15555833Y-11026262D01*
X15460595Y-11045310D01*
X15632024Y-11102452D02*
X15651071Y-11111976D01*
X15689167Y-11111976D01*
X15708214Y-11102452D01*
X15717738Y-11083405D01*
X15717738Y-11073881D01*
X15708214Y-11054833D01*
X15689167Y-11045310D01*
X15660595Y-11045310D01*
X15641548Y-11035786D01*
X15632024Y-11016738D01*
X15632024Y-11007214D01*
X15641548Y-10988167D01*
X15660595Y-10978643D01*
X15689167Y-10978643D01*
X15708214Y-10988167D01*
X15784405Y-11188167D02*
X15793928Y-11178643D01*
X15812976Y-11150071D01*
X15822500Y-11131024D01*
X15832024Y-11102452D01*
X15841548Y-11054833D01*
X15841548Y-11016738D01*
X15832024Y-10969119D01*
X15822500Y-10940548D01*
X15812976Y-10921500D01*
X15793928Y-10892929D01*
X15784405Y-10883405D01*
D14*
X10967500Y-11240500D02*
X10967500Y-11330500D01*
X10922500Y-11285500D02*
X11012500Y-11285500D01*
D11*
X11308214Y-11175976D02*
X11327262Y-11175976D01*
X11346309Y-11185500D01*
X11355833Y-11195024D01*
X11365357Y-11214071D01*
X11374881Y-11252167D01*
X11374881Y-11299786D01*
X11365357Y-11337881D01*
X11355833Y-11356928D01*
X11346309Y-11366452D01*
X11327262Y-11375976D01*
X11308214Y-11375976D01*
X11289167Y-11366452D01*
X11279643Y-11356928D01*
X11270119Y-11337881D01*
X11260595Y-11299786D01*
X11260595Y-11252167D01*
X11270119Y-11214071D01*
X11279643Y-11195024D01*
X11289167Y-11185500D01*
X11308214Y-11175976D01*
X11460595Y-11356928D02*
X11470119Y-11366452D01*
X11460595Y-11375976D01*
X11451071Y-11366452D01*
X11460595Y-11356928D01*
X11460595Y-11375976D01*
X11565357Y-11375976D02*
X11603452Y-11375976D01*
X11622500Y-11366452D01*
X11632024Y-11356928D01*
X11651071Y-11328357D01*
X11660595Y-11290262D01*
X11660595Y-11214071D01*
X11651071Y-11195024D01*
X11641548Y-11185500D01*
X11622500Y-11175976D01*
X11584405Y-11175976D01*
X11565357Y-11185500D01*
X11555833Y-11195024D01*
X11546309Y-11214071D01*
X11546309Y-11261690D01*
X11555833Y-11280738D01*
X11565357Y-11290262D01*
X11584405Y-11299786D01*
X11622500Y-11299786D01*
X11641548Y-11290262D01*
X11651071Y-11280738D01*
X11660595Y-11261690D01*
X11784405Y-11175976D02*
X11803452Y-11175976D01*
X11822500Y-11185500D01*
X11832024Y-11195024D01*
X11841548Y-11214071D01*
X11851071Y-11252167D01*
X11851071Y-11299786D01*
X11841548Y-11337881D01*
X11832024Y-11356928D01*
X11822500Y-11366452D01*
X11803452Y-11375976D01*
X11784405Y-11375976D01*
X11765357Y-11366452D01*
X11755833Y-11356928D01*
X11746309Y-11337881D01*
X11736786Y-11299786D01*
X11736786Y-11252167D01*
X11746309Y-11214071D01*
X11755833Y-11195024D01*
X11765357Y-11185500D01*
X11784405Y-11175976D01*
X11974881Y-11175976D02*
X11993928Y-11175976D01*
X12012976Y-11185500D01*
X12022500Y-11195024D01*
X12032024Y-11214071D01*
X12041548Y-11252167D01*
X12041548Y-11299786D01*
X12032024Y-11337881D01*
X12022500Y-11356928D01*
X12012976Y-11366452D01*
X11993928Y-11375976D01*
X11974881Y-11375976D01*
X11955833Y-11366452D01*
X11946309Y-11356928D01*
X11936786Y-11337881D01*
X11927262Y-11299786D01*
X11927262Y-11252167D01*
X11936786Y-11214071D01*
X11946309Y-11195024D01*
X11955833Y-11185500D01*
X11974881Y-11175976D01*
X12127262Y-11375976D02*
X12127262Y-11242643D01*
X12127262Y-11261690D02*
X12136786Y-11252167D01*
X12155833Y-11242643D01*
X12184405Y-11242643D01*
X12203452Y-11252167D01*
X12212976Y-11271214D01*
X12212976Y-11375976D01*
X12212976Y-11271214D02*
X12222500Y-11252167D01*
X12241548Y-11242643D01*
X12270119Y-11242643D01*
X12289167Y-11252167D01*
X12298690Y-11271214D01*
X12298690Y-11375976D01*
X12393928Y-11375976D02*
X12393928Y-11242643D01*
X12393928Y-11261690D02*
X12403452Y-11252167D01*
X12422500Y-11242643D01*
X12451071Y-11242643D01*
X12470119Y-11252167D01*
X12479643Y-11271214D01*
X12479643Y-11375976D01*
X12479643Y-11271214D02*
X12489167Y-11252167D01*
X12508214Y-11242643D01*
X12536786Y-11242643D01*
X12555833Y-11252167D01*
X12565357Y-11271214D01*
X12565357Y-11375976D01*
X12955833Y-11166452D02*
X12784405Y-11423595D01*
X13212976Y-11175976D02*
X13232024Y-11175976D01*
X13251071Y-11185500D01*
X13260595Y-11195024D01*
X13270119Y-11214071D01*
X13279643Y-11252167D01*
X13279643Y-11299786D01*
X13270119Y-11337881D01*
X13260595Y-11356928D01*
X13251071Y-11366452D01*
X13232024Y-11375976D01*
X13212976Y-11375976D01*
X13193928Y-11366452D01*
X13184405Y-11356928D01*
X13174881Y-11337881D01*
X13165357Y-11299786D01*
X13165357Y-11252167D01*
X13174881Y-11214071D01*
X13184405Y-11195024D01*
X13193928Y-11185500D01*
X13212976Y-11175976D01*
X13365357Y-11356928D02*
X13374881Y-11366452D01*
X13365357Y-11375976D01*
X13355833Y-11366452D01*
X13365357Y-11356928D01*
X13365357Y-11375976D01*
X13498690Y-11175976D02*
X13517738Y-11175976D01*
X13536786Y-11185500D01*
X13546309Y-11195024D01*
X13555833Y-11214071D01*
X13565357Y-11252167D01*
X13565357Y-11299786D01*
X13555833Y-11337881D01*
X13546309Y-11356928D01*
X13536786Y-11366452D01*
X13517738Y-11375976D01*
X13498690Y-11375976D01*
X13479643Y-11366452D01*
X13470119Y-11356928D01*
X13460595Y-11337881D01*
X13451071Y-11299786D01*
X13451071Y-11252167D01*
X13460595Y-11214071D01*
X13470119Y-11195024D01*
X13479643Y-11185500D01*
X13498690Y-11175976D01*
X13632024Y-11175976D02*
X13755833Y-11175976D01*
X13689167Y-11252167D01*
X13717738Y-11252167D01*
X13736786Y-11261690D01*
X13746309Y-11271214D01*
X13755833Y-11290262D01*
X13755833Y-11337881D01*
X13746309Y-11356928D01*
X13736786Y-11366452D01*
X13717738Y-11375976D01*
X13660595Y-11375976D01*
X13641548Y-11366452D01*
X13632024Y-11356928D01*
X13936786Y-11175976D02*
X13841548Y-11175976D01*
X13832024Y-11271214D01*
X13841548Y-11261690D01*
X13860595Y-11252167D01*
X13908214Y-11252167D01*
X13927262Y-11261690D01*
X13936786Y-11271214D01*
X13946309Y-11290262D01*
X13946309Y-11337881D01*
X13936786Y-11356928D01*
X13927262Y-11366452D01*
X13908214Y-11375976D01*
X13860595Y-11375976D01*
X13841548Y-11366452D01*
X13832024Y-11356928D01*
X14117738Y-11242643D02*
X14117738Y-11375976D01*
X14070119Y-11166452D02*
X14022500Y-11309309D01*
X14146309Y-11309309D01*
X14212976Y-11175976D02*
X14212976Y-11214071D01*
X14289167Y-11175976D02*
X14289167Y-11214071D01*
X14584405Y-11452167D02*
X14574881Y-11442643D01*
X14555833Y-11414071D01*
X14546309Y-11395024D01*
X14536786Y-11366452D01*
X14527262Y-11318833D01*
X14527262Y-11280738D01*
X14536786Y-11233119D01*
X14546309Y-11204548D01*
X14555833Y-11185500D01*
X14574881Y-11156929D01*
X14584405Y-11147405D01*
X14746309Y-11175976D02*
X14708214Y-11175976D01*
X14689167Y-11185500D01*
X14679643Y-11195024D01*
X14660595Y-11223595D01*
X14651071Y-11261690D01*
X14651071Y-11337881D01*
X14660595Y-11356928D01*
X14670119Y-11366452D01*
X14689167Y-11375976D01*
X14727262Y-11375976D01*
X14746309Y-11366452D01*
X14755833Y-11356928D01*
X14765357Y-11337881D01*
X14765357Y-11290262D01*
X14755833Y-11271214D01*
X14746309Y-11261690D01*
X14727262Y-11252167D01*
X14689167Y-11252167D01*
X14670119Y-11261690D01*
X14660595Y-11271214D01*
X14651071Y-11290262D01*
X15003452Y-11375976D02*
X15003452Y-11175976D01*
X15089167Y-11375976D02*
X15089167Y-11271214D01*
X15079643Y-11252167D01*
X15060595Y-11242643D01*
X15032024Y-11242643D01*
X15012976Y-11252167D01*
X15003452Y-11261690D01*
X15212976Y-11375976D02*
X15193928Y-11366452D01*
X15184405Y-11356928D01*
X15174881Y-11337881D01*
X15174881Y-11280738D01*
X15184405Y-11261690D01*
X15193928Y-11252167D01*
X15212976Y-11242643D01*
X15241548Y-11242643D01*
X15260595Y-11252167D01*
X15270119Y-11261690D01*
X15279643Y-11280738D01*
X15279643Y-11337881D01*
X15270119Y-11356928D01*
X15260595Y-11366452D01*
X15241548Y-11375976D01*
X15212976Y-11375976D01*
X15393928Y-11375976D02*
X15374881Y-11366452D01*
X15365357Y-11347405D01*
X15365357Y-11175976D01*
X15546309Y-11366452D02*
X15527262Y-11375976D01*
X15489167Y-11375976D01*
X15470119Y-11366452D01*
X15460595Y-11347405D01*
X15460595Y-11271214D01*
X15470119Y-11252167D01*
X15489167Y-11242643D01*
X15527262Y-11242643D01*
X15546309Y-11252167D01*
X15555833Y-11271214D01*
X15555833Y-11290262D01*
X15460595Y-11309309D01*
X15632024Y-11366452D02*
X15651071Y-11375976D01*
X15689167Y-11375976D01*
X15708214Y-11366452D01*
X15717738Y-11347405D01*
X15717738Y-11337881D01*
X15708214Y-11318833D01*
X15689167Y-11309309D01*
X15660595Y-11309309D01*
X15641548Y-11299786D01*
X15632024Y-11280738D01*
X15632024Y-11271214D01*
X15641548Y-11252167D01*
X15660595Y-11242643D01*
X15689167Y-11242643D01*
X15708214Y-11252167D01*
X15784405Y-11452167D02*
X15793928Y-11442643D01*
X15812976Y-11414071D01*
X15822500Y-11395024D01*
X15832024Y-11366452D01*
X15841548Y-11318833D01*
X15841548Y-11280738D01*
X15832024Y-11233119D01*
X15822500Y-11204548D01*
X15812976Y-11185500D01*
X15793928Y-11156929D01*
X15784405Y-11147405D01*
D15*
X10997856Y-11584856D02*
X10997856Y-11514144D01*
X10927144Y-11514144D01*
X10927144Y-11584856D01*
X10997856Y-11584856D01*
D11*
X11374881Y-11639976D02*
X11260595Y-11639976D01*
X11317738Y-11639976D02*
X11317738Y-11439976D01*
X11298690Y-11468548D01*
X11279643Y-11487595D01*
X11260595Y-11497119D01*
X11460595Y-11620928D02*
X11470119Y-11630452D01*
X11460595Y-11639976D01*
X11451071Y-11630452D01*
X11460595Y-11620928D01*
X11460595Y-11639976D01*
X11593928Y-11439976D02*
X11612976Y-11439976D01*
X11632024Y-11449500D01*
X11641548Y-11459024D01*
X11651071Y-11478071D01*
X11660595Y-11516167D01*
X11660595Y-11563786D01*
X11651071Y-11601881D01*
X11641548Y-11620928D01*
X11632024Y-11630452D01*
X11612976Y-11639976D01*
X11593928Y-11639976D01*
X11574881Y-11630452D01*
X11565357Y-11620928D01*
X11555833Y-11601881D01*
X11546309Y-11563786D01*
X11546309Y-11516167D01*
X11555833Y-11478071D01*
X11565357Y-11459024D01*
X11574881Y-11449500D01*
X11593928Y-11439976D01*
X11784405Y-11439976D02*
X11803452Y-11439976D01*
X11822500Y-11449500D01*
X11832024Y-11459024D01*
X11841548Y-11478071D01*
X11851071Y-11516167D01*
X11851071Y-11563786D01*
X11841548Y-11601881D01*
X11832024Y-11620928D01*
X11822500Y-11630452D01*
X11803452Y-11639976D01*
X11784405Y-11639976D01*
X11765357Y-11630452D01*
X11755833Y-11620928D01*
X11746309Y-11601881D01*
X11736786Y-11563786D01*
X11736786Y-11516167D01*
X11746309Y-11478071D01*
X11755833Y-11459024D01*
X11765357Y-11449500D01*
X11784405Y-11439976D01*
X11974881Y-11439976D02*
X11993928Y-11439976D01*
X12012976Y-11449500D01*
X12022500Y-11459024D01*
X12032024Y-11478071D01*
X12041548Y-11516167D01*
X12041548Y-11563786D01*
X12032024Y-11601881D01*
X12022500Y-11620928D01*
X12012976Y-11630452D01*
X11993928Y-11639976D01*
X11974881Y-11639976D01*
X11955833Y-11630452D01*
X11946309Y-11620928D01*
X11936786Y-11601881D01*
X11927262Y-11563786D01*
X11927262Y-11516167D01*
X11936786Y-11478071D01*
X11946309Y-11459024D01*
X11955833Y-11449500D01*
X11974881Y-11439976D01*
X12127262Y-11639976D02*
X12127262Y-11506643D01*
X12127262Y-11525690D02*
X12136786Y-11516167D01*
X12155833Y-11506643D01*
X12184405Y-11506643D01*
X12203452Y-11516167D01*
X12212976Y-11535214D01*
X12212976Y-11639976D01*
X12212976Y-11535214D02*
X12222500Y-11516167D01*
X12241548Y-11506643D01*
X12270119Y-11506643D01*
X12289167Y-11516167D01*
X12298690Y-11535214D01*
X12298690Y-11639976D01*
X12393928Y-11639976D02*
X12393928Y-11506643D01*
X12393928Y-11525690D02*
X12403452Y-11516167D01*
X12422500Y-11506643D01*
X12451071Y-11506643D01*
X12470119Y-11516167D01*
X12479643Y-11535214D01*
X12479643Y-11639976D01*
X12479643Y-11535214D02*
X12489167Y-11516167D01*
X12508214Y-11506643D01*
X12536786Y-11506643D01*
X12555833Y-11516167D01*
X12565357Y-11535214D01*
X12565357Y-11639976D01*
X12955833Y-11430452D02*
X12784405Y-11687595D01*
X13212976Y-11439976D02*
X13232024Y-11439976D01*
X13251071Y-11449500D01*
X13260595Y-11459024D01*
X13270119Y-11478071D01*
X13279643Y-11516167D01*
X13279643Y-11563786D01*
X13270119Y-11601881D01*
X13260595Y-11620928D01*
X13251071Y-11630452D01*
X13232024Y-11639976D01*
X13212976Y-11639976D01*
X13193928Y-11630452D01*
X13184405Y-11620928D01*
X13174881Y-11601881D01*
X13165357Y-11563786D01*
X13165357Y-11516167D01*
X13174881Y-11478071D01*
X13184405Y-11459024D01*
X13193928Y-11449500D01*
X13212976Y-11439976D01*
X13365357Y-11620928D02*
X13374881Y-11630452D01*
X13365357Y-11639976D01*
X13355833Y-11630452D01*
X13365357Y-11620928D01*
X13365357Y-11639976D01*
X13498690Y-11439976D02*
X13517738Y-11439976D01*
X13536786Y-11449500D01*
X13546309Y-11459024D01*
X13555833Y-11478071D01*
X13565357Y-11516167D01*
X13565357Y-11563786D01*
X13555833Y-11601881D01*
X13546309Y-11620928D01*
X13536786Y-11630452D01*
X13517738Y-11639976D01*
X13498690Y-11639976D01*
X13479643Y-11630452D01*
X13470119Y-11620928D01*
X13460595Y-11601881D01*
X13451071Y-11563786D01*
X13451071Y-11516167D01*
X13460595Y-11478071D01*
X13470119Y-11459024D01*
X13479643Y-11449500D01*
X13498690Y-11439976D01*
X13632024Y-11439976D02*
X13755833Y-11439976D01*
X13689167Y-11516167D01*
X13717738Y-11516167D01*
X13736786Y-11525690D01*
X13746309Y-11535214D01*
X13755833Y-11554262D01*
X13755833Y-11601881D01*
X13746309Y-11620928D01*
X13736786Y-11630452D01*
X13717738Y-11639976D01*
X13660595Y-11639976D01*
X13641548Y-11630452D01*
X13632024Y-11620928D01*
X13851071Y-11639976D02*
X13889167Y-11639976D01*
X13908214Y-11630452D01*
X13917738Y-11620928D01*
X13936786Y-11592357D01*
X13946309Y-11554262D01*
X13946309Y-11478071D01*
X13936786Y-11459024D01*
X13927262Y-11449500D01*
X13908214Y-11439976D01*
X13870119Y-11439976D01*
X13851071Y-11449500D01*
X13841548Y-11459024D01*
X13832024Y-11478071D01*
X13832024Y-11525690D01*
X13841548Y-11544738D01*
X13851071Y-11554262D01*
X13870119Y-11563786D01*
X13908214Y-11563786D01*
X13927262Y-11554262D01*
X13936786Y-11544738D01*
X13946309Y-11525690D01*
X14117738Y-11506643D02*
X14117738Y-11639976D01*
X14070119Y-11430452D02*
X14022500Y-11573309D01*
X14146309Y-11573309D01*
X14212976Y-11439976D02*
X14212976Y-11478071D01*
X14289167Y-11439976D02*
X14289167Y-11478071D01*
X14584405Y-11716167D02*
X14574881Y-11706643D01*
X14555833Y-11678071D01*
X14546309Y-11659024D01*
X14536786Y-11630452D01*
X14527262Y-11582833D01*
X14527262Y-11544738D01*
X14536786Y-11497119D01*
X14546309Y-11468548D01*
X14555833Y-11449500D01*
X14574881Y-11420928D01*
X14584405Y-11411405D01*
X14641548Y-11439976D02*
X14765357Y-11439976D01*
X14698690Y-11516167D01*
X14727262Y-11516167D01*
X14746309Y-11525690D01*
X14755833Y-11535214D01*
X14765357Y-11554262D01*
X14765357Y-11601881D01*
X14755833Y-11620928D01*
X14746309Y-11630452D01*
X14727262Y-11639976D01*
X14670119Y-11639976D01*
X14651071Y-11630452D01*
X14641548Y-11620928D01*
X14879643Y-11525690D02*
X14860595Y-11516167D01*
X14851071Y-11506643D01*
X14841548Y-11487595D01*
X14841548Y-11478071D01*
X14851071Y-11459024D01*
X14860595Y-11449500D01*
X14879643Y-11439976D01*
X14917738Y-11439976D01*
X14936786Y-11449500D01*
X14946309Y-11459024D01*
X14955833Y-11478071D01*
X14955833Y-11487595D01*
X14946309Y-11506643D01*
X14936786Y-11516167D01*
X14917738Y-11525690D01*
X14879643Y-11525690D01*
X14860595Y-11535214D01*
X14851071Y-11544738D01*
X14841548Y-11563786D01*
X14841548Y-11601881D01*
X14851071Y-11620928D01*
X14860595Y-11630452D01*
X14879643Y-11639976D01*
X14917738Y-11639976D01*
X14936786Y-11630452D01*
X14946309Y-11620928D01*
X14955833Y-11601881D01*
X14955833Y-11563786D01*
X14946309Y-11544738D01*
X14936786Y-11535214D01*
X14917738Y-11525690D01*
X15193928Y-11639976D02*
X15193928Y-11439976D01*
X15279643Y-11639976D02*
X15279643Y-11535214D01*
X15270119Y-11516167D01*
X15251071Y-11506643D01*
X15222500Y-11506643D01*
X15203452Y-11516167D01*
X15193928Y-11525690D01*
X15403452Y-11639976D02*
X15384405Y-11630452D01*
X15374881Y-11620928D01*
X15365357Y-11601881D01*
X15365357Y-11544738D01*
X15374881Y-11525690D01*
X15384405Y-11516167D01*
X15403452Y-11506643D01*
X15432024Y-11506643D01*
X15451071Y-11516167D01*
X15460595Y-11525690D01*
X15470119Y-11544738D01*
X15470119Y-11601881D01*
X15460595Y-11620928D01*
X15451071Y-11630452D01*
X15432024Y-11639976D01*
X15403452Y-11639976D01*
X15584405Y-11639976D02*
X15565357Y-11630452D01*
X15555833Y-11611405D01*
X15555833Y-11439976D01*
X15736786Y-11630452D02*
X15717738Y-11639976D01*
X15679643Y-11639976D01*
X15660595Y-11630452D01*
X15651071Y-11611405D01*
X15651071Y-11535214D01*
X15660595Y-11516167D01*
X15679643Y-11506643D01*
X15717738Y-11506643D01*
X15736786Y-11516167D01*
X15746309Y-11535214D01*
X15746309Y-11554262D01*
X15651071Y-11573309D01*
X15822500Y-11630452D02*
X15841548Y-11639976D01*
X15879643Y-11639976D01*
X15898690Y-11630452D01*
X15908214Y-11611405D01*
X15908214Y-11601881D01*
X15898690Y-11582833D01*
X15879643Y-11573309D01*
X15851071Y-11573309D01*
X15832024Y-11563786D01*
X15822500Y-11544738D01*
X15822500Y-11535214D01*
X15832024Y-11516167D01*
X15851071Y-11506643D01*
X15879643Y-11506643D01*
X15898690Y-11516167D01*
X15974881Y-11716167D02*
X15984405Y-11706643D01*
X16003452Y-11678071D01*
X16012976Y-11659024D01*
X16022500Y-11630452D01*
X16032024Y-11582833D01*
X16032024Y-11544738D01*
X16022500Y-11497119D01*
X16012976Y-11468548D01*
X16003452Y-11449500D01*
X15984405Y-11420928D01*
X15974881Y-11411405D01*
M02*
